<?xml version="1.0" encoding="UTF-8"?>
<svg width="135px" height="138px" viewBox="0 0 135 138" version="1.1" xmlns="http://www.w3.org/2000/svg" xmlns:xlink="http://www.w3.org/1999/xlink">
    <!-- Generator: Sketch 46.2 (44496) - http://www.bohemiancoding.com/sketch -->
    <title>Page 1</title>
    <desc>Created with Sketch.</desc>
    <defs>
        <filter x="-5.4%" y="-3.8%" width="110.9%" height="110.6%" filterUnits="objectBoundingBox" id="filter-1">
            <feOffset dx="0" dy="2" in="SourceAlpha" result="shadowOffsetOuter1"></feOffset>
            <feGaussianBlur stdDeviation="2" in="shadowOffsetOuter1" result="shadowBlurOuter1"></feGaussianBlur>
            <feColorMatrix values="0 0 0 0 0   0 0 0 0 0   0 0 0 0 0  0 0 0 0.1 0" type="matrix" in="shadowBlurOuter1" result="shadowMatrixOuter1"></feColorMatrix>
            <feMerge>
                <feMergeNode in="shadowMatrixOuter1"></feMergeNode>
                <feMergeNode in="SourceGraphic"></feMergeNode>
            </feMerge>
        </filter>
    </defs>
    <g id="Invision/Proto" stroke="none" stroke-width="1" fill="none" fill-rule="evenodd">
        <g id="8-Careers" transform="translate(-219.000000, -2411.000000)">
            <g id="Page-1" filter="url(#filter-1)" transform="translate(223.000000, 2413.000000)">
                <polygon id="Fill-1" fill="#F47B4D" points="76.8869769 124.8075 34.7139 124.8075 24.7908231 44.6538462 86.8100538 44.6538462"></polygon>
                <polygon id="Fill-2" fill="#EFE85B" points="53.3191731 37.2115385 58.2807115 37.2115385 58.2807115 7.44230769 53.3191731 7.44230769"></polygon>
                <polygon id="Fill-3" fill="#EFE85B" points="69.2022981 0.000496153846 53.3179327 7.02107308 55.324875 11.5559192 71.2067596 4.54030385"></polygon>
                <polygon id="Fill-4" fill="#FBFBFB" points="79.3677462 37.2125308 74.4062077 29.7702231 37.1946692 29.7702231 32.2331308 37.2125308 21.0696692 37.2125308 21.0696692 44.6548385 90.5312077 44.6548385 90.5312077 37.2125308"></polygon>
                <polygon id="Fill-5" fill="#EFE85B" points="0.651946154 80.5582673 6.74223462 112.604844 8.70452308 112.200479 2.55717692 80.3399596 0.912426923 80.1563827"></polygon>
                <polygon id="Fill-6" fill="#E5DA53" points="10.6643308 111.795617 8.70452308 112.199983 2.55469615 80.3394635 4.54427308 80.5627327"></polygon>
                <polygon id="Fill-7" fill="#EFE85B" points="10.4512327 106.553008 8.45421346 106.438892 10.1485788 73.8192577 10.4983673 73.4967577 12.0463673 74.0971038"></polygon>
                <polygon id="Fill-8" fill="#E5DA53" points="12.4475077 106.664394 10.4504885 106.55276 12.0456231 74.0968558 13.9186038 74.8237212"></polygon>
                <polygon id="Fill-9" fill="#EFE85B" points="27.1262192 111.216606 25.1242385 111.26374 24.4469885 78.6019327 24.7719692 78.2521442 26.3571808 78.7284519"></polygon>
                <polygon id="Fill-10" fill="#E5DA53" points="29.1247269 111.170463 27.1252269 111.217598 26.3586692 78.7294442 28.2787846 79.3049827"></polygon>
                <polygon id="Fill-11" fill="#EFE85B" points="22.4043231 107.054619 20.4097846 106.900812 22.7218615 74.32335 23.0766115 74.0082923 24.6146885 74.6408885"></polygon>
                <polygon id="Fill-12" fill="#E5DA53" points="24.3983654 107.209667 22.4038269 107.05586 24.6141923 74.6396481 26.4747692 75.4062058"></polygon>
                <polygon id="Fill-13" fill="#EFE85B" points="19.8607904 108.750225 17.8637712 108.596417 20.1783288 76.0189558 20.5330788 75.7038981 22.0711558 76.3364942"></polygon>
                <polygon id="Fill-14" fill="#E5DA53" points="21.8545846 108.905273 19.8600462 108.751465 22.0704115 76.3352538 23.9309885 77.1018115"></polygon>
                <polygon id="Fill-15" fill="#EFE85B" points="35.8741558 111.625933 37.8290019 112.060067 44.3831942 80.1127212 44.1251942 79.705875 42.482925 79.8646442"></polygon>
                <polygon id="Fill-16" fill="#E5DA53" points="33.9193096 111.189813 35.8741558 111.626429 42.482925 79.8651404 40.4908673 80.0561596"></polygon>
                <polygon id="Fill-17" fill="#EFE85B" points="32.5092404 113.922629 34.4963365 113.694398 31.0629519 81.2211288 30.6982788 80.9209558 29.1825288 81.6106096"></polygon>
                <polygon id="Fill-18" fill="#E5DA53" points="30.5201596 114.150363 32.5097365 113.922133 29.183025 81.6101135 27.3522173 82.4436519"></polygon>
                <polygon id="Fill-19" fill="#EFE85B" points="14.4073154 111.248112 16.4068154 111.205938 15.8039885 78.5441308 15.4666038 78.2117077 13.8987577 78.7525154"></polygon>
                <polygon id="Fill-20" fill="#E5DA53" points="12.0007212 79.4128962 12.4100481 111.285819 14.4070673 111.248608 13.8985096 78.7530115"></polygon>
                <polygon id="Fill-21" fill="#EFE85B" points="18.3658788 111.623452 20.3653788 111.58376 19.7600712 78.9219519 19.4251673 78.5870481 17.8573212 79.1303365"></polygon>
                <polygon id="Fill-22" fill="#E5DA53" points="15.9592846 79.7902212 16.3661308 111.663144 18.3656308 111.623452 17.8570731 79.1303365"></polygon>
                <polygon id="Fill-23" fill="#EFE85B" points="6.66706731 110.700606 8.66408654 110.794875 10.110375 78.1628365 9.79283654 77.803125 8.19522115 78.2397404"></polygon>
                <polygon id="Fill-24" fill="#E5DA53" points="4.66831154 110.603608 6.66781154 110.700358 8.19596538 78.2394923 6.26096538 78.7703769"></polygon>
                <polygon id="Fill-25" fill="#EFE85B" points="39.2418 107.577813 37.2621462 107.885429 32.6355115 75.5758904 32.9158385 75.1839288 34.5481846 75.4518519"></polygon>
                <polygon id="Fill-26" fill="#E5DA53" points="41.2184769 107.270198 39.2413038 107.577813 34.5501692 75.4518519 36.5248615 75.7718712"></polygon>
                <polygon id="Fill-27" fill="#EFE85B" points="33.2966365 112.641063 31.2971365 112.588967 32.1033865 79.9296404 32.4432519 79.5996981 34.0061365 80.1529096"></polygon>
                <polygon id="Fill-28" fill="#E5DA53" points="35.2951442 112.696881 33.2956442 112.642304 34.0051442 80.15415 35.9004519 80.8239577"></polygon>
                <polygon id="Fill-29" fill="#4FD684" points="36.6987635 90.7125519 34.3370712 99.7227058 10.7300712 99.7227058 8.37085962 90.7125519 0.000744230769 90.7125519 6.00916731 129.769783 39.0554942 129.769783 45.0639173 90.7125519"></polygon>
                <polygon id="Fill-30" fill="#2CBC65" points="4.17513462 117.837531 6.00842308 129.770031 39.0572308 129.770031 40.9624615 117.38355"></polygon>
                <polygon id="Fill-31" fill="#F4E38C" points="70.6222904 82.6346712 62.0189827 90.0769788 62.0189827 102.480825 126.536348 102.480825 126.536348 90.0769788 117.935521 82.6346712"></polygon>
                <polygon id="Fill-32" fill="#F4E38C" points="62.0197269 117.3642 62.0197269 124.808988 66.3189 129.768046 122.235438 129.768046 126.534612 124.808988 126.534612 117.3642"></polygon>
                <polygon id="Fill-33" fill="#824E09" points="62.0197269 102.481073 64.1705538 102.481073 62.0197269 104.961842 62.0197269 114.882438 64.1705538 117.363208 124.388746 117.363208 126.534612 114.882438 126.534612 104.961842 124.388746 102.481073"></polygon>
                <polygon id="Fill-34" fill="#E5CF76" points="77.0725385 85.1151923 77.0725385 87.5959615 79.2258462 85.1151923"></polygon>
                <polygon id="Fill-35" fill="#E5CF76" points="81.3727038 95.0372769 81.3727038 97.5205269 83.5260115 95.0372769"></polygon>
                <polygon id="Fill-36" fill="#E5CF76" points="89.9752673 87.5957135 89.9752673 90.0764827 92.128575 87.5957135"></polygon>
                <polygon id="Fill-37" fill="#E5CF76" points="68.469975 95.0372769 68.469975 97.5205269 70.6232827 95.0372769"></polygon>
                <polygon id="Fill-38" fill="#E5CF76" points="102.882462 92.5567558 102.882462 95.037525 105.030808 92.5567558"></polygon>
                <polygon id="Fill-39" fill="#E5CF76" points="111.482792 85.1151923 111.482792 87.5959615 113.633619 85.1151923"></polygon>
                <polygon id="Fill-40" fill="#E5CF76" points="120.085356 95.0372769 120.085356 97.5205269 122.236183 95.0372769"></polygon>
                <polygon id="Fill-41" fill="#4FD684" points="107.181883 102.480577 115.78519 112.403654 122.23519 102.480577"></polygon>
                <polygon id="Fill-42" fill="#4FD684" points="74.9222077 102.480577 77.0730346 109.922885 92.1288231 102.480577"></polygon>
                <polygon id="Fill-43" fill="#E5CF76" points="64.5158769 127.288517 66.3193962 129.769287 122.235935 129.769287 124.054338 127.288517"></polygon>
            </g>
        </g>
    </g>
</svg>