<?xml version="1.0" encoding="UTF-8"?>
<svg width="137px" height="115px" viewBox="0 0 137 115" version="1.1" xmlns="http://www.w3.org/2000/svg" xmlns:xlink="http://www.w3.org/1999/xlink">
    <!-- Generator: Sketch 46.2 (44496) - http://www.bohemiancoding.com/sketch -->
    <title>Group 9</title>
    <desc>Created with Sketch.</desc>
    <defs>
        <filter x="-5.4%" y="-4.6%" width="110.9%" height="113.0%" filterUnits="objectBoundingBox" id="filter-1">
            <feOffset dx="0" dy="2" in="SourceAlpha" result="shadowOffsetOuter1"></feOffset>
            <feGaussianBlur stdDeviation="2" in="shadowOffsetOuter1" result="shadowBlurOuter1"></feGaussianBlur>
            <feColorMatrix values="0 0 0 0 0   0 0 0 0 0   0 0 0 0 0  0 0 0 0.1 0" type="matrix" in="shadowBlurOuter1" result="shadowMatrixOuter1"></feColorMatrix>
            <feMerge>
                <feMergeNode in="shadowMatrixOuter1"></feMergeNode>
                <feMergeNode in="SourceGraphic"></feMergeNode>
            </feMerge>
        </filter>
        <filter x="-10.2%" y="-7.9%" width="121.1%" height="122.8%" filterUnits="objectBoundingBox" id="filter-2">
            <feOffset dx="0" dy="2" in="SourceAlpha" result="shadowOffsetOuter1"></feOffset>
            <feGaussianBlur stdDeviation="2" in="shadowOffsetOuter1" result="shadowBlurOuter1"></feGaussianBlur>
            <feColorMatrix values="0 0 0 0 0   0 0 0 0 0   0 0 0 0 0  0 0 0 0.15 0" type="matrix" in="shadowBlurOuter1" result="shadowMatrixOuter1"></feColorMatrix>
            <feMerge>
                <feMergeNode in="shadowMatrixOuter1"></feMergeNode>
                <feMergeNode in="SourceGraphic"></feMergeNode>
            </feMerge>
        </filter>
    </defs>
    <g id="Invision/Proto" stroke="none" stroke-width="1" fill="none" fill-rule="evenodd">
        <g id="8-Careers" transform="translate(-136.000000, -2263.000000)">
            <g id="Group-9" transform="translate(140.000000, 2265.000000)">
                <g id="Page-1" filter="url(#filter-1)" fill="#4FD684">
                    <path d="M102.209158,52.3765273 C102.115041,44.706836 101.207606,37.4580099 99.6573299,30.9212806 C106.089287,29.3230583 111.828681,27.041152 116.657088,24.2229533 C122.401809,32.1963069 125.873503,41.8850857 126.148753,52.3765273 L102.209158,52.3765273 Z M116.657088,83.1955809 C111.828681,80.3773822 106.089287,78.0937001 99.6573299,76.4954778 C101.207606,69.9587485 102.115041,62.7099224 102.209158,55.0402311 L126.148753,55.0402311 C125.873503,65.5316727 122.401809,75.2204515 116.657088,83.1955809 L116.657088,83.1955809 Z M85.1721083,103.38468 C91.1015131,98.8119887 96.0187104,90.1727092 99.0251442,79.1183382 C105.103716,80.6313219 110.532345,82.7569576 115.048211,85.3425262 C107.671527,94.5234254 97.1747579,101.076137 85.1721083,103.38468 L85.1721083,103.38468 Z M76.9394876,76.3889296 C83.6928648,76.4759439 90.2686617,77.23066 96.3614403,78.5447539 C92.3925216,93.0068901 85.1454713,103.164481 76.9394876,104.171361 L76.9394876,76.3889296 Z M76.9394876,55.0402311 L99.5472301,55.0402311 C99.449561,62.4755165 98.5492291,69.5556413 97.0255905,75.9289967 C90.7623348,74.5758352 83.9858722,73.8104643 76.9394876,73.72345 L76.9394876,55.0402311 Z M76.9394876,33.6933084 C83.9858722,33.6080699 90.7623348,32.8409232 97.0255905,31.4877616 C98.5492291,37.8628929 99.449561,44.9412419 99.5472301,52.3765273 L76.9394876,52.3765273 L76.9394876,33.6933084 Z M76.9394876,3.24539758 C85.1454713,4.25405344 92.3925216,14.4116441 96.3614403,28.8720045 C90.2686617,30.1860984 83.6928648,30.9408145 76.9394876,31.0278288 L76.9394876,3.24539758 Z M115.048211,22.0742322 C110.532345,24.6598008 105.103716,26.7872122 99.0251442,28.300196 C96.0187104,17.2440492 91.1015131,8.60476974 85.1721083,4.03207812 C97.1747579,6.34062146 107.671527,12.8951087 115.048211,22.0742322 L115.048211,22.0742322 Z M74.2757837,31.0278288 C67.518855,30.9408145 60.9448339,30.1860984 54.8502794,28.8720045 C58.820974,14.4116441 66.0680243,4.25405344 74.2757837,3.24539758 L74.2757837,31.0278288 Z M74.2757837,52.3765273 L51.6662654,52.3765273 C51.7639346,44.9412419 52.6642665,37.8628929 54.1879051,31.4877616 C60.4511607,32.8409232 67.2258475,33.6080699 74.2757837,33.6933084 L74.2757837,52.3765273 Z M74.2757837,73.72345 C67.2258475,73.8104643 60.4511607,74.5758352 54.1879051,75.9289967 C52.6642665,69.5556413 51.7639346,62.4755165 51.6662654,55.0402311 L74.2757837,55.0402311 L74.2757837,73.72345 Z M74.2757837,104.171361 C66.0680243,103.164481 58.820974,93.0068901 54.8502794,78.5447539 C60.9430581,77.23066 67.518855,76.4759439 74.2757837,76.3889296 L74.2757837,104.171361 Z M36.415673,85.631982 C40.6847023,84.4066782 45.0638315,82.7001319 49.4056688,80.4555175 C50.2207621,80.0328765 51.0216491,79.5995807 51.8083296,79.15563 L50.4977873,76.8346561 C49.7377438,77.2661761 48.9652697,77.6817139 48.180365,78.0883727 C43.6538442,80.4306563 39.0971348,82.186925 34.7020235,83.3909191 L34.5564077,83.1955809 C28.8116864,75.2204515 25.3382165,65.5316727 25.0647429,55.0402311 L49.0025616,55.0402311 C49.0984549,62.7099224 50.00589,69.9587485 51.5579415,76.4954778 L52.1883514,79.1165624 C55.1930093,90.1727092 60.1119825,98.8119887 66.0413872,103.38468 C54.1665954,101.100998 43.781702,94.6548348 36.415673,85.631982 L36.415673,85.631982 Z M4.66787463,77.7935894 C0.212385987,69.1862744 8.04012371,55.8286875 22.9817265,45.9676558 C22.6745127,48.070206 22.4543132,50.1993933 22.4010391,52.3765273 L22.3335586,52.3765273 L22.3335586,55.0402311 L22.4010391,55.0402311 C22.6674095,65.8317833 26.1550857,75.7958115 31.9228925,84.0746031 C19.1850606,86.9141114 8.3082699,84.8275434 4.66787463,77.7935894 L4.66787463,77.7935894 Z M34.5564077,24.2229533 C39.3848149,27.041152 45.1242088,29.3230583 51.5579415,30.9212806 C50.00589,37.4580099 49.0984549,44.706836 49.0025616,52.3765273 L25.0647429,52.3765273 C25.3382165,41.8850857 28.8116864,32.1963069 34.5564077,24.2229533 L34.5564077,24.2229533 Z M66.0413872,4.03207812 C60.1119825,8.60476974 55.1930093,17.2440492 52.1883514,28.300196 C46.1097792,26.7872122 40.6811507,24.6598008 36.163509,22.0742322 C43.5419687,12.8951087 54.0369619,6.34062146 66.0413872,4.03207812 L66.0413872,4.03207812 Z M128.812456,52.3765273 C128.538983,41.2742096 124.875502,31.0331562 118.805809,22.6176278 L117.488163,20.6393837 C117.452647,20.6624692 117.411804,20.6802272 117.376288,20.7050884 C107.875744,8.69888727 93.3372485,0.908441401 76.9394876,0.501782613 L76.9394876,0.434302115 L74.2757837,0.434302115 L74.2757837,0.501782613 C57.876247,0.908441401 43.3359756,8.69888727 33.8372076,20.7050884 C33.8034674,20.6802272 33.7608481,20.6624692 33.7271079,20.6393837 L32.4059108,22.6176278 C28.2079135,28.4404844 25.1961523,35.1512423 23.6263429,42.4018442 C6.16132459,53.1010547 -3.00181666,68.7707366 2.30250561,79.0188932 C5.34800702,84.9003513 12.5968331,87.8765964 21.7120277,87.8765964 C25.3772842,87.8765964 29.3568578,87.3669411 33.4731681,86.3991287 L33.7271079,86.7791504 C33.7608481,86.7542892 33.8034674,86.7365312 33.8372076,86.7134457 C43.3359756,98.7178711 57.876247,106.508317 74.2757837,106.914976 L74.2757837,106.982456 L76.9394876,106.982456 L76.9394876,106.914976 C93.3372485,106.508317 107.875744,98.7178711 117.376288,86.7134457 C117.411804,86.7365312 117.452647,86.7542892 117.488163,86.7791504 L118.805809,84.8009064 C124.875502,76.3836022 128.538983,66.1425488 128.812456,55.0402311 L128.881713,55.0402311 L128.881713,52.3765273 L128.812456,52.3765273 Z" id="Fill-2"></path>
                </g>
                <g id="Group-8" filter="url(#filter-2)" transform="translate(42.426883, 34.302586)">
                    <polyline id="Fill-5" fill="#E6E6E6" points="8.64129208 43.6618354 7.92919525 42.3317592 9.24861655 40.5417502 0.760280273 29.5779452 4.82509235 27.4008112 14.3309635 35.3830438 29.4963174 24.6429898 12.3704775 2.43657871 21.5868928 0.115604747 43.720496 17.023021 55.9113807 10.4916192 63.0962779 9.25743637 66.216363 10.2003875 67.30493 12.2336815"></polyline>
                    <polyline id="Fill-7" fill="#D8D8D8" points="67.3052851 12.2333263 68.3938521 14.2666203 67.4509009 17.3849296 62.4431377 22.6839244 50.2504772 29.2153263 52.0653475 57.0084123 45.0260661 63.3941983 36.0280745 36.8352951 18.6838108 43.510537 20.0618336 55.8488132 15.9987973 58.0241714 11.5006894 44.7447198 9.27916036 44.8530437 8.64164724 43.6614802"></polyline>
                    <polyline id="Fill-9" fill="#E6E6E6" points="18.6839883 43.5108921 20.0620111 55.8473926 15.9989749 58.0245265 11.500867 44.7432991"></polyline>
                    <polyline id="Fill-11" fill="#E6E6E6" points="50.2513651 29.2144384 52.0644596 57.0075244 45.026954 63.3933104 36.0271866 36.8344072"></polyline>
                </g>
            </g>
        </g>
    </g>
</svg>