<?xml version="1.0" encoding="UTF-8"?>
<svg width="60px" height="60px" viewBox="0 0 60 60" version="1.1" xmlns="http://www.w3.org/2000/svg" xmlns:xlink="http://www.w3.org/1999/xlink">
    <!-- Generator: Sketch 46.1 (44463) - http://www.bohemiancoding.com/sketch -->
    <title>bootstrap-4</title>
    <desc>Created with Sketch.</desc>
    <defs></defs>
    <g id="Invision/Proto" stroke="none" stroke-width="1" fill="none" fill-rule="evenodd">
        <g id="2d-Custom-Web-App-Development" transform="translate(-602.000000, -2670.000000)" fill-rule="nonzero">
            <g id="Group-6" transform="translate(252.000000, 2670.000000)">
                <g id="bootstrap-4" transform="translate(350.000000, 0.000000)">
                    <path d="M0,52.2635156 C0,56.5366406 3.46382813,60 7.73648437,60 L52.2632813,60 C56.5366406,60 60,56.5361719 60,52.2635156 L60,7.73671875 C60,3.46335938 56.5361719,0 52.2635156,0 L7.73671875,0 C3.46335938,0 0,3.46382813 0,7.73648437 L0,52.2632813 L0,52.2635156 Z" id="Shape" fill="#563D7C"></path>
                    <path d="M24.8807812,26.5401563 L24.8807812,18.0433594 L32.3599219,18.0433594 C33.0724219,18.0433594 33.7591406,18.1026563 34.4205469,18.2214844 C35.0819531,18.3400781 35.6671875,18.5519531 36.1760156,18.8573438 C36.6846094,19.1627344 37.0917188,19.5867188 37.3971094,20.1292969 C37.7022656,20.6721094 37.8550781,21.3675 37.8550781,22.2152344 C37.8550781,23.7417188 37.3971094,24.8442187 36.4811719,25.5225 C35.5654688,26.2010156 34.3952344,26.5401563 32.9704688,26.5401563 L24.8807813,26.5401563 L24.8807812,26.5401563 Z M16.8925781,11.8359375 L16.8925781,48.1640625 L34.4969531,48.1640625 C36.1251563,48.1640625 37.7109375,47.960625 39.2542969,47.5535156 C40.7976563,47.1464062 42.1713281,46.5189844 43.3755469,45.6710156 C44.5795313,44.8230469 45.5378906,43.7289844 46.2501563,42.3892969 C46.9626562,41.049375 47.3186719,39.4635938 47.3186719,37.6319531 C47.3186719,35.3592187 46.7674219,33.4174219 45.6651563,31.8063281 C44.5626563,30.195 42.8920313,29.0671875 40.6532813,28.4226563 C42.2814844,27.6426563 43.51125,26.641875 44.3423438,25.4207812 C45.1732031,24.1996875 45.58875,22.6734375 45.58875,20.8415625 C45.58875,19.145625 45.3089063,17.7210937 44.7492188,16.5677344 C44.1895313,15.4146094 43.4008594,14.4902344 42.3832031,13.7948437 C41.3657813,13.0994531 40.1446875,12.5990625 38.7199219,12.2939063 C37.2953906,11.9885156 35.7180469,11.8359375 33.988125,11.8359375 L16.8925781,11.8359375 Z M24.8807813,41.9566406 L24.8807813,31.9842188 L33.5810156,31.9842188 C35.3109375,31.9842188 36.7017188,32.3826562 37.7533594,33.18 C38.8047656,33.9771094 39.3307031,35.3083594 39.3307031,37.1739844 C39.3307031,38.1239062 39.1694531,38.9039062 38.8471875,39.5144531 C38.5249219,40.125 38.0925,40.6085156 37.5496875,40.9645313 C37.0071094,41.3207813 36.3794531,41.5750781 35.6671875,41.7278906 C34.9546875,41.8802344 34.2086719,41.9566406 33.4284375,41.9566406 L24.8807812,41.9566406 L24.8807813,41.9566406 Z" id="Shape" fill="#FFFFFF"></path>
                </g>
            </g>
        </g>
    </g>
</svg>