<?xml version="1.0" encoding="UTF-8"?>
<svg width="43px" height="60px" viewBox="0 0 43 60" version="1.1" xmlns="http://www.w3.org/2000/svg" xmlns:xlink="http://www.w3.org/1999/xlink">
    <!-- Generator: Sketch 46.1 (44463) - http://www.bohemiancoding.com/sketch -->
    <title>html-5</title>
    <desc>Created with Sketch.</desc>
    <defs></defs>
    <g id="Invision/Proto" stroke="none" stroke-width="1" fill="none" fill-rule="evenodd">
        <g id="2d-Custom-Web-App-Development" transform="translate(-235.000000, -2555.000000)" fill-rule="nonzero">
            <g id="Group-2" transform="translate(235.000000, 2550.000000)">
                <g id="html-5" transform="translate(0.000000, 5.000000)">
                    <polygon id="Shape" fill="#E44D26" points="42.4745152 11.761662 38.6117452 55.0347922 21.2483102 59.8484211 3.93274238 55.0414404 0.0739612188 11.761662"></polygon>
                    <polygon id="Shape" fill="#F16529" points="21.2742382 56.1689751 35.3047645 52.2792798 38.6055956 15.3003324 21.2742382 15.3003324"></polygon>
                    <path d="M13.765097,25.9166759 L21.2742382,25.9166759 L21.2742382,20.6085873 L7.96404432,20.6085873 L8.09102493,22.0326316 L9.39573407,36.6603324 L21.2742382,36.6603324 L21.2742382,31.3522438 L14.2502493,31.3522438 L13.765097,25.9166759 L13.765097,25.9166759 Z M14.9614404,39.3144598 L9.63290859,39.3144598 L10.3765097,47.6489751 L21.2498061,50.6672576 L21.2742382,50.6606094 L21.2742382,45.1379501 L21.2509695,45.1440997 L15.3393906,43.547867 L14.9614404,39.3144598 L14.9614404,39.3144598 Z" id="Shape" fill="#EBEBEB"></path>
                    <path d="M4.01883657,0 L6.71634349,0 L6.71634349,2.66509695 L9.18398892,2.66509695 L9.18398892,0 L11.881662,0 L11.881662,8.07058172 L9.18415512,8.07058172 L9.18415512,5.36808864 L6.7165097,5.36808864 L6.7165097,8.07058172 L4.01900277,8.07058172 L4.01900277,0 L4.01883657,0 Z M15.4288089,2.67639889 L13.0544044,2.67639889 L13.0544044,0 L20.5027147,0 L20.5027147,2.67639889 L18.1268144,2.67639889 L18.1268144,8.07058172 L15.4293075,8.07058172 L15.4293075,2.67639889 L15.4291413,2.67639889 L15.4288089,2.67639889 Z M21.6847645,0 L24.4974515,0 L26.2276454,2.83578947 L27.9561773,0 L30.7700277,0 L30.7700277,8.07058172 L28.0834903,8.07058172 L28.0834903,4.07036011 L26.2276454,6.9398892 L26.181108,6.9398892 L24.3240997,4.07036011 L24.3240997,8.07058172 L21.6847645,8.07058172 L21.6847645,0 Z M32.1124654,0 L34.8108033,0 L34.8108033,5.40299169 L38.6042659,5.40299169 L38.6042659,8.07058172 L32.1122992,8.07058172 L32.1122992,0 L32.1124654,0 Z" id="Shape" fill="#000000"></path>
                    <path d="M21.2559557,36.6603324 L27.7922992,36.6603324 L27.1760111,43.5445429 L21.2557895,45.1424377 L21.2557895,50.6647645 L32.1377285,47.6489751 L32.2175069,46.752133 L33.4650416,32.7776177 L33.5945152,31.3522438 L21.2559557,31.3522438 L21.2559557,36.6603324 Z M21.2559557,25.9037119 L21.2559557,25.9166759 L34.0775069,25.9166759 L34.1838781,24.7236565 L34.4258726,22.0326316 L34.552687,20.6085873 L21.2559557,20.6085873 L21.2559557,25.9038781 L21.2559557,25.9037119 Z" id="Shape" fill="#FFFFFF"></path>
                </g>
            </g>
        </g>
    </g>
</svg>