<?xml version="1.0" encoding="UTF-8"?>
<svg width="60px" height="60px" viewBox="0 0 60 60" version="1.1" xmlns="http://www.w3.org/2000/svg" xmlns:xlink="http://www.w3.org/1999/xlink">
    <!-- Generator: Sketch 46.1 (44463) - http://www.bohemiancoding.com/sketch -->
    <title>swift-15</title>
    <desc>Created with Sketch.</desc>
    <defs>
        <linearGradient x1="59.4044171%" y1="-3.56835938%" x2="40.4900015%" y2="103.580469%" id="linearGradient-1">
            <stop stop-color="#FAAE42" offset="0%"></stop>
            <stop stop-color="#EF3E31" offset="100%"></stop>
        </linearGradient>
        <linearGradient x1="59.840562%" y1="1.97408483%" x2="43.6223274%" y2="97.7940434%" id="linearGradient-2">
            <stop stop-color="#E39F3A" offset="0%"></stop>
            <stop stop-color="#D33929" offset="100%"></stop>
        </linearGradient>
    </defs>
    <g id="Invision/Proto" stroke="none" stroke-width="1" fill="none" fill-rule="evenodd">
        <g id="2e-Custom-Mobile-App-Development" transform="translate(-375.000000, -1655.000000)" fill-rule="nonzero">
            <g id="Group" transform="translate(375.000000, 1655.000000)">
                <g id="swift-15">
                    <path d="M13.2840467,0 L46.3891051,0 C48,0 49.5642023,0.256809339 51.0817121,0.793774319 C53.2762646,1.58754864 55.2607004,2.98832685 56.7548638,4.80933852 C58.2723735,6.63035019 59.2762646,8.87159533 59.6264591,11.2062257 C59.766537,12.0700389 59.7898833,12.9338521 59.7898833,13.7976654 L59.7898833,46.0856031 C59.7898833,47.1128405 59.7431907,48.1634241 59.5330739,49.1673152 C59.0661479,51.4785992 57.9688716,53.6498054 56.381323,55.4007782 C54.8171206,57.151751 52.7626459,58.459144 50.5447471,59.1595331 C49.1906615,59.5797665 47.7898833,59.766537 46.3657588,59.766537 C45.7354086,59.766537 13.1906615,59.766537 12.7003891,59.7431907 C10.3190661,59.6264591 7.96108949,58.8560311 5.9766537,57.5252918 C4.03891051,56.2178988 2.45136187,54.3968872 1.42412451,52.2957198 C0.536964981,50.4980545 0.093385214,48.4902724 0.093385214,46.4824903 L0.093385214,13.2840467 C0.046692607,11.2996109 0.46692607,9.3385214 1.3307393,7.56420233 C2.33463035,5.46303502 3.89883268,3.61867704 5.83657588,2.31128405 C7.82101167,0.957198444 10.155642,0.163424125 12.536965,0.046692607 C12.770428,0 13.0272374,0 13.2840467,0 Z" id="Shape" fill="url(#linearGradient-1)"></path>
                    <path d="M50.4280156,48.8871595 C50.2178988,48.5603113 49.9844358,48.233463 49.7276265,47.9299611 C49.1439689,47.229572 48.4669261,46.6225681 47.7198444,46.1089494 C46.7859922,45.4785992 45.688716,45.0817121 44.5680934,45.0350195 C43.7743191,44.9883268 42.9805447,45.1284047 42.233463,45.4085603 C41.4863813,45.6653696 40.7626459,46.0389105 40.0622568,46.4124514 C39.2451362,46.8326848 38.4280156,47.2529183 37.5642023,47.6031128 C36.536965,48.0233463 35.463035,48.3501946 34.3657588,48.5836576 C32.9883268,48.8404669 31.5875486,48.9338521 30.2101167,48.9105058 C27.7120623,48.8638132 25.2140078,48.4902724 22.8326848,47.7898833 C20.7315175,47.1595331 18.7237354,46.2957198 16.8326848,45.1984436 C15.1750973,44.2412451 13.6342412,43.1439689 12.1867704,41.9066148 C10.9961089,40.8793774 9.89883268,39.7821012 8.87159533,38.614786 C8.17120623,37.7976654 7.49416342,36.9338521 6.86381323,36.0466926 C6.60700389,35.6964981 6.37354086,35.3229572 6.16342412,34.9494163 L0,28.2957198 L0,13.2373541 C0,5.92996109 5.90661479,0 13.2140078,0 L25.0038911,0 L33.7354086,8.87159533 C53.4396887,22.2723735 47.0661479,37.0505837 47.0661479,37.0505837 C47.0661479,37.0505837 52.6692607,43.3540856 50.4280156,48.8871595 Z" id="Shape" fill="url(#linearGradient-2)"></path>
                    <path d="M33.7821012,8.87159533 C53.4863813,22.2723735 47.1128405,37.0505837 47.1128405,37.0505837 C47.1128405,37.0505837 52.7159533,43.3774319 50.4513619,48.9105058 C50.4513619,48.9105058 48.1400778,45.0350195 44.2645914,45.0350195 C40.5291829,45.0350195 38.3346304,48.9105058 30.8171206,48.9105058 C14.077821,48.9105058 6.16342412,34.92607 6.16342412,34.92607 C21.2451362,44.848249 31.540856,37.8210117 31.540856,37.8210117 C24.7470817,33.8754864 10.2957198,15.0116732 10.2957198,15.0116732 C22.8793774,25.7276265 28.3190661,28.5525292 28.3190661,28.5525292 C25.07393,25.8677043 15.9688716,12.7470817 15.9688716,12.7470817 C23.2529183,20.1245136 37.7276265,30.4202335 37.7276265,30.4202335 C41.8365759,19.0272374 33.7821012,8.87159533 33.7821012,8.87159533 Z" id="Shape" fill="#FFFFFF"></path>
                </g>
            </g>
        </g>
    </g>
</svg>