<?xml version="1.0" encoding="UTF-8"?>
<svg width="104px" height="41px" viewBox="0 0 104 41" version="1.1" xmlns="http://www.w3.org/2000/svg" xmlns:xlink="http://www.w3.org/1999/xlink">
    <!-- Generator: Sketch 46.1 (44463) - http://www.bohemiancoding.com/sketch -->
    <title>amazon-web-services-1</title>
    <desc>Created with Sketch.</desc>
    <defs></defs>
    <g id="Invision/Proto" stroke="none" stroke-width="1" fill="none" fill-rule="evenodd">
        <g id="2d-Custom-Web-App-Development" transform="translate(-252.000000, -2680.000000)">
            <g id="Group-6" transform="translate(252.000000, 2670.000000)">
                <g id="amazon-web-services-1" transform="translate(0.000000, 10.000000)">
                    <path d="M13.4650505,38.3838384 L7.41010101,36.2109091 L7.41010101,27.3361616 L13.4650505,29.3991919 L13.4650505,38.3838384 M14.5757576,38.3838384 L20.6307071,36.2113131 L20.6307071,27.3361616 L14.5757576,29.3991919 L14.5757576,38.3838384 M8.03232323,26.6723232 L14.160404,24.9470707 L19.8428283,26.7793939 L14.160404,28.7086869 L8.03232323,26.6723232 M6.25616162,25.9850505 L0.201212121,23.8129293 L0.201212121,14.9373737 L6.25616162,17.000404 L6.25616162,25.9850505 M7.36686869,25.9850505 L13.4222222,23.8129293 L13.4222222,14.9373737 L7.36686869,17.000404 L7.36686869,25.9850505 M0.823434343,14.2731313 L6.95191919,12.5482828 L12.6343434,14.3806061 L6.95191919,16.309899 L0.823434343,14.2735354 M20.3850505,25.9850505 L14.329697,23.8129293 L14.329697,14.9373737 L20.3850505,17.000404 L20.3850505,25.9850505 M21.4957576,25.9850505 L27.5511111,23.8129293 L27.5511111,14.9373737 L21.4957576,17.000404 L21.4957576,25.9850505 M14.9527273,14.2731313 L21.0808081,12.5482828 L26.7628283,14.3806061 L21.0808081,16.309899 L14.9527273,14.2735354 M27.5939394,13.5854545 L21.5385859,11.4141414 L21.5385859,2.53858586 L27.5939394,4.60121212 L27.5939394,13.5854545 M28.7046465,13.5854545 L34.759596,11.4141414 L34.759596,2.53858586 L28.7042424,4.60121212 L28.7042424,13.5854545 M22.1612121,1.87474747 L28.289697,0.149494949 L33.9717172,1.98141414 L28.289697,3.91111111 L22.1612121,1.87474747 M41.7232323,13.5854545 L35.6678788,11.4141414 L35.6678788,2.53858586 L41.7232323,4.60121212 L41.7232323,13.5854545 M42.8335354,13.5854545 L48.8888889,11.4141414 L48.8888889,2.53858586 L42.8335354,4.60121212 L42.8335354,13.5854545 M36.290101,1.87474747 L42.4185859,0.149494949 L48.1006061,1.98141414 L42.4185859,3.91070707 L36.290101,1.87434343" id="Shape" fill="#FF9900" fill-rule="nonzero"></path>
                    <polygon id="Shape" fill="#000000" fill-rule="nonzero" points="38.6428283 32.6020202 36.6088889 39.6682828 35.7252525 39.6682828 34.1414141 34.419798 32.689697 39.6682828 31.7886869 39.6682828 29.6735354 32.6020202 30.7664646 32.6020202 32.3062626 37.8678788 33.7721212 32.6020202 34.5785859 32.6020202 36.1721212 37.8848485 37.7547475 32.6020202 38.6424242 32.6020202"></polygon>
                    <polygon id="Shape" stroke="#000000" fill="#000000" fill-rule="nonzero" points="38.6428283 32.6020202 36.6088889 39.6682828 35.7252525 39.6682828 34.1414141 34.419798 32.689697 39.6682828 31.7886869 39.6682828 29.6735354 32.6020202 30.7664646 32.6020202 32.3062626 37.8678788 33.7721212 32.6020202 34.5785859 32.6020202 36.1721212 37.8848485 37.7547475 32.6020202 38.6424242 32.6020202"></polygon>
                    <path d="M44.2694949,37.560404 L45.2933333,37.7705051 C45.1070707,38.3745455 44.7438384,38.8751515 44.2044444,39.2707071 C43.6638384,39.6666667 43.0286869,39.8646465 42.2973737,39.8646465 C41.3337374,39.8646465 40.5539394,39.5252525 39.9579798,38.8456566 C39.3616162,38.1668687 39.0638384,37.2755556 39.0638384,36.1737374 C39.0638384,35.0484848 39.3737374,34.1393939 39.9927273,33.4460606 C40.6117172,32.7527273 41.3894949,32.4060606 42.3256566,32.4060606 C43.2480808,32.4060606 43.9890909,32.7252525 44.550303,33.3636364 C45.1111111,34.0020202 45.3987879,34.9571717 45.4129293,36.2290909 L40.2844444,36.2290909 C40.2844444,37.2977778 40.5074747,38.0181818 40.9543434,38.3919192 C41.4008081,38.7648485 41.8731313,38.9515152 42.3709091,38.9515152 C43.2690909,38.9515152 43.9022222,38.4876768 44.2694949,37.560404 L44.2694949,37.560404 Z M44.209697,35.410101 C44.200404,35.0141414 44.1353535,34.6618182 44.0141414,34.3539394 C43.8929293,34.0464646 43.6884848,33.7842424 43.4,33.5672727 C43.1115152,33.3507071 42.7644444,33.2424242 42.359596,33.2424242 C41.8153535,33.2424242 41.3535354,33.4379798 40.9741414,33.829899 C40.5947475,34.2218182 40.3822222,34.7478788 40.3357576,35.409697 L44.209697,35.409697 L44.209697,35.410101 Z" id="Shape" fill="#000000" fill-rule="nonzero"></path>
                    <path d="M44.2694949,37.560404 L45.2933333,37.7705051 C45.1070707,38.3745455 44.7438384,38.8751515 44.2044444,39.2707071 C43.6638384,39.6666667 43.0286869,39.8646465 42.2973737,39.8646465 C41.3337374,39.8646465 40.5539394,39.5252525 39.9579798,38.8456566 C39.3616162,38.1668687 39.0638384,37.2755556 39.0638384,36.1737374 C39.0638384,35.0484848 39.3737374,34.1393939 39.9927273,33.4460606 C40.6117172,32.7527273 41.3894949,32.4060606 42.3256566,32.4060606 C43.2480808,32.4060606 43.9890909,32.7252525 44.550303,33.3636364 C45.1111111,34.0020202 45.3987879,34.9571717 45.4129293,36.2290909 L40.2844444,36.2290909 C40.2844444,37.2977778 40.5074747,38.0181818 40.9543434,38.3919192 C41.4008081,38.7648485 41.8731313,38.9515152 42.3709091,38.9515152 C43.2690909,38.9515152 43.9022222,38.4876768 44.2694949,37.560404 L44.2694949,37.560404 Z M44.209697,35.410101 C44.200404,35.0141414 44.1353535,34.6618182 44.0141414,34.3539394 C43.8929293,34.0464646 43.6884848,33.7842424 43.4,33.5672727 C43.1115152,33.3507071 42.7644444,33.2424242 42.359596,33.2424242 C41.8153535,33.2424242 41.3535354,33.4379798 40.9741414,33.829899 C40.5947475,34.2218182 40.3822222,34.7478788 40.3357576,35.409697 L44.209697,35.409697 L44.209697,35.410101 Z" id="Shape" stroke="#000000" fill="#000000" fill-rule="nonzero"></path>
                    <path d="M47.3882828,39.6682828 L46.8589899,39.6682828 L46.8589899,30.1276768 L47.96,30.1276768 L47.96,33.780202 C48.4626263,32.8638384 49.1555556,32.4060606 50.0391919,32.4060606 C50.8480808,32.4060606 51.5260606,32.7256566 52.0727273,33.3656566 C52.6193939,34.0052525 52.8929293,34.9341414 52.8929293,36.1527273 C52.8929293,37.2032323 52.6238384,38.0840404 52.0864646,38.7963636 C51.5482828,39.5086869 50.8488889,39.8646465 49.9874747,39.8646465 C49.0282828,39.8646465 48.2929293,39.4092929 47.7810101,38.4989899 L47.3882828,39.6682828 L47.3882828,39.6682828 Z M47.96,36.8977778 C48.0113131,37.6234343 48.2339394,38.1494949 48.6274747,38.4775758 C49.0210101,38.8048485 49.4371717,38.9688889 49.8747475,38.9688889 C50.4339394,38.9688889 50.8848485,38.7260606 51.2270707,38.240404 C51.569697,37.7551515 51.740202,37.090101 51.740202,36.2452525 C51.740202,35.3357576 51.5753535,34.620202 51.2444444,34.099798 C50.9135354,33.5793939 50.4545455,33.3187879 49.8678788,33.3187879 C49.4068687,33.3187879 48.9911111,33.5046465 48.6206061,33.8743434 C48.250101,34.2452525 48.029899,34.7240404 47.96,35.3111111 L47.96,36.8977778 L47.96,36.8977778 Z" id="Shape" fill="#000000" fill-rule="nonzero"></path>
                    <path d="M47.3882828,39.6682828 L46.8589899,39.6682828 L46.8589899,30.1276768 L47.96,30.1276768 L47.96,33.780202 C48.4626263,32.8638384 49.1555556,32.4060606 50.0391919,32.4060606 C50.8480808,32.4060606 51.5260606,32.7256566 52.0727273,33.3656566 C52.6193939,34.0052525 52.8929293,34.9341414 52.8929293,36.1527273 C52.8929293,37.2032323 52.6238384,38.0840404 52.0864646,38.7963636 C51.5482828,39.5086869 50.8488889,39.8646465 49.9874747,39.8646465 C49.0282828,39.8646465 48.2929293,39.4092929 47.7810101,38.4989899 L47.3882828,39.6682828 L47.3882828,39.6682828 Z M47.96,36.8977778 C48.0113131,37.6234343 48.2339394,38.1494949 48.6274747,38.4775758 C49.0210101,38.8048485 49.4371717,38.9688889 49.8747475,38.9688889 C50.4339394,38.9688889 50.8848485,38.7260606 51.2270707,38.240404 C51.569697,37.7551515 51.740202,37.090101 51.740202,36.2452525 C51.740202,35.3357576 51.5753535,34.620202 51.2444444,34.099798 C50.9135354,33.5793939 50.4545455,33.3187879 49.8678788,33.3187879 C49.4068687,33.3187879 48.9911111,33.5046465 48.6206061,33.8743434 C48.250101,34.2452525 48.029899,34.7240404 47.96,35.3111111 L47.96,36.8977778 L47.96,36.8977778 Z" id="Shape" stroke="#000000" fill="#000000" fill-rule="nonzero"></path>
                    <path d="M55.6981818,37.8371717 L56.7474747,37.620202 C56.9810101,38.5078788 57.7183838,38.9515152 58.9591919,38.9515152 C59.4157576,38.9515152 59.8036364,38.8492929 60.120404,38.6444444 C60.4379798,38.44 60.5963636,38.1515152 60.5963636,37.7793939 C60.5963636,37.2258586 60.1927273,36.8747475 59.3850505,36.7260606 L57.8969697,36.4428283 C57.3139394,36.3309091 56.8505051,36.1115152 56.5054545,35.7850505 C56.1608081,35.4585859 55.9882828,35.0270707 55.9882828,34.4905051 C55.9882828,33.8985859 56.2234343,33.4028283 56.6941414,33.0040404 C57.1644444,32.6052525 57.7983838,32.4060606 58.5951515,32.4060606 C60.1280808,32.4060606 61.0743434,33.0052525 61.4327273,34.2032323 L60.4258586,34.419798 C60.1369697,33.6860606 59.5434343,33.3187879 58.6448485,33.3187879 C58.1975758,33.3187879 57.8307071,33.4109091 57.5442424,33.5939394 C57.2581818,33.7773737 57.1147475,34.0335354 57.1147475,34.3632323 C57.1147475,34.8824242 57.4808081,35.2092929 58.2125253,35.3442424 L59.5882828,35.5975758 C61.0286869,35.8585859 61.7482828,36.5575758 61.7482828,37.6925253 C61.7482828,38.3414141 61.480404,38.8662626 60.9442424,39.2650505 C60.4080808,39.6650505 59.6945455,39.8646465 58.8036364,39.8646465 C57.129697,39.8646465 56.0941414,39.1886869 55.6981818,37.8371717 L55.6981818,37.8371717 Z" id="Shape" fill="#000000" fill-rule="nonzero"></path>
                    <path d="M55.6981818,37.8371717 L56.7474747,37.620202 C56.9810101,38.5078788 57.7183838,38.9515152 58.9591919,38.9515152 C59.4157576,38.9515152 59.8036364,38.8492929 60.120404,38.6444444 C60.4379798,38.44 60.5963636,38.1515152 60.5963636,37.7793939 C60.5963636,37.2258586 60.1927273,36.8747475 59.3850505,36.7260606 L57.8969697,36.4428283 C57.3139394,36.3309091 56.8505051,36.1115152 56.5054545,35.7850505 C56.1608081,35.4585859 55.9882828,35.0270707 55.9882828,34.4905051 C55.9882828,33.8985859 56.2234343,33.4028283 56.6941414,33.0040404 C57.1644444,32.6052525 57.7983838,32.4060606 58.5951515,32.4060606 C60.1280808,32.4060606 61.0743434,33.0052525 61.4327273,34.2032323 L60.4258586,34.419798 C60.1369697,33.6860606 59.5434343,33.3187879 58.6448485,33.3187879 C58.1975758,33.3187879 57.8307071,33.4109091 57.5442424,33.5939394 C57.2581818,33.7773737 57.1147475,34.0335354 57.1147475,34.3632323 C57.1147475,34.8824242 57.4808081,35.2092929 58.2125253,35.3442424 L59.5882828,35.5975758 C61.0286869,35.8585859 61.7482828,36.5575758 61.7482828,37.6925253 C61.7482828,38.3414141 61.480404,38.8662626 60.9442424,39.2650505 C60.4080808,39.6650505 59.6945455,39.8646465 58.8036364,39.8646465 C57.129697,39.8646465 56.0941414,39.1886869 55.6981818,37.8371717 L55.6981818,37.8371717 Z" id="Shape" stroke="#000000" fill="#000000" fill-rule="nonzero"></path>
                    <path d="M67.6028283,37.560404 L68.6266667,37.7705051 C68.4408081,38.3745455 68.0775758,38.8751515 67.5373737,39.2707071 C66.9975758,39.6666667 66.3616162,39.8646465 65.6311111,39.8646465 C64.6670707,39.8646465 63.8868687,39.5252525 63.2913131,38.8456566 C62.6949495,38.1668687 62.3975758,37.2755556 62.3975758,36.1737374 C62.3975758,35.0484848 62.7066667,34.1393939 63.3268687,33.4460606 C63.9458586,32.7527273 64.7232323,32.4060606 65.6593939,32.4060606 C66.5810101,32.4060606 67.3228283,32.7252525 67.8840404,33.3636364 C68.4452525,34.0020202 68.7325253,34.9571717 68.7462626,36.2290909 L63.6177778,36.2290909 C63.6177778,37.2977778 63.8412121,38.0181818 64.2876768,38.3919192 C64.7345455,38.7648485 65.2068687,38.9515152 65.7046465,38.9515152 C66.6024242,38.9515152 67.2355556,38.4876768 67.6028283,37.560404 L67.6028283,37.560404 Z M67.5430303,35.410101 C67.5341414,35.0141414 67.4686869,34.6618182 67.3478788,34.3539394 C67.2266667,34.0464646 67.0222222,33.7842424 66.7337374,33.5672727 C66.4452525,33.3507071 66.0977778,33.2424242 65.6933333,33.2424242 C65.1490909,33.2424242 64.6872727,33.4379798 64.3074747,33.829899 C63.9284848,34.2218182 63.7151515,34.7478788 63.6690909,35.409697 L67.5430303,35.409697 L67.5430303,35.410101 Z" id="Shape" fill="#000000" fill-rule="nonzero"></path>
                    <path d="M67.6028283,37.560404 L68.6266667,37.7705051 C68.4408081,38.3745455 68.0775758,38.8751515 67.5373737,39.2707071 C66.9975758,39.6666667 66.3616162,39.8646465 65.6311111,39.8646465 C64.6670707,39.8646465 63.8868687,39.5252525 63.2913131,38.8456566 C62.6949495,38.1668687 62.3975758,37.2755556 62.3975758,36.1737374 C62.3975758,35.0484848 62.7066667,34.1393939 63.3268687,33.4460606 C63.9458586,32.7527273 64.7232323,32.4060606 65.6593939,32.4060606 C66.5810101,32.4060606 67.3228283,32.7252525 67.8840404,33.3636364 C68.4452525,34.0020202 68.7325253,34.9571717 68.7462626,36.2290909 L63.6177778,36.2290909 C63.6177778,37.2977778 63.8412121,38.0181818 64.2876768,38.3919192 C64.7345455,38.7648485 65.2068687,38.9515152 65.7046465,38.9515152 C66.6024242,38.9515152 67.2355556,38.4876768 67.6028283,37.560404 L67.6028283,37.560404 Z M67.5430303,35.410101 C67.5341414,35.0141414 67.4686869,34.6618182 67.3478788,34.3539394 C67.2266667,34.0464646 67.0222222,33.7842424 66.7337374,33.5672727 C66.4452525,33.3507071 66.0977778,33.2424242 65.6933333,33.2424242 C65.1490909,33.2424242 64.6872727,33.4379798 64.3074747,33.829899 C63.9284848,34.2218182 63.7151515,34.7478788 63.6690909,35.409697 L67.5430303,35.409697 L67.5430303,35.410101 Z" id="Shape" stroke="#000000" fill="#000000" fill-rule="nonzero"></path>
                    <path d="M71.0311111,39.6682828 L69.930101,39.6682828 L69.930101,32.6020202 L70.8949495,32.6020202 L70.8949495,34.2492929 C71.2347475,33.4775758 71.5761616,32.9777778 71.9183838,32.7494949 C72.2606061,32.520404 72.6113131,32.4060606 72.9705051,32.4060606 C73.0820202,32.4060606 73.2266667,32.4145455 73.4036364,32.4315152 L73.4036364,33.4812121 L73.1806061,33.4812121 C72.5753535,33.4812121 72.0731313,33.7062626 71.6735354,34.1555556 C71.2731313,34.6048485 71.0593939,35.1951515 71.0311111,35.9272727 L71.0311111,39.6682828 L71.0311111,39.6682828 Z" id="Shape" fill="#000000" fill-rule="nonzero"></path>
                    <path d="M71.0311111,39.6682828 L69.930101,39.6682828 L69.930101,32.6020202 L70.8949495,32.6020202 L70.8949495,34.2492929 C71.2347475,33.4775758 71.5761616,32.9777778 71.9183838,32.7494949 C72.2606061,32.520404 72.6113131,32.4060606 72.9705051,32.4060606 C73.0820202,32.4060606 73.2266667,32.4145455 73.4036364,32.4315152 L73.4036364,33.4812121 L73.1806061,33.4812121 C72.5753535,33.4812121 72.0731313,33.7062626 71.6735354,34.1555556 C71.2731313,34.6048485 71.0593939,35.1951515 71.0311111,35.9272727 L71.0311111,39.6682828 L71.0311111,39.6682828 Z" id="Shape" stroke="#000000" fill="#000000" fill-rule="nonzero"></path>
                    <polygon id="Shape" fill="#000000" fill-rule="nonzero" points="80.2408081 32.6020202 77.8012121 39.6682828 76.6606061 39.6682828 74.1393939 32.6020202 75.3571717 32.6020202 77.3183838 38.3454545 79.2646465 32.6020202"></polygon>
                    <polygon id="Shape" stroke="#000000" fill="#000000" fill-rule="nonzero" points="80.2408081 32.6020202 77.8012121 39.6682828 76.6606061 39.6682828 74.1393939 32.6020202 75.3571717 32.6020202 77.3183838 38.3454545 79.2646465 32.6020202"></polygon>
                    <path d="M81.1208081,30.1276768 L82.2985859,30.1276768 L82.2985859,31.3478788 L81.1208081,31.3478788 L81.1208081,30.1276768 Z M81.1721212,32.6020202 L82.2727273,32.6020202 L82.2727273,39.6682828 L81.1721212,39.6682828 L81.1721212,32.6020202 Z" id="Shape" fill="#000000" fill-rule="nonzero"></path>
                    <path d="M81.1208081,30.1276768 L82.2985859,30.1276768 L82.2985859,31.3478788 L81.1208081,31.3478788 L81.1208081,30.1276768 Z M81.1721212,32.6020202 L82.2727273,32.6020202 L82.2727273,39.6682828 L81.1721212,39.6682828 L81.1721212,32.6020202 Z" id="Shape" stroke="#000000" fill="#000000" fill-rule="nonzero"></path>
                    <path d="M88.0242424,37.1935354 L89.0137374,37.3680808 C88.8739394,38.1490909 88.5640404,38.760404 88.0840404,39.2020202 C87.6040404,39.6436364 87.0052525,39.8646465 86.2876768,39.8646465 C85.3139394,39.8646465 84.5713131,39.5050505 84.0614141,38.7858586 C83.5515152,38.0670707 83.2957576,37.1894949 83.2957576,36.1527273 C83.2957576,35.0787879 83.5652525,34.1862626 84.1034343,33.4739394 C84.6412121,32.7620202 85.3741414,32.4060606 86.3014141,32.4060606 C87.0707071,32.4060606 87.6868687,32.6359596 88.150303,33.0965657 C88.6145455,33.5563636 88.9018182,34.1511111 89.0137374,34.879596 L88.0238384,35.0682828 C87.8375758,33.9026263 87.2743434,33.3187879 86.3337374,33.3187879 C85.7284848,33.3187879 85.2630303,33.5761616 84.9373737,34.0909091 C84.6113131,34.6060606 84.4484848,35.2735354 84.4484848,36.0933333 C84.4484848,36.9975758 84.610101,37.6993939 84.9333333,38.200404 C85.2573737,38.7010101 85.7123232,38.9515152 86.2989899,38.9515152 C87.2064646,38.9515152 87.7818182,38.3656566 88.0242424,37.1939394 L88.0242424,37.1935354 Z" id="Shape" fill="#000000" fill-rule="nonzero"></path>
                    <path d="M88.0242424,37.1935354 L89.0137374,37.3680808 C88.8739394,38.1490909 88.5640404,38.760404 88.0840404,39.2020202 C87.6040404,39.6436364 87.0052525,39.8646465 86.2876768,39.8646465 C85.3139394,39.8646465 84.5713131,39.5050505 84.0614141,38.7858586 C83.5515152,38.0670707 83.2957576,37.1894949 83.2957576,36.1527273 C83.2957576,35.0787879 83.5652525,34.1862626 84.1034343,33.4739394 C84.6412121,32.7620202 85.3741414,32.4060606 86.3014141,32.4060606 C87.0707071,32.4060606 87.6868687,32.6359596 88.150303,33.0965657 C88.6145455,33.5563636 88.9018182,34.1511111 89.0137374,34.879596 L88.0238384,35.0682828 C87.8375758,33.9026263 87.2743434,33.3187879 86.3337374,33.3187879 C85.7284848,33.3187879 85.2630303,33.5761616 84.9373737,34.0909091 C84.6113131,34.6060606 84.4484848,35.2735354 84.4484848,36.0933333 C84.4484848,36.9975758 84.610101,37.6993939 84.9333333,38.200404 C85.2573737,38.7010101 85.7123232,38.9515152 86.2989899,38.9515152 C87.2064646,38.9515152 87.7818182,38.3656566 88.0242424,37.1939394 L88.0242424,37.1935354 Z" id="Shape" stroke="#000000" fill="#000000" fill-rule="nonzero"></path>
                    <path d="M95.2218182,37.560404 L96.2456566,37.7705051 C96.059798,38.3745455 95.6961616,38.8751515 95.1563636,39.2707071 C94.6165657,39.6666667 93.9806061,39.8646465 93.249697,39.8646465 C92.2856566,39.8646465 91.5058586,39.5252525 90.909899,38.8456566 C90.3139394,38.1668687 90.0161616,37.2755556 90.0161616,36.1737374 C90.0161616,35.0484848 90.3256566,34.1393939 90.9454545,33.4460606 C91.5644444,32.7527273 92.3422222,32.4060606 93.2783838,32.4060606 C94.199596,32.4060606 94.9418182,32.7252525 95.5026263,33.3636364 C96.0642424,34.0020202 96.3511111,34.9571717 96.3652525,36.2290909 L91.2363636,36.2290909 C91.2363636,37.2977778 91.459798,38.0181818 91.9062626,38.3919192 C92.3535354,38.7648485 92.8250505,38.9515152 93.3236364,38.9515152 C94.2210101,38.9515152 94.8541414,38.4876768 95.2218182,37.560404 L95.2218182,37.560404 Z M95.1620202,35.410101 C95.1527273,35.0141414 95.0872727,34.6618182 94.9664646,34.3539394 C94.8452525,34.0464646 94.6408081,33.7842424 94.3523232,33.5672727 C94.0638384,33.3507071 93.7167677,33.2424242 93.3119192,33.2424242 C92.7672727,33.2424242 92.3054545,33.4379798 91.9260606,33.829899 C91.5470707,34.2218182 91.3337374,34.7478788 91.2876768,35.409697 L95.1620202,35.409697 L95.1620202,35.410101 Z" id="Shape" fill="#000000" fill-rule="nonzero"></path>
                    <path d="M95.2218182,37.560404 L96.2456566,37.7705051 C96.059798,38.3745455 95.6961616,38.8751515 95.1563636,39.2707071 C94.6165657,39.6666667 93.9806061,39.8646465 93.249697,39.8646465 C92.2856566,39.8646465 91.5058586,39.5252525 90.909899,38.8456566 C90.3139394,38.1668687 90.0161616,37.2755556 90.0161616,36.1737374 C90.0161616,35.0484848 90.3256566,34.1393939 90.9454545,33.4460606 C91.5644444,32.7527273 92.3422222,32.4060606 93.2783838,32.4060606 C94.199596,32.4060606 94.9418182,32.7252525 95.5026263,33.3636364 C96.0642424,34.0020202 96.3511111,34.9571717 96.3652525,36.2290909 L91.2363636,36.2290909 C91.2363636,37.2977778 91.459798,38.0181818 91.9062626,38.3919192 C92.3535354,38.7648485 92.8250505,38.9515152 93.3236364,38.9515152 C94.2210101,38.9515152 94.8541414,38.4876768 95.2218182,37.560404 L95.2218182,37.560404 Z M95.1620202,35.410101 C95.1527273,35.0141414 95.0872727,34.6618182 94.9664646,34.3539394 C94.8452525,34.0464646 94.6408081,33.7842424 94.3523232,33.5672727 C94.0638384,33.3507071 93.7167677,33.2424242 93.3119192,33.2424242 C92.7672727,33.2424242 92.3054545,33.4379798 91.9260606,33.829899 C91.5470707,34.2218182 91.3337374,34.7478788 91.2876768,35.409697 L95.1620202,35.409697 L95.1620202,35.410101 Z" id="Shape" stroke="#000000" fill="#000000" fill-rule="nonzero"></path>
                    <path d="M96.9866667,37.8371717 L98.0371717,37.620202 C98.269899,38.5078788 99.0068687,38.9515152 100.247677,38.9515152 C100.705051,38.9515152 101.092121,38.8492929 101.409293,38.6444444 C101.726465,38.44 101.885253,38.1515152 101.885253,37.7793939 C101.885253,37.2258586 101.481616,36.8747475 100.673939,36.7260606 L99.1858586,36.4428283 C98.6028283,36.3309091 98.1393939,36.1115152 97.7943434,35.7850505 C97.449697,35.4585859 97.2771717,35.0270707 97.2771717,34.4905051 C97.2771717,33.8985859 97.5119192,33.4028283 97.9830303,33.0040404 C98.4533333,32.6052525 99.0868687,32.4060606 99.8840404,32.4060606 C101.41697,32.4060606 102.362828,33.0052525 102.721616,34.2032323 L101.714747,34.419798 C101.425859,33.6860606 100.832323,33.3187879 99.9337374,33.3187879 C99.4864646,33.3187879 99.119596,33.4109091 98.8335354,33.5939394 C98.5466667,33.7773737 98.4036364,34.0335354 98.4036364,34.3632323 C98.4036364,34.8824242 98.769697,35.2092929 99.5018182,35.3442424 L100.877172,35.5975758 C102.317172,35.8585859 103.037576,36.5575758 103.037576,37.6925253 C103.037576,38.3414141 102.769697,38.8662626 102.233131,39.2650505 C101.69697,39.6650505 100.98303,39.8646465 100.092525,39.8646465 C98.4185859,39.8646465 97.3830303,39.1886869 96.9866667,37.8371717 L96.9866667,37.8371717 Z" id="Shape" fill="#000000" fill-rule="nonzero"></path>
                    <path d="M96.9866667,37.8371717 L98.0371717,37.620202 C98.269899,38.5078788 99.0068687,38.9515152 100.247677,38.9515152 C100.705051,38.9515152 101.092121,38.8492929 101.409293,38.6444444 C101.726465,38.44 101.885253,38.1515152 101.885253,37.7793939 C101.885253,37.2258586 101.481616,36.8747475 100.673939,36.7260606 L99.1858586,36.4428283 C98.6028283,36.3309091 98.1393939,36.1115152 97.7943434,35.7850505 C97.449697,35.4585859 97.2771717,35.0270707 97.2771717,34.4905051 C97.2771717,33.8985859 97.5119192,33.4028283 97.9830303,33.0040404 C98.4533333,32.6052525 99.0868687,32.4060606 99.8840404,32.4060606 C101.41697,32.4060606 102.362828,33.0052525 102.721616,34.2032323 L101.714747,34.419798 C101.425859,33.6860606 100.832323,33.3187879 99.9337374,33.3187879 C99.4864646,33.3187879 99.119596,33.4109091 98.8335354,33.5939394 C98.5466667,33.7773737 98.4036364,34.0335354 98.4036364,34.3632323 C98.4036364,34.8824242 98.769697,35.2092929 99.5018182,35.3442424 L100.877172,35.5975758 C102.317172,35.8585859 103.037576,36.5575758 103.037576,37.6925253 C103.037576,38.3414141 102.769697,38.8662626 102.233131,39.2650505 C101.69697,39.6650505 100.98303,39.8646465 100.092525,39.8646465 C98.4185859,39.8646465 97.3830303,39.1886869 96.9866667,37.8371717 L96.9866667,37.8371717 Z" id="Shape" stroke="#000000" fill="#000000" fill-rule="nonzero"></path>
                    <path d="M72.1737374,17.500202 L72.1737374,15.8032323 C72.1707043,15.6882059 72.215065,15.5769855 72.2964293,15.4956212 C72.3777936,15.4142569 72.4890139,15.3698963 72.6040404,15.3729293 L80.2113131,15.3721212 C80.4549495,15.3721212 80.650101,15.5490909 80.6505051,15.800404 L80.650101,17.2565657 C80.6480808,17.5006061 80.4424242,17.8193939 80.0771717,18.3248485 L76.1369697,23.9511111 C77.599596,23.9167677 79.1470707,24.1357576 80.4759596,24.8828283 C80.7757576,25.0509091 80.8557576,25.3006061 80.8791919,25.5454545 L80.8791919,27.3563636 C80.8791919,27.6060606 80.6064646,27.8945455 80.3191919,27.7442424 C77.9777778,26.5179798 74.870303,26.3834343 72.2816162,27.7591919 C72.0169697,27.9006061 71.740202,27.6157576 71.740202,27.3660606 L71.740202,25.6444444 C71.740202,25.3688889 71.7450505,24.8977778 72.0230303,24.4775758 L76.5886869,17.9280808 L72.6133333,17.9276768 C72.3705051,17.9276768 72.1757576,17.7539394 72.1741414,17.500202 L72.1737374,17.500202 Z M44.9494949,28.1010101 L42.6347475,28.1010101 C42.4145455,28.0868687 42.2387879,27.9212121 42.2210101,27.710303 L42.2226263,15.8315152 C42.2226263,15.5943434 42.4226263,15.4040404 42.6690909,15.4040404 L44.8242424,15.4036364 C45.050101,15.4149495 45.2311111,15.5854545 45.2452525,15.8024242 L45.2452525,17.3535354 L45.2888889,17.3535354 C45.8505051,15.8537374 46.9090909,15.1535354 48.3345455,15.1535354 C49.7822222,15.1535354 50.6892929,15.8537374 51.3377778,17.3535354 C51.8993939,15.8537374 53.1737374,15.1535354 54.5349495,15.1535354 C55.5070707,15.1535354 56.5656566,15.5535354 57.2137374,16.4533333 C57.9482828,17.4529293 57.7971717,18.9030303 57.7971717,20.1777778 L57.7955556,27.6735354 C57.7955556,27.9111111 57.5955556,28.1014141 57.3490909,28.1014141 L55.0375758,28.1014141 C54.8052525,28.0864646 54.6218182,27.9022222 54.6218182,27.6747475 L54.6218182,21.3773737 C54.6218182,20.8775758 54.6646465,19.6278788 54.5563636,19.1531313 C54.3834343,18.3531313 53.8654545,18.1280808 53.1955556,18.1280808 C52.6339394,18.1280808 52.0505051,18.5030303 51.8129293,19.1030303 C51.5749495,19.7030303 51.5967677,20.7026263 51.5967677,21.3777778 L51.5967677,27.6735354 C51.5967677,27.9111111 51.3967677,28.1014141 51.1507071,28.1014141 L48.8387879,28.1014141 C48.6064646,28.0864646 48.4234343,27.9022222 48.4234343,27.6747475 L48.4210101,21.3773737 C48.4210101,20.0529293 48.6371717,18.1030303 46.9955556,18.1030303 C45.3317172,18.1030303 45.3967677,20.0028283 45.3967677,21.3773737 L45.3955556,27.6735354 C45.3955556,27.9111111 45.1959596,28.1014141 44.9494949,28.1014141 L44.9494949,28.1010101 Z M86.2387879,15.1535354 C89.6464646,15.1535354 91.489697,18.1030303 91.489697,21.8525253 C91.489697,25.4767677 89.4537374,28.3515152 86.2387879,28.3515152 C82.8953535,28.3515152 81.0735354,25.4020202 81.0735354,21.7276768 C81.0735354,18.0278788 82.9171717,15.1539394 86.2387879,15.1539394 L86.2387879,15.1535354 Z M86.260202,17.8840404 C84.5668687,17.8840404 84.459798,20.2084848 84.459798,21.6581818 C84.459798,23.1078788 84.4383838,25.9018182 86.2387879,25.9018182 C88.0177778,25.9018182 88.1034343,23.7078788 88.1034343,22.1834343 C88.1034343,21.1834343 88.0610101,19.9834343 87.7608081,19.0339394 C87.5030303,18.2088889 86.9890909,17.8840404 86.260202,17.8840404 L86.260202,17.8840404 Z M96.4214141,28.1010101 L94.1159596,28.1010101 C93.8840404,28.0864646 93.7006061,27.9022222 93.7006061,27.6747475 L93.6965657,15.7919192 C93.7163636,15.5745455 93.9082828,15.4040404 94.1414141,15.4040404 L96.2880808,15.4036364 C96.490101,15.4137374 96.6569697,15.5519192 96.6993939,15.7361616 L96.6993939,17.5531313 L96.7430303,17.5531313 C97.3911111,15.9284848 98.2981818,15.1535354 99.8969697,15.1535354 C100.933737,15.1535354 101.949495,15.5284848 102.597576,16.5535354 C103.202424,17.5030303 103.202424,19.1030303 103.202424,20.2529293 L103.202424,27.7268687 C103.176566,27.9377778 102.987879,28.1014141 102.759192,28.1014141 L100.438788,28.1014141 C100.224646,28.0872727 100.051717,27.930101 100.026667,27.7268687 L100.026667,21.2775758 C100.026667,19.9777778 100.178182,18.0779798 98.5793939,18.0779798 C98.0169697,18.0779798 97.4989899,18.4529293 97.24,19.0278788 C96.9159596,19.7527273 96.8723232,20.4775758 96.8723232,21.2775758 L96.8723232,27.6735354 C96.8682828,27.9111111 96.6682828,28.1014141 96.4214141,28.1014141 L96.4214141,28.1010101 Z" id="Shape" fill="#000000" fill-rule="nonzero"></path>
                    <path d="M68.7054545,28.0715152 C68.5519192,28.2088889 68.3313131,28.2181818 68.1583838,28.1256566 C67.389899,27.4864646 67.2521212,27.1911111 66.8319192,26.5830303 C65.5612121,27.8775758 64.6618182,28.2654545 63.0161616,28.2654545 C61.0678788,28.2654545 59.5523232,27.0630303 59.5523232,24.6581818 C59.5523232,22.7793939 60.569697,21.5018182 62.020202,20.8755556 C63.2759596,20.3244444 65.029899,20.2242424 66.3717172,20.0739394 L66.3717172,19.7733333 C66.3717172,19.2222222 66.4153535,18.5709091 66.0905051,18.0949495 C65.8092929,17.6690909 65.2678788,17.4937374 64.7915152,17.4937374 C63.9086869,17.4937374 63.1240404,17.9462626 62.9313131,18.8836364 C62.8913131,19.0921212 62.7389899,19.2981818 62.5292929,19.3086869 L60.2860606,19.0662626 C60.0965657,19.0234343 59.8860606,18.8715152 59.9406061,18.5826263 C60.4561616,15.8610101 62.9139394,15.0387879 65.1163636,15.0387879 C66.2420202,15.0387879 67.7143434,15.3393939 68.6020202,16.1911111 C69.7276768,17.2432323 69.6193939,18.6460606 69.6193939,20.1741414 L69.6193939,23.779798 C69.6193939,24.8642424 70.070303,25.340202 70.4933333,25.9248485 C70.6408081,26.1349495 70.6743434,26.3854545 70.4852525,26.5393939 C70.0125253,26.9353535 69.1729293,27.6654545 68.7107071,28.0767677 L68.7054545,28.0715152 L68.7054545,28.0715152 Z M66.3717172,22.4286869 L66.3721212,22.4286869 L66.3721212,21.9276768 C64.6977778,21.9276768 62.929697,22.2864646 62.929697,24.2573737 C62.929697,25.2593939 63.4492929,25.9357576 64.3365657,25.9357576 C64.9862626,25.9357576 65.5709091,25.5353535 65.9393939,24.8836364 C66.3935354,24.0820202 66.3717172,23.3309091 66.3717172,22.4286869 Z" id="Combined-Shape" fill="#000000"></path>
                    <path d="M38.6286869,28.0715152 C38.4751515,28.2088889 38.2541414,28.2181818 38.0816162,28.1256566 C37.3127273,27.4864646 37.1749495,27.1911111 36.7547475,26.5830303 C35.4844444,27.8775758 34.5846465,28.2654545 32.9393939,28.2654545 C30.9907071,28.2654545 29.4751515,27.0630303 29.4751515,24.6581818 C29.4751515,22.7793939 30.4925253,21.5018182 31.9434343,20.8755556 C33.1991919,20.3244444 34.9531313,20.2242424 36.2949495,20.0739394 L36.2949495,19.7733333 C36.2949495,19.2222222 36.3381818,18.5709091 36.0137374,18.0949495 C35.7321212,17.6690909 35.1907071,17.4937374 34.7147475,17.4937374 C33.8319192,17.4937374 33.0468687,17.9462626 32.8541414,18.8836364 C32.8141414,19.0921212 32.6622222,19.2981818 32.4521212,19.3086869 L30.2092929,19.0662626 C30.019798,19.0234343 29.8092929,18.8715152 29.8638384,18.5826263 C30.3793939,15.8610101 32.8367677,15.0387879 35.039596,15.0387879 C36.1652525,15.0387879 37.6375758,15.3393939 38.5252525,16.1911111 C39.6509091,17.2432323 39.5426263,18.6460606 39.5426263,20.1741414 L39.5426263,23.779798 C39.5426263,24.8642424 39.9931313,25.340202 40.4161616,25.9248485 C40.5640404,26.1349495 40.5971717,26.3854545 40.4088889,26.5393939 C39.9361616,26.9353535 39.0957576,27.6654545 38.6339394,28.0767677 L38.6286869,28.0715152 L38.6286869,28.0715152 Z M36.2949495,22.4286869 L36.2949495,22.4286869 L36.2949495,21.9276768 C34.6210101,21.9276768 32.8529293,22.2864646 32.8529293,24.2573737 C32.8529293,25.2593939 33.3721212,25.9357576 34.259798,25.9357576 C34.9094949,25.9357576 35.4941414,25.5353535 35.8622222,24.8836364 C36.3167677,24.0820202 36.2949495,23.3309091 36.2949495,22.4286869 Z" id="Combined-Shape" fill="#000000"></path>
                </g>
            </g>
        </g>
    </g>
</svg>