<?xml version="1.0" encoding="UTF-8"?>
<svg width="54px" height="62px" viewBox="0 0 54 62" version="1.1" xmlns="http://www.w3.org/2000/svg" xmlns:xlink="http://www.w3.org/1999/xlink">
    <!-- Generator: Sketch 46.1 (44463) - http://www.bohemiancoding.com/sketch -->
    <title>android</title>
    <desc>Created with Sketch.</desc>
    <defs></defs>
    <g id="Invision/Proto" stroke="none" stroke-width="1" fill="none" fill-rule="evenodd">
        <g id="2e-Custom-Mobile-App-Development" transform="translate(-595.000000, -1653.000000)">
            <g id="Group" transform="translate(375.000000, 1655.000000)">
                <g id="android" transform="translate(220.000000, 0.000000)">
                    <path d="M18.4718062,36.2357709 C20.5506608,36.2357709 22.2359471,37.9210573 22.2359471,39.9999119 L22.2359471,56.1470485 C22.2359471,58.2259031 20.5506608,59.9109251 18.4718062,59.9109251 C16.3932159,59.9109251 14.7079295,58.2259031 14.7079295,56.1470485 L14.7079295,39.9999119 C14.7079295,37.9213216 16.3932159,36.2360352 18.4718062,36.2360352 L18.4718062,36.2357709 Z" id="Shape" fill="#A4C639" fill-rule="nonzero"></path>
                    <path d="M9.87859031,16.822467 C9.8661674,16.9651982 9.8553304,17.1095154 9.8553304,17.2554185 L9.8553304,41.7198238 C9.8553304,44.350837 11.9378855,46.4703965 14.5231718,46.4703965 L39.4017621,46.4703965 C41.9873128,46.4703965 44.0698678,44.3505727 44.0698678,41.7198238 L44.0698678,17.2554185 C44.0698678,17.1095154 44.0645815,16.9646696 44.0524229,16.822467 L9.87859031,16.822467 Z" id="Shape" fill="#A4C639" fill-rule="nonzero"></path>
                    <path d="M35.4536564,36.2357709 C37.532511,36.2357709 39.2177974,37.9210573 39.2177974,39.9999119 L39.2177974,56.1470485 C39.2177974,58.2259031 37.532511,59.9109251 35.4536564,59.9109251 C33.3750661,59.9109251 31.6897797,58.2259031 31.6897797,56.1470485 L31.6897797,39.9999119 C31.6897797,37.9213216 33.3750661,36.2360352 35.4536564,36.2360352 L35.4536564,36.2357709 Z M3.80748899,18.9996476 C5.8860793,18.9996476 7.57136564,20.6849339 7.57136564,22.7637885 L7.57136564,38.9109251 C7.57136564,40.9897797 5.8860793,42.6750661 3.80748899,42.6750661 C1.72863436,42.6750661 0.0433480176,40.9897797 0.0433480176,38.9111894 L0.0433480176,22.7640529 C0.0430837004,20.6851982 1.72837004,18.9996476 3.80748899,18.9996476 Z M50.1182379,18.9996476 C52.1968282,18.9996476 53.8821145,20.6849339 53.8821145,22.7637885 L53.8821145,38.9109251 C53.8821145,40.9897797 52.1968282,42.6750661 50.1182379,42.6750661 C48.0393833,42.6750661 46.3540969,40.9897797 46.3540969,38.9111894 L46.3540969,22.7640529 C46.3540969,20.6851982 48.0393833,18.9996476 50.1182379,18.9996476 Z M9.98854626,15.2154185 C10.0932159,7.70088106 16.6519824,1.53964758 25.0710132,0.727665198 L28.8539207,0.727665198 C37.2734802,1.53991189 43.8317181,7.70140969 43.9363877,15.2154185 L9.98854626,15.2154185 Z" id="Shape" fill="#A4C639" fill-rule="nonzero"></path>
                    <path d="M11.2977093,0.00237885463 L15.2682819,6.87991189 M42.6280176,0.00237885463 L38.6571806,6.87991189" id="Shape" stroke="#A4C639" stroke-width="3" stroke-linecap="round" stroke-linejoin="round"></path>
                    <path d="M21.9060793,8.48114537 C21.9092511,9.53154185 21.0399119,10.3855507 19.964141,10.3884581 C18.8888987,10.3911013 18.0145374,9.54211454 18.0113656,8.49171806 L18.0113656,8.48114537 C18.0084581,7.43048458 18.8777974,6.57674009 19.953304,6.5738326 C21.0285463,6.57092511 21.9029075,7.41964758 21.9060793,8.47057269 L21.9060793,8.48114537 Z M36.442467,8.48114537 C36.4456388,9.53154185 35.5762996,10.3855507 34.5005286,10.3884581 C33.4252863,10.3911013 32.5509251,9.54211454 32.5477533,8.49171806 L32.5477533,8.48114537 C32.5448458,7.43048458 33.414185,6.57674009 34.4896916,6.5738326 C35.5649339,6.57092511 36.4392952,7.41964758 36.442467,8.47057269 L36.442467,8.48114537 Z" id="Shape" fill="#FFFFFF" fill-rule="nonzero"></path>
                </g>
            </g>
        </g>
    </g>
</svg>