<?xml version="1.0" encoding="UTF-8"?>
<svg width="148px" height="40px" viewBox="0 0 148 40" version="1.1" xmlns="http://www.w3.org/2000/svg" xmlns:xlink="http://www.w3.org/1999/xlink">
    <!-- Generator: Sketch 46.1 (44463) - http://www.bohemiancoding.com/sketch -->
    <title>angular-3</title>
    <desc>Created with Sketch.</desc>
    <defs></defs>
    <g id="Invision/Proto" stroke="none" stroke-width="1" fill="none" fill-rule="evenodd">
        <g id="2d-Custom-Web-App-Development" transform="translate(-405.000000, -2680.000000)" fill-rule="nonzero">
            <g id="Group-6" transform="translate(252.000000, 2670.000000)">
                <g id="angular-3" transform="translate(153.000000, 10.000000)">
                    <g id="Group" transform="translate(43.165468, 8.920863)" fill="#B52E31">
                        <path d="M0.172661871,20.6618705 L0.172661871,2.5323741 L2.50359712,2.5323741 L13.5827338,17.1223022 L13.5827338,2.5323741 L15.7985612,2.5323741 L15.7985612,20.6618705 L13.4676259,20.6618705 L2.38848921,5.92805755 L2.38848921,20.6618705 L0.172661871,20.6618705 Z M33.8417266,19.942446 C32.3741007,20.4892086 30.7913669,20.7769784 29.1223022,20.7769784 C22.5611511,20.7769784 19.2805755,17.6402878 19.2805755,11.3381295 C19.2805755,5.38129496 22.4460432,2.38848921 28.7769784,2.38848921 C30.5899281,2.38848921 32.2877698,2.64748201 33.8417266,3.13669065 L33.8417266,5.15107914 C32.2877698,4.54676259 30.676259,4.25899281 29.0359712,4.25899281 C24.0863309,4.25899281 21.6115108,6.61870504 21.6115108,11.2805755 C21.6115108,16.3165468 24.057554,18.8201439 28.9208633,18.8201439 C29.6978417,18.8201439 30.5611511,18.705036 31.5107914,18.5035971 L31.5107914,12.4316547 L33.8417266,12.4316547 L33.8417266,19.942446 L33.8417266,19.942446 Z M37.5827338,13.6690647 L37.5827338,2.5323741 L39.9136691,2.5323741 L39.9136691,13.6690647 C39.9136691,17.1510791 41.6402878,18.9064748 45.1223022,18.9064748 C48.5755396,18.9064748 50.3309353,17.1510791 50.3309353,13.6690647 L50.3309353,2.5323741 L52.6618705,2.5323741 L52.6618705,13.6690647 C52.6618705,18.4172662 50.1582734,20.8057554 45.1223022,20.8057554 C40.0863309,20.8057554 37.5827338,18.4172662 37.5827338,13.6690647 L37.5827338,13.6690647 Z M59.1654676,2.5323741 L59.1654676,18.7625899 L68.6618705,18.7625899 L68.6618705,20.6618705 L56.8345324,20.6618705 L56.8345324,2.5323741 L59.1654676,2.5323741 L59.1654676,2.5323741 Z M72.028777,20.6618705 L69.5827338,20.6618705 L78.5899281,0.143884892 L87.5971223,20.6618705 L85.0071942,20.6618705 L82.676259,14.9640288 L76.6906475,14.9640288 L77.323741,13.0647482 L81.8992806,13.0647482 L78.5035971,4.86330935 L72.028777,20.6618705 L72.028777,20.6618705 Z M90.1007194,20.6618705 L90.1007194,2.5323741 L97.8417266,2.5323741 C101.294964,2.5323741 103.021583,3.97122302 103.021583,6.87769784 C103.021583,9.23741007 101.323741,10.9928058 97.9568345,12.1151079 L104.172662,20.6618705 L101.093525,20.6618705 L95.3381295,12.5179856 L95.3381295,10.9928058 C98.7913669,10.4460432 100.546763,9.12230216 100.546763,6.99280576 C100.546763,5.32374101 99.5971223,4.48920863 97.6690647,4.48920863 L92.4892086,4.48920863 L92.4892086,20.6618705 L90.1007194,20.6618705 L90.1007194,20.6618705 Z" id="Shape"></path>
                    </g>
                    <polygon id="Shape" fill="#E23237" points="0 6.61870504 18.5611511 0 37.6115108 6.50359712 34.5323741 31.0503597 18.5611511 39.8848921 2.84892086 31.1654676"></polygon>
                    <polygon id="Shape" fill="#B52E31" points="37.6115108 6.50359712 18.5611511 0 18.5611511 39.8848921 34.5323741 31.0503597"></polygon>
                    <path d="M18.5899281,4.6618705 L7.02158273,30.3884892 L11.3381295,30.3021583 L13.6690647,24.4892086 L24,24.4892086 L26.5323741,30.3597122 L30.647482,30.4460432 L18.5899281,4.6618705 Z M18.618705,12.9208633 L22.5323741,21.0935252 L15.1942446,21.0935252 L18.618705,12.9208633 L18.618705,12.9208633 Z" id="Shape" fill="#FFFFFF"></path>
                </g>
            </g>
        </g>
    </g>
</svg>