<?xml version="1.0" encoding="UTF-8"?>
<svg width="49px" height="60px" viewBox="0 0 49 60" version="1.1" xmlns="http://www.w3.org/2000/svg" xmlns:xlink="http://www.w3.org/1999/xlink">
    <!-- Generator: Sketch 46.1 (44463) - http://www.bohemiancoding.com/sketch -->
    <title>ansible-logo</title>
    <desc>Created with Sketch.</desc>
    <defs></defs>
    <g id="Invision/Proto" stroke="none" stroke-width="1" fill="none" fill-rule="evenodd">
        <g id="2d-Custom-Web-App-Development" transform="translate(-740.000000, -2555.000000)" fill-rule="nonzero">
            <g id="Group-2" transform="translate(235.000000, 2550.000000)">
                <g id="ansible-logo" transform="translate(505.000000, 5.000000)">
                    <g id="Group" transform="translate(0.000000, 53.714286)" fill="#1A1918">
                        <path d="M12.860381,6.06933333 C12.7571429,6.06933333 12.6459048,6.0432381 12.5685714,5.93866667 L9.25714286,1.584 L9.25714286,6.02590476 L8.50209524,6.02590476 L8.50209524,0.556190476 C8.50209524,0.33847619 8.68228571,0.164380952 8.88838095,0.164380952 C9.00838095,0.164380952 9.1112381,0.199047619 9.18838095,0.303619048 L12.4912381,4.64952381 L12.4912381,0.225333333 L13.2460952,0.225333333 L13.2460952,5.68590476 C13.2460952,5.91238095 13.0659048,6.06914286 12.8601905,6.06914286 L12.860381,6.06933333 Z M19.1059048,6.12152381 C18.3512381,6.12152381 17.5617143,5.96457143 16.824,5.68609524 L17.0041905,5.05885714 C17.6819048,5.2767619 18.419619,5.43352381 19.1059048,5.43352381 C20.0582857,5.43352381 20.5558095,5.09371429 20.5558095,4.61485714 C20.5558095,4.17942857 20.1695238,3.96152381 18.84,3.33447619 C17.5102857,2.70742857 16.9872381,2.30704762 16.9872381,1.52304762 C16.9872381,0.539047619 17.7419048,0.138285714 19.1659048,0.138285714 C19.7579048,0.138285714 20.6672381,0.260190476 21.1906667,0.417142857 L21.0706667,1.06152381 C20.4954286,0.922285714 19.7752381,0.82647619 19.1830476,0.82647619 C18.179619,0.82647619 17.7678095,1.01790476 17.7678095,1.49695238 C17.7678095,1.9672381 18.0678095,2.16742857 19.4748571,2.8207619 C20.9590476,3.5087619 21.336381,3.85714286 21.336381,4.5712381 C21.336381,5.60780952 20.3582857,6.12152381 19.1059048,6.12152381 L19.1059048,6.12152381 Z M24.9139048,0.22552381 L25.6944762,0.22552381 L25.6944762,6.02552381 L24.9139048,6.02552381 L24.9139048,0.22552381 Z M32.3348571,3.39561905 L30.3958095,3.39561905 L30.3958095,5.364 L32.3348571,5.364 C32.9952381,5.364 33.3984762,4.94590476 33.3984762,4.36209524 C33.3984762,3.81352381 32.9782857,3.39561905 32.3348571,3.39561905 L32.3348571,3.39561905 Z M31.9571429,0.887238095 L30.3958095,0.887238095 L30.3958095,2.74247619 L31.9571429,2.74247619 C32.5834286,2.74247619 33.0380952,2.34171429 33.0380952,1.78438095 C33.0380952,1.23580952 32.6434286,0.887238095 31.9571429,0.887238095 L31.9571429,0.887238095 Z M32.3434286,6.02571429 L30.0100952,6.02571429 C29.9054531,6.02720127 29.8046184,5.98649834 29.7303317,5.91278496 C29.6560449,5.83907158 29.6145619,5.73855526 29.6152381,5.63390476 L29.6152381,0.617142857 C29.6152381,0.408 29.7868571,0.225333333 30.0100952,0.225333333 L31.9401905,0.225333333 C33.124,0.225333333 33.8274286,0.808761905 33.8274286,1.7232381 C33.8274286,2.21961905 33.535619,2.68133333 33.0895238,2.9512381 C33.7504762,3.15161905 34.1961905,3.70019048 34.1961905,4.36209524 C34.1961905,5.28514286 33.4327619,6.02552381 32.3434286,6.02552381 L32.3434286,6.02571429 Z M37.9451429,6.02571429 C37.7310476,6.02571429 37.5594286,5.84285714 37.5594286,5.63390476 L37.5594286,0.22552381 L38.3398095,0.22552381 L38.3398095,5.32038095 L41.4453333,5.32038095 L41.4453333,6.02571429 L37.9451429,6.02571429 L37.9451429,6.02571429 Z M46.7668571,6.12152381 C45.1712381,6.12152381 44.2104762,5.52933333 44.2104762,4.33619048 C44.2104762,3.77009524 44.528,3.23009524 45.1457143,2.97752381 C44.648,2.664 44.3906667,2.21980952 44.3906667,1.73219048 C44.3906667,0.652190476 45.2230476,0.138285714 46.7841905,0.138285714 C47.307619,0.138285714 48.0451429,0.199238095 48.6630476,0.338666667 L48.5771429,0.983047619 C47.9253333,0.87847619 47.316,0.817714286 46.724,0.817714286 C45.7118095,0.817714286 45.1712381,1.09638095 45.1712381,1.76704762 C45.1712381,2.29847619 45.6689524,2.71638095 46.3295238,2.71638095 L47.667619,2.71638095 C47.856381,2.71638095 48.0022857,2.86438095 48.0022857,3.0472381 C48.0022857,3.23885714 47.856381,3.38685714 47.667619,3.38685714 L46.2266667,3.38685714 C45.471619,3.38685714 44.9914286,3.76114286 44.9914286,4.33619048 C44.9914286,5.18095238 45.772,5.43333333 46.7499048,5.43333333 C47.2819048,5.43333333 48.0022857,5.364 48.5855238,5.22457143 L48.6973333,5.86019048 C48.139619,6.01714286 47.4102857,6.12152381 46.7668571,6.12152381 L46.7668571,6.12152381 Z M2.69295238,1.31333333 L4.06019048,4.73885714 L1.99542857,3.08742857 L2.69295238,1.31333333 L2.69295238,1.31333333 Z M5.12171429,5.528 L3.01885714,0.390095238 C2.95904762,0.241904762 2.83885714,0.163428571 2.69295238,0.163428571 C2.54474477,0.160648218 2.41081527,0.251409098 2.35847619,0.390095238 L0.0502857143,6.02571429 L0.839619048,6.02571429 L1.75352381,3.70228571 L4.48,5.93847619 C4.58971429,6.02857143 4.6687619,6.06914286 4.77180952,6.06914286 C4.97752381,6.06914286 5.15790476,5.91257143 5.15790476,5.68628571 C5.15790476,5.64933333 5.14495238,5.59104762 5.12171429,5.52819048 L5.12171429,5.528 Z" id="Shape"></path>
                    </g>
                    <path d="M48.7388571,24.3558095 C48.7388571,37.7758095 37.8607619,48.6539048 24.440381,48.6539048 C11.0213333,48.6539048 0.142095238,37.7758095 0.142095238,24.3558095 C0.142095238,10.9367619 11.0213333,0.0575238095 24.440381,0.0575238095 C37.8605714,0.0575238095 48.7388571,10.9367619 48.7388571,24.3558095" id="Shape" fill="#1A1918"></path>
                    <path d="M24.8495238,14.9007619 L31.1373333,30.42 L21.639619,22.9384762 L24.8495238,14.9009524 L24.8495238,14.9007619 Z M36.0198095,33.9950476 L26.3478095,10.7184762 C26.071619,10.0472381 25.519619,9.69180952 24.8495238,9.69180952 C24.1780952,9.69180952 23.5859048,10.0472381 23.3097143,10.7184762 L12.6940952,36.2499048 L16.3255238,36.2499048 L20.5278095,25.7232381 L33.0687619,35.8546667 C33.5729524,36.2624762 33.9369524,36.4470476 34.4099048,36.4470476 C35.3573333,36.4470476 36.1855238,35.7365714 36.1855238,34.711619 C36.1855238,34.5447619 36.1264762,34.2798095 36.0198095,33.9950476 L36.0198095,33.9950476 Z" id="Shape" fill="#FFFFFF"></path>
                </g>
            </g>
        </g>
    </g>
</svg>