<?xml version="1.0" encoding="UTF-8"?>
<svg width="86px" height="30px" viewBox="0 0 86 30" version="1.1" xmlns="http://www.w3.org/2000/svg" xmlns:xlink="http://www.w3.org/1999/xlink">
    <!-- Generator: Sketch 46.1 (44463) - http://www.bohemiancoding.com/sketch -->
    <title>django-community</title>
    <desc>Created with Sketch.</desc>
    <defs></defs>
    <g id="Invision/Proto" stroke="none" stroke-width="1" fill="none" fill-rule="evenodd">
        <g id="2d-Custom-Web-App-Development" transform="translate(-448.000000, -2570.000000)" fill-rule="nonzero" fill="#092E20">
            <g id="Group-2" transform="translate(235.000000, 2550.000000)">
                <g id="django-community" transform="translate(213.000000, 20.000000)">
                    <path d="M10.0911765,0 L14.7717647,0 L14.7717647,21.6658824 C12.3707843,22.1217647 10.6078431,22.3043137 8.69294118,22.3043137 C2.97862745,22.3039216 0,19.7207843 0,14.7662745 C0,9.99431373 3.16117647,6.89431373 8.0545098,6.89431373 C8.81431373,6.89431373 9.39176471,6.95490196 10.0911765,7.1372549 L10.0911765,0 Z M10.0911765,10.9058824 C9.54411765,10.7237255 9.08823529,10.6629412 8.51058824,10.6629412 C6.13980392,10.6629412 4.77196078,12.1219608 4.77196078,14.674902 C4.77196078,17.167451 6.07901961,18.535098 8.48019608,18.535098 C8.99686275,18.535098 9.42254902,18.504902 10.0911765,18.4137255 L10.0911765,10.9058824 Z" id="Shape"></path>
                    <path d="M22.2180392,7.22843137 L22.2180392,18.0790196 C22.2180392,21.8176471 21.9443137,23.6109804 21.1239216,25.1609804 C20.3639216,26.6505882 19.3607843,27.592549 17.2941176,28.6262745 L12.9476471,26.5594118 C15.0145098,25.5866667 16.017451,24.7358824 16.6556863,23.4284314 C17.3245098,22.0913725 17.537451,20.5409804 17.537451,16.4682353 L17.537451,7.22843137 L22.2180392,7.22843137 Z M17.537451,0.0249019608 L22.2180392,0.0249019608 L22.2180392,4.8272549 L17.537451,4.8272549 L17.537451,0.0249019608 Z M25.0452941,8.29215686 C27.1123529,7.31980392 29.0878431,6.89431373 31.2458824,6.89431373 C33.6470588,6.89431373 35.227451,7.53235294 35.9266667,8.77862745 C36.3215686,9.47764706 36.4431373,10.3894118 36.4431373,12.334902 L36.4431373,21.8480392 C34.3456863,22.1519608 31.7015686,22.364902 29.7564706,22.364902 C25.8356863,22.364902 24.072549,20.9966667 24.072549,17.957451 C24.072549,14.6745098 26.4129412,13.154902 32.157451,12.6684314 L32.157451,11.635098 C32.157451,10.7841176 31.7319608,10.4803922 30.5464706,10.4803922 C28.8141176,10.4803922 26.8688235,10.9666667 25.044902,11.9090196 L25.0452941,8.29215686 L25.0452941,8.29215686 Z M32.3705882,15.7388235 C29.2701961,16.0427451 28.2670588,16.5290196 28.2670588,17.744902 C28.2670588,18.6564706 28.8447059,19.0819608 30.1211765,19.0819608 C30.8203922,19.0819608 31.4584314,19.0213725 32.3703922,18.8694118 L32.3705882,15.7388235 Z M38.7229412,7.95784314 C41.4886275,7.22843137 43.7682353,6.89431373 46.0782353,6.89431373 C48.4794118,6.89431373 50.2119608,7.44117647 51.2456863,8.50509804 C52.2182353,9.50784314 52.5219608,10.6019608 52.5219608,12.9427451 L52.5219608,22.1215686 L47.8411765,22.1215686 L47.8411765,13.125098 C47.8411765,11.3319608 47.2333333,10.6629412 45.5617647,10.6629412 C44.9235294,10.6629412 44.3460784,10.7237255 43.4035294,10.9972549 L43.4035294,22.1215686 L38.7229412,22.1215686 L38.7229412,7.95784314 Z M54.3415686,24.6747059 C55.9831373,25.5258824 57.6243137,25.9205882 59.3566667,25.9205882 C62.4260784,25.9205882 63.7331373,24.6747059 63.7331373,21.6958824 L63.7331373,21.6047059 C62.8215686,22.0603922 61.9094118,22.2429412 60.6939216,22.2429412 C56.5905882,22.2429412 53.9762745,19.5378431 53.9762745,15.252549 C53.9762745,9.93313725 57.8366667,6.92431373 64.675098,6.92431373 C66.6811765,6.92431373 68.5354902,7.13686275 70.7845098,7.5927451 L69.1817647,10.9690196 C67.9356863,10.7258824 69.0819608,10.9364706 68.1401961,10.8452941 L68.1401961,11.3317647 L68.2007843,13.3070588 L68.2309804,15.8603922 C68.2613725,16.4984314 68.2613725,17.1368627 68.2919608,17.775098 L68.2919608,19.0519608 C68.2919608,23.0639216 67.9576471,24.9482353 66.954902,26.4984314 C65.4958824,28.7782353 62.9729412,29.902549 59.3864706,29.902549 C57.5627451,29.902549 55.9827451,29.6290196 54.3411765,28.9907843 L54.3415686,24.6747059 L54.3415686,24.6747059 Z M63.6423529,10.6933333 L63.1562745,10.6933333 C62.2447059,10.6629412 61.1809804,10.9058824 60.4511765,11.3617647 C59.3268627,12.0001961 58.7488235,13.1552941 58.7488235,14.7964706 C58.7488235,17.1370588 59.9043137,18.4743137 61.9709804,18.4743137 C62.6092157,18.4743137 63.1260784,18.352549 63.7335294,18.1703922 L63.7335294,16.5596078 C63.7335294,16.0123529 63.7035294,15.4041176 63.7035294,14.7662745 L63.6733333,12.6084314 L63.6427451,11.0582353 L63.6423529,10.6933333 L63.6423529,10.6933333 Z M78.0513725,6.83333333 C82.7319608,6.83333333 85.5892157,9.78176471 85.5892157,14.5535294 C85.5892157,19.4472549 82.6107843,22.5170588 77.8690196,22.5170588 C73.1880392,22.5170588 70.3003922,19.5686275 70.3003922,14.8272549 C70.3007843,9.90294118 73.2796078,6.83333333 78.0513725,6.83333333 Z M77.9598039,18.7478431 C79.7531373,18.7478431 80.8170588,17.2584314 80.8170588,14.674902 C80.8170588,12.1219608 79.7835294,10.6021569 77.9905882,10.6021569 C76.1362745,10.6021569 75.0721569,12.0917647 75.0721569,14.674902 C75.072549,17.2586275 76.1364706,18.7478431 77.9598039,18.7478431 L77.9598039,18.7478431 Z" id="Shape"></path>
                </g>
            </g>
        </g>
    </g>
</svg>