<?xml version="1.0" encoding="UTF-8"?>
<svg width="30px" height="30px" viewBox="0 0 30 30" version="1.1" xmlns="http://www.w3.org/2000/svg" xmlns:xlink="http://www.w3.org/1999/xlink">
    <!-- Generator: Sketch 46.1 (44463) - http://www.bohemiancoding.com/sketch -->
    <title>invision</title>
    <desc>Created with Sketch.</desc>
    <defs></defs>
    <g id="Invision/Proto" stroke="none" stroke-width="1" fill="none" fill-rule="evenodd">
        <g id="2i-UI/UX-Design-Services" transform="translate(-149.000000, -1124.000000)" fill-rule="nonzero">
            <g id="invision" transform="translate(149.000000, 1124.000000)">
                <path d="M27.2804297,0 L2.71957031,0 C1.21757813,0 0,1.21757813 0,2.71957031 L0,27.2804297 C0,28.7824219 1.21757813,30 2.71957031,30 L27.2804297,30 C28.7824219,30 30,28.7824219 30,27.2804297 L30,2.71957031 C30,1.21757813 28.7824219,0 27.2804297,0" id="Shape" fill="#DC395F"></path>
                <path d="M10.0259766,9.43886719 C11.0232422,9.43886719 11.8586719,8.65722656 11.8586719,7.63277344 C11.8586719,6.60902344 11.0232422,5.8275 10.0259766,5.8275 C9.02871094,5.8275 8.19351562,6.60902344 8.19351562,7.63277344 C8.19351562,8.65710937 9.02871094,9.43886719 10.0259766,9.43886719 M6.22605469,19.1091797 C6.11835937,19.5673828 6.06433594,20.0621484 6.06433594,20.4657422 C6.06433594,22.0560937 6.92671875,23.1118359 8.75941406,23.1118359 C10.2793359,23.1118359 11.5115625,22.2092578 12.3987891,20.7517969 L11.8570312,22.9259766 L14.8751953,22.9259766 L16.6001953,16.0073438 C17.0314453,14.255625 17.866875,13.3463672 19.1336719,13.3463672 C20.1308203,13.3463672 20.750625,13.9665234 20.750625,14.9902734 C20.750625,15.286875 20.7236719,15.6099609 20.6158594,15.9604688 L19.7264063,19.1405859 C19.5916406,19.5987891 19.5379687,20.0572266 19.5379687,20.488125 C19.5379687,21.9978516 20.4270703,23.1021094 22.2867187,23.1021094 C23.8768359,23.1021094 25.1433984,22.0784766 25.8441797,19.6258594 L24.6584766,19.168125 C24.0655078,20.8112109 23.5533984,21.1082813 23.1491016,21.1082813 C22.7448047,21.1082813 22.5291797,20.8389844 22.5291797,20.3002734 C22.5291797,20.0576953 22.5833203,19.7885156 22.6639453,19.464375 L23.5265625,16.3661719 C23.7420703,15.6386719 23.8230469,14.9935547 23.8230469,14.4008203 C23.8230469,12.0830859 22.4214844,10.8734766 20.7236719,10.8734766 C19.1336719,10.8734766 17.5164844,12.3077344 16.708125,13.8172266 L17.3008594,11.1078516 L12.6925781,11.1078516 L12.0457031,13.4942578 L14.2018359,13.4942578 L12.8741016,18.8098828 C11.8314844,21.1276172 9.91628906,21.1652344 9.6759375,21.1114453 C9.28125,21.0223828 9.02882813,20.8725 9.02882813,20.3596875 C9.02882813,20.0637891 9.08273438,19.63875 9.2175,19.1262891 L11.2389844,11.1078516 L6.11835937,11.1078516 L5.47148437,13.4942578 L7.60042969,13.4942578 L6.22617188,19.1091797" id="Shape" fill="#FFFFFF"></path>
            </g>
        </g>
    </g>
</svg>