<?xml version="1.0" encoding="UTF-8"?>
<svg width="106px" height="30px" viewBox="0 0 106 30" version="1.1" xmlns="http://www.w3.org/2000/svg" xmlns:xlink="http://www.w3.org/1999/xlink">
    <!-- Generator: Sketch 46.1 (44463) - http://www.bohemiancoding.com/sketch -->
    <title>nodejs</title>
    <desc>Created with Sketch.</desc>
    <defs></defs>
    <g id="Invision/Proto" stroke="none" stroke-width="1" fill="none" fill-rule="evenodd">
        <g id="2d-Custom-Web-App-Development" transform="translate(-584.000000, -2570.000000)" fill-rule="nonzero">
            <g id="Group-2" transform="translate(235.000000, 2550.000000)">
                <g id="nodejs" transform="translate(349.000000, 20.000000)">
                    <g id="Group" transform="translate(88.965517, 10.551724)" fill="#83CD29">
                        <path d="M8.49310345,0.126413793 C8.23572414,0.126413793 7.98537931,0.179586207 7.7637931,0.304965517 L0.752482759,4.35393103 C0.298758621,4.61544828 0.0229655172,5.10910345 0.0229655172,5.63441379 L0.0229655172,13.7176552 C0.0229655172,14.2425517 0.298758621,14.7355862 0.752482759,14.9977241 L2.58351724,16.0547586 C3.47317241,16.4931724 3.80110345,16.4863448 4.206,16.4863448 C5.52310345,16.4863448 6.27517241,15.6871034 6.27517241,14.2982069 L6.27517241,6.31903448 C6.27517241,6.20627586 6.17751724,6.12558621 6.06682759,6.12558621 L5.18855172,6.12558621 C5.076,6.12558621 4.9802069,6.20627586 4.9802069,6.31903448 L4.9802069,14.2982069 C4.9802069,14.9137241 4.33882759,15.5329655 3.29813793,15.0126207 L1.39262069,13.8962069 C1.32517241,13.8595862 1.27344828,13.7948276 1.27344828,13.7176552 L1.27344828,5.6342069 C1.27344828,5.55765517 1.32455172,5.47965517 1.39262069,5.44075862 L8.38903448,1.40689655 C8.45339198,1.36929093 8.53302181,1.36929093 8.59737931,1.40689655 L15.594,5.44096552 C15.6606207,5.48110345 15.7131724,5.55537931 15.7131724,5.63462069 L15.7131724,13.7178621 C15.7131724,13.7950345 15.6742759,13.874069 15.6088966,13.9113103 L8.59737931,17.9453793 C8.53737931,17.9811724 8.45462069,17.9811724 8.38903448,17.9453793 L6.5877931,16.8736552 C6.53210805,16.8434504 6.46492643,16.8434504 6.40924138,16.8736552 C5.91206897,17.1554483 5.81855172,17.1881379 5.3522069,17.349931 C5.23737931,17.390069 5.06296552,17.4523448 5.4117931,17.6478621 L7.7637931,19.032 C7.9855556,19.1599428 8.2372894,19.2267672 8.49331034,19.2256552 C8.74930073,19.2272514 9.00107493,19.1604687 9.22262069,19.0322069 L16.2341379,14.997931 C16.6878621,14.7341379 16.9634483,14.2427586 16.9634483,13.7178621 L16.9634483,5.63441379 C16.9634483,5.10931034 16.6878621,4.61648276 16.2341379,4.35434483 L9.22262069,0.30537931 C9.00289655,0.179793103 8.75089655,0.12662069 8.49331034,0.12662069 L8.49310345,0.126413793 Z" id="Shape"></path>
                        <path d="M10.3688276,5.90234483 C8.37227586,5.90234483 7.18324138,6.75206897 7.18324138,8.16517241 C7.18324138,9.69786207 8.36337931,10.1191034 10.2796552,10.3086207 C12.572069,10.5331034 12.7506207,10.8697241 12.7506207,11.3209655 C12.7506207,12.1036552 12.1266207,12.4373793 10.6518621,12.4373793 C8.79868966,12.4373793 8.39151724,11.9747586 8.25517241,11.0530345 C8.23903448,10.9541379 8.16268966,10.8742759 8.06151724,10.8742759 L7.15344828,10.8742759 C7.04172414,10.8742759 6.94510345,10.9706897 6.94510345,11.0828276 C6.94510345,12.2627586 7.58689655,13.658069 10.6518621,13.658069 C12.8704138,13.658069 14.150069,12.7872414 14.150069,11.2613793 C14.150069,9.74896552 13.1164138,9.34282759 10.9642759,9.05834483 C8.7897931,8.77055172 8.58248276,8.62965517 8.58248276,8.12048276 C8.58248276,7.70006897 8.75834483,7.13772414 10.3688276,7.13772414 C11.8075862,7.13772414 12.3393103,7.44806897 12.5571724,8.4182069 C12.5762069,8.50924138 12.6564828,8.58186207 12.7506207,8.58186207 L13.6588966,8.58186207 C13.7147586,8.58186207 13.7689655,8.54751724 13.8076552,8.50737931 C13.8457241,8.46455172 13.8726207,8.41634483 13.8672414,8.35862069 C13.7265517,6.68813793 12.6126207,5.90234483 10.3688276,5.90234483 L10.3688276,5.90234483 Z" id="Shape"></path>
                    </g>
                    <path d="M56.2388276,0.0792413793 C56.160452,0.0792933649 56.0834414,0.0997582227 56.0153793,0.13862069 C55.8777825,0.219134109 55.7929099,0.366304273 55.7921379,0.525724138 L55.7921379,11.9137241 C55.7921379,12.0254483 55.7402069,12.1255862 55.6433793,12.1816552 C55.5467699,12.2379298 55.4273681,12.2379298 55.3307586,12.1816552 L53.469931,11.109931 C53.1936628,10.9500818 52.8530268,10.9500818 52.5767586,11.109931 L45.1485517,15.3970345 C44.8708966,15.5573793 44.702069,15.8654483 44.702069,16.1861379 L44.702069,24.7605517 C44.702069,25.0808276 44.8711034,25.3742069 45.1485517,25.5345517 L52.5767586,29.8218621 C52.8529113,29.982141 53.1937783,29.982141 53.469931,29.8218621 L60.8981379,25.5345517 C61.1749601,25.375223 61.3453671,25.079951 61.3448276,24.7605517 L61.3448276,3.384 C61.3444167,3.05705658 61.1681645,2.75561006 60.8834483,2.59489655 L56.462069,0.123724138 C56.3927586,0.0850344828 56.3157931,0.0782068966 56.2388276,0.0792413793 L56.2388276,0.0792413793 Z M8.454,10.7824138 C8.31248276,10.788 8.17924138,10.8128276 8.0522069,10.8864828 L0.623793103,15.1737931 C0.346798553,15.3329222 0.176383717,15.6283448 0.177310345,15.9477931 L0.192206897,27.4551724 C0.192206897,27.6151034 0.274758621,27.7638621 0.415448276,27.842069 C0.552893847,27.9246525 0.72469236,27.9246525 0.862137931,27.842069 L5.26841379,25.3115172 C5.54751724,25.1455862 5.7297931,24.8571724 5.7297931,24.5373103 L5.7297931,19.1633793 C5.7297931,18.8426897 5.89841379,18.5484828 6.17648276,18.3891724 L8.052,17.3025517 C8.18760525,17.2237048 8.34183003,17.1825592 8.49868966,17.1833793 C8.6517931,17.1833793 8.80903448,17.2216552 8.94517241,17.3025517 L10.8208966,18.3891724 C11.0981616,18.5481586 11.2687178,18.8437682 11.2675862,19.1633793 L11.2675862,24.5371034 C11.2675862,24.8569655 11.4517241,25.1474483 11.7289655,25.3113103 L16.1352414,27.842069 C16.272687,27.9246525 16.4444855,27.9246525 16.581931,27.842069 C16.7201012,27.7620997 16.8052374,27.6146091 16.8053793,27.4549655 L16.8198621,15.9477931 C16.8216576,15.6281142 16.6510085,15.3322856 16.3733793,15.1737931 L8.94517241,10.8864828 C8.81958621,10.8128276 8.68593103,10.7882069 8.54337931,10.7824138 L8.454,10.7824138 Z M75.2037931,10.8864828 C75.0486207,10.8864828 74.8965517,10.9257931 74.7573103,11.0056552 L67.3291034,15.2929655 C67.0522183,15.4522312 66.8817883,15.7475433 66.8824138,16.0669655 L66.8824138,24.6413793 C66.8824138,24.963931 67.064069,25.256069 67.3437931,25.4155862 L74.7126207,29.6135172 C74.9846897,29.7686897 75.3169655,29.7804828 75.5908966,29.628 L80.0567586,27.1421379 C80.1984828,27.0635172 80.2942759,26.9166207 80.2948966,26.7552414 C80.2964494,26.5952022 80.2109524,26.4469493 80.0716552,26.3681379 L72.5987586,22.0808276 C72.4588966,22.0009655 72.3606207,21.8393793 72.3606207,21.6788276 L72.3606207,18.9995172 C72.3606207,18.8391724 72.459931,18.6922759 72.5987586,18.6124138 L74.9209655,17.2725517 C75.0591259,17.1925872 75.2294948,17.1925872 75.3676552,17.2725517 L77.6896552,18.6124138 C77.8281369,18.6919703 77.9134009,18.8396033 77.9131034,18.9993103 L77.9131034,21.1131724 C77.9126773,21.2728596 77.9978797,21.4205227 78.1363448,21.500069 C78.2755862,21.5805517 78.444,21.5807586 78.5828276,21.500069 L83.034,18.9103448 C83.3103542,18.7504471 83.4805762,18.4554166 83.4806897,18.1361379 L83.4806897,16.0671724 C83.4806897,15.7475172 83.3110345,15.4535172 83.034,15.2929655 L75.6504828,11.0056552 C75.5147493,10.927141 75.3605977,10.8860863 75.2037931,10.8866897 L75.2037931,10.8864828 Z M52.9934483,17.2876552 C53.0323448,17.2876552 53.0778621,17.2971724 53.1126207,17.3172414 L55.6582759,18.7909655 C55.7273793,18.8308966 55.7774483,18.9047586 55.7774483,18.9844138 L55.7774483,21.9318621 C55.7774483,22.011931 55.7277931,22.0855862 55.6582759,22.1255172 L53.1126207,23.5992414 C53.0434482,23.6387395 52.9585518,23.6387395 52.8893793,23.5992414 L50.343931,22.1255172 C50.2746207,22.0853793 50.2247586,22.011931 50.2247586,21.9318621 L50.2247586,18.9844138 C50.2247586,18.9045517 50.2748276,18.8313103 50.343931,18.7909655 L52.8893793,17.3174483 C52.9206687,17.297987 52.9568075,17.2877333 52.9936552,17.2878621 L52.9936552,17.2876552 L52.9934483,17.2876552 Z" id="Shape" fill="#404137"></path>
                    <path d="M30.7684138,10.8417931 C30.6136552,10.8417931 30.4605517,10.8811034 30.321931,10.9609655 L22.8937241,15.2333793 C22.6158621,15.3933103 22.4470345,15.702 22.4470345,16.0222759 L22.4470345,24.5966897 C22.4470345,24.9173793 22.616069,25.2103448 22.8937241,25.3708966 L30.321931,29.658 C30.5980489,29.8184084 30.9389856,29.8184084 31.2151034,29.658 L38.6433103,25.3708966 C38.9201171,25.2114783 39.0904494,24.91612 39.0897931,24.5966897 L39.0897931,16.0222759 C39.0897931,15.7015862 38.9209655,15.3933103 38.6433103,15.2333793 L31.2151034,10.9609655 C31.0793216,10.8825446 30.9252143,10.8414303 30.7684138,10.8417931 L30.7684138,10.8417931 Z M75.1888966,18.4934483 C75.1593103,18.4934483 75.1264138,18.4934483 75.0997241,18.5083448 L73.6706897,19.341931 C73.616436,19.3720659 73.5823688,19.4288445 73.5813103,19.4908966 L73.5813103,21.1282759 C73.5813103,21.189931 73.6168966,21.2464138 73.6706897,21.2772414 L75.0997241,22.095931 C75.1533103,22.1269655 75.2104138,22.1269655 75.2633793,22.095931 L76.6924138,21.2770345 C76.7464222,21.2467484 76.7804099,21.1901809 76.7817931,21.1282759 L76.7817931,19.4906897 C76.7804099,19.4287846 76.7464222,19.3722171 76.6924138,19.341931 L75.2633793,18.5081379 C75.2368966,18.4926207 75.2186897,18.4936552 75.1888966,18.4936552 L75.1888966,18.4934483 Z" id="Shape" fill="#83CD29"></path>
                </g>
            </g>
        </g>
    </g>
</svg>