<?xml version="1.0" encoding="UTF-8"?>
<svg width="30px" height="30px" viewBox="0 0 30 30" version="1.1" xmlns="http://www.w3.org/2000/svg" xmlns:xlink="http://www.w3.org/1999/xlink">
    <!-- Generator: Sketch 46.1 (44463) - http://www.bohemiancoding.com/sketch -->
    <title>protoio_icon</title>
    <desc>Created with Sketch.</desc>
    <defs>
        <polygon id="path-1" points="0.0036 30 0.0036 0 30 0 30 30"></polygon>
    </defs>
    <g id="Invision/Proto" stroke="none" stroke-width="1" fill="none" fill-rule="evenodd">
        <g id="2i-UI/UX-Design-Services" transform="translate(-199.000000, -1124.000000)">
            <g id="protoio_icon" transform="translate(199.000000, 1124.000000)">
                <mask id="mask-2" fill="white">
                    <use xlink:href="#path-1"></use>
                </mask>
                <g id="Clip-2"></g>
                <path d="M15,14.99556 C14.09106,14.99556 13.35426,14.25888 13.35426,13.34982 C13.35426,12.44124 14.09106,11.70456 15,11.70456 C15.90894,11.70456 16.64562,12.44124 16.64562,13.34982 C16.64562,14.25888 15.90894,14.99556 15,14.99556 M18.64524,14.9706 C18.64524,11.43342 17.2575,8.22282 15,5.84574 C12.74262,8.22282 11.35476,11.43342 11.35476,14.9706 C11.35476,16.59024 11.6484,18.1398 12.18084,19.57362 C11.40816,20.70048 10.8375,22.2795 10.5873,24.09522 C11.38446,23.15154 12.3642,22.46034 13.45044,22.11918 C13.90494,22.82622 14.42376,23.48796 15,24.09522 C15.57636,23.48796 16.09506,22.82622 16.54956,22.11918 C17.63592,22.46034 18.61554,23.15154 19.4127,24.09522 C19.16226,22.2795 18.59172,20.70048 17.81928,19.57362 C18.35148,18.1398 18.64524,16.59024 18.64524,14.9706" id="Fill-1" fill="#3E9EB0" mask="url(#mask-2)"></path>
                <path d="M15,27.50034 C8.09634,27.50034 2.4999,21.90378 2.4999,14.99982 C2.4999,8.09622 8.09634,2.49966 15,2.49966 C21.90378,2.49966 27.5001,8.09622 27.5001,14.99982 C27.5001,21.90378 21.90378,27.50034 15,27.50034 M15,0 C6.71562,0 0,6.71544 0,14.99982 C0,23.28426 6.71562,30 15,30 C23.2845,30 30,23.28426 30,14.99982 C30,6.71544 23.2845,0 15,0" id="Fill-3" fill="#3E9EB0" mask="url(#mask-2)"></path>
            </g>
        </g>
    </g>
</svg>