<?xml version="1.0" encoding="UTF-8"?>
<svg width="60px" height="54px" viewBox="0 0 60 54" version="1.1" xmlns="http://www.w3.org/2000/svg" xmlns:xlink="http://www.w3.org/1999/xlink">
    <!-- Generator: Sketch 46.1 (44463) - http://www.bohemiancoding.com/sketch -->
    <title>react</title>
    <desc>Created with Sketch.</desc>
    <defs></defs>
    <g id="Invision/Proto" stroke="none" stroke-width="1" fill="none" fill-rule="evenodd">
        <g id="2d-Custom-Web-App-Development" transform="translate(-712.000000, -2673.000000)" fill-rule="nonzero">
            <g id="Group-6" transform="translate(252.000000, 2670.000000)">
                <g id="react" transform="translate(460.000000, 3.000000)">
                    <path d="M0.17671875,26.8945313 C0.17671875,31.3980469 4.57429687,35.6020313 11.5071094,37.9717969 C10.1226562,44.9414063 11.2591406,50.5591406 15.0546094,52.7479688 C18.9557812,54.9979688 24.7678125,53.4405469 30.2842969,48.6182813 C35.6615625,53.2457813 41.0960156,55.066875 44.8882031,52.8717187 C48.7858594,50.6153906 49.9710937,44.6167969 48.5484375,37.4294531 C55.7695312,35.0421094 59.80875,31.4573437 59.80875,26.8945313 C59.80875,22.4955469 55.4032031,18.69 48.5636719,16.3354687 C50.0953125,8.85117187 48.7975781,3.36984375 44.8448438,1.09054687 C41.0341406,-1.10695313 35.5364062,0.808359375 30.0801563,5.55679687 C24.4035937,0.516796875 18.9602344,-1.021875 15.0117187,1.26375 C11.2045312,3.46757813 10.1182031,9.1875 11.5071094,16.2860156 C4.80820312,18.6215625 0.17671875,22.5133594 0.17671875,26.8945313 Z" id="Shape" fill="#FFFFFF"></path>
                    <path d="M47.1152344,18.6735937 C46.5515551,18.4802408 45.9830935,18.3011215 45.4103906,18.1364063 C45.5053653,17.7504857 45.5931929,17.3628413 45.6738281,16.9736719 C46.9642969,10.7092969 46.1205469,5.66273438 43.2391406,4.00148438 C40.4765625,2.40820313 35.9582812,4.06945313 31.395,8.04046875 C30.9453476,8.43265854 30.5056761,8.83614666 30.0764062,9.25054687 C29.7889359,8.97499529 29.4963858,8.70479268 29.1989062,8.44007812 C24.4164844,4.19367187 19.6228125,2.40445312 16.7444531,4.070625 C13.9844531,5.66835937 13.1669531,10.4128125 14.32875,16.3495312 C14.4443407,16.9374396 14.5748515,17.5223159 14.7201562,18.1035937 C14.041875,18.29625 13.3867969,18.5015625 12.7600781,18.72 C7.15335937,20.6746875 3.57257812,23.7384375 3.57257812,26.9160937 C3.57257812,30.1982812 7.41632812,33.4903125 13.2564844,35.48625 C13.7300348,35.6473431 14.2075268,35.7966082 14.6885156,35.9339062 C14.5322583,36.5601422 14.3935322,37.1906227 14.2725,37.8246094 C13.1648437,43.6582031 14.0299219,48.2901562 16.7826562,49.8780469 C19.6258594,51.5175 24.3977344,49.8323437 29.0444531,45.770625 C29.4117187,45.4495312 29.7803906,45.1089844 30.1495312,44.7520312 C30.6144895,45.2006389 31.0918624,45.6361987 31.5810938,46.0582031 C36.0820313,49.93125 40.5271875,51.4952344 43.2775781,49.903125 C46.1182031,48.25875 47.0411719,43.2827344 45.8425781,37.2285937 C45.7511719,36.7661719 45.6445312,36.2939062 45.525,35.8129687 C45.8601563,35.7140625 46.1889844,35.611875 46.5098438,35.5054687 C52.5810938,33.4940625 56.5310156,30.2421094 56.5310156,26.9160938 C56.5310156,23.7269531 52.8349219,20.6425781 47.1152344,18.6735937 Z" id="Shape" fill="#53C1DE"></path>
                    <path d="M45.7982813,33.358125 C45.5088281,33.4539844 45.2116406,33.5465625 44.9088281,33.6363281 C44.2385156,31.5145312 43.3338281,29.2582031 42.2271094,26.9273437 C43.2834375,24.6515625 44.1529687,22.4242969 44.8045312,20.3160938 C45.3461719,20.473125 45.8721094,20.6383594 46.3788281,20.8129688 C51.2796094,22.4997656 54.2688281,24.9942188 54.2688281,26.9160937 C54.2688281,28.9633594 51.0403125,31.6211719 45.7985156,33.358125 L45.7982813,33.358125 Z M43.6232813,37.6680469 C44.1532031,40.3450781 44.2289063,42.7654688 43.8778125,44.6575781 C43.5623438,46.3577344 42.928125,47.4911719 42.1439063,47.9451562 C40.4749219,48.91125 36.905625,47.6554688 33.0567188,44.3432813 C32.6153906,43.9635938 32.1707813,43.558125 31.725,43.1292187 C33.2172656,41.4970312 34.7085938,39.5995312 36.1640625,37.4925 C38.724375,37.2653906 41.143125,36.8939062 43.3366406,36.3869531 C43.4444531,36.8228906 43.5405469,37.2501562 43.6232813,37.6680469 L43.6232813,37.6680469 Z M21.6271875,47.7782812 C19.9966406,48.3541406 18.6979688,48.3705469 17.9130469,47.9179688 C16.2424219,46.9546875 15.5482031,43.2351563 16.4953125,38.2464844 C16.6079391,37.6569282 16.7368949,37.070609 16.8820313,36.4882031 C19.0511719,36.9679687 21.4523438,37.3132031 24.01875,37.5213281 C25.4838281,39.583125 27.0182813,41.4782812 28.5646875,43.1378906 C28.236035,43.4558117 27.8996049,43.7655931 27.5557031,44.0669531 C25.5009375,45.8632031 23.4419531,47.1372656 21.6274219,47.7782812 L21.6271875,47.7782812 Z M13.9882031,33.3454687 C11.4058594,32.4628125 9.27328125,31.3157813 7.81148437,30.0642187 C6.49804687,28.9392187 5.83476562,27.8224219 5.83476562,26.9160937 C5.83476562,24.9878906 8.70984375,22.528125 13.5049219,20.8563281 C14.1067732,20.6474103 14.7146117,20.4561565 15.3276562,20.2828125 C15.9904687,22.4383594 16.8597656,24.6921094 17.9088281,26.9711719 C16.8461719,29.2842188 15.9644531,31.5738281 15.2955469,33.7546875 C14.8564784,33.6290138 14.4205655,33.4925663 13.9882031,33.3454688 L13.9882031,33.3454687 Z M16.5489844,15.915 C15.5535937,10.8283594 16.2145313,6.99140625 17.8778906,6.02859375 C19.6497656,5.00296875 23.5673437,6.46546875 27.6965625,10.1317969 C27.9604688,10.3661719 28.2255469,10.6115625 28.4910938,10.8653906 C26.9526563,12.5175 25.4322656,14.3983594 23.9798437,16.4482031 C21.4891406,16.6790625 19.1048438,17.0498438 16.9129687,17.5464844 C16.7779508,17.0057226 16.6565841,16.4616436 16.5489844,15.9147656 L16.5489844,15.915 Z M39.3928125,21.5557031 C38.8750962,20.6614289 38.3381748,19.7784116 37.7824219,18.9072656 C39.4722656,19.1205469 41.0910938,19.4041406 42.61125,19.75125 C42.1549219,21.2139844 41.5860938,22.7435156 40.91625,24.3114844 C40.4268321,23.3828414 39.9189184,22.4640644 39.3928125,21.5557031 L39.3928125,21.5557031 Z M30.0771094,12.4821094 C31.1205469,13.6125 32.165625,14.8748438 33.1935937,16.2442969 C31.1083619,16.145761 29.0196509,16.1452917 26.934375,16.2428906 C27.9632812,14.8860937 29.0172656,13.625625 30.0771094,12.4821094 L30.0771094,12.4821094 Z M20.7016406,21.5711719 C20.1821217,22.4723091 19.6837048,23.3854483 19.2067969,24.3098438 C18.5479687,22.7472656 17.9842969,21.2109375 17.5239844,19.7273438 C19.035,19.3891406 20.6463281,19.1128125 22.3251562,18.9030469 C21.763175,19.7795917 21.2218539,20.6692119 20.7016406,21.5711719 L20.7016406,21.5711719 Z M22.3734375,35.090625 C20.6390625,34.8970312 19.0033594,34.6347656 17.4928125,34.3059375 C17.9603906,32.7960937 18.5364844,31.2267187 19.209375,29.630625 C19.6882934,30.5557056 20.1889006,31.4693957 20.7107813,32.3709375 C21.2433073,33.2905846 21.7976836,34.1974048 22.3734375,35.090625 L22.3734375,35.090625 Z M30.1396875,41.5099219 C29.0674219,40.3528125 27.9979688,39.073125 26.9533594,37.6966406 C27.9672656,37.7364844 29.0010937,37.7566406 30.0517969,37.7566406 C31.1313281,37.7566406 32.1984375,37.7325 33.2486719,37.685625 C32.2174219,39.0871875 31.1760938,40.36875 30.1396875,41.5099219 Z M40.9378125,29.5492969 C41.645625,31.1627344 42.2423437,32.7236719 42.71625,34.2079687 C41.180625,34.5583594 39.5228906,34.8405469 37.7760937,35.0500781 C38.3358636,34.1626673 38.877924,33.2642083 39.4019531,32.3552344 C39.9346607,31.4314326 40.4467406,30.4958884 40.9378125,29.5492969 L40.9378125,29.5492969 Z M37.4421094,31.2250781 C36.6398906,32.6186616 35.7925679,33.9857902 34.9014844,35.3242969 C33.3302344,35.4365625 31.7064844,35.4944531 30.0517969,35.4944531 C28.4039062,35.4944531 26.8007812,35.443125 25.2569531,35.3430469 C24.3427585,34.0076568 23.4794069,32.638162 22.66875,31.2375 C21.8618823,29.8442694 21.1082142,28.4209 20.409375,26.9704687 C21.1064367,25.5196029 21.8578273,24.0954711 22.6619531,22.7010937 L22.6619531,22.7015625 C23.4658267,21.3068882 24.3223815,19.9432491 25.2297656,18.6135937 C26.8047656,18.4945313 28.4196094,18.4321875 30.0520312,18.4321875 C31.6917187,18.4321875 33.3086719,18.495 34.8832031,18.615 C35.7814092,19.9426092 36.6324857,21.3015017 37.4348437,22.6891406 C38.2417347,24.0804158 39.003153,25.4975715 39.7178906,26.9383594 C39.0105052,28.3938266 38.2515085,29.8236391 37.4423437,31.2250781 L37.4421094,31.2250781 Z M42.1092188,5.96132812 C43.8825,6.98414063 44.5722656,11.1084375 43.4580469,16.5171094 C43.3850158,16.8694517 43.3056278,17.2204464 43.2199219,17.5699219 C41.0228906,17.0629687 38.6369531,16.685625 36.1389844,16.45125 C34.68375,14.3791406 33.1760156,12.495 31.6624219,10.8642187 C32.0590461,10.4818472 32.4651088,10.1093885 32.8802344,9.7471875 C36.7900781,6.34453125 40.4442188,5.00109375 42.1092188,5.96132812 L42.1092188,5.96132812 Z" id="Shape" fill="#FFFFFF"></path>
                    <path d="M30.0517969,22.1871094 C32.6636719,22.1871094 34.7807812,24.3044531 34.7807812,26.9160937 C34.7807812,29.5279687 32.6636719,31.6453125 30.0517969,31.6453125 C27.4401562,31.6453125 25.3228125,29.5279687 25.3228125,26.9160937 C25.3228125,24.3044531 27.4401563,22.1871094 30.0517969,22.1871094" id="Shape" fill="#53C1DE"></path>
                </g>
            </g>
        </g>
    </g>
</svg>