<?xml version="1.0" encoding="UTF-8"?>
<svg width="150px" height="39px" viewBox="0 0 150 39" version="1.1" xmlns="http://www.w3.org/2000/svg" xmlns:xlink="http://www.w3.org/1999/xlink">
    <!-- Generator: Sketch 43.1 (39012) - http://www.bohemiancoding.com/sketch -->
    <title>solarcity</title>
    <desc>Created with Sketch.</desc>
    <defs></defs>
    <g id="Page-1" stroke="none" stroke-width="1" fill="none" fill-rule="evenodd">
        <g id="SolarCity-LP-v1" transform="translate(-650.000000, -1911.000000)" fill-rule="nonzero" fill="#0B8340">
            <g id="solarcity" transform="translate(650.000000, 1911.000000)">
                <path d="M48.4542587,1.65615142 C48.4542587,1.04100946 47.9337539,0.520504732 47.318612,0.520504732 L43.9116719,0.520504732 L43.9116719,30.7570978 L48.4542587,30.7570978 L48.4542587,1.65615142 L48.4542587,1.65615142 Z" id="Shape"></path>
                <path d="M58.7223975,8.42271293 C58.7223975,8.42271293 55.4574132,8.23343849 52.0504732,9.84227129 L52.0504732,13.8643533 C52.0504732,13.8643533 54.9369085,12.4921136 58.3438486,12.4921136 C60.5678233,12.4921136 63.3123028,13.1545741 63.3123028,16.8454259 L58.7223975,16.8454259 C53.8485804,16.8454259 50.2523659,19.1640379 50.2523659,23.9905363 C50.2523659,27.8233438 52.6656151,31.2302839 57.5867508,31.2302839 C61.3249211,31.2302839 63.3123028,29.2902208 63.3123028,29.2902208 L63.3123028,30.7097792 L67.8548896,30.7097792 L67.8548896,16.8927445 C67.8548896,10.7886435 64.1640379,8.42271293 58.7223975,8.42271293 Z M63.3123028,24.9369085 C63.3123028,24.9369085 61.0883281,27.2082019 58.2492114,27.2082019 C55.4100946,27.2082019 54.8895899,25.2208202 54.8895899,24.0378549 C54.8895899,22.8548896 55.2208202,20.8675079 58.8170347,20.8675079 L63.2649842,20.8675079 L63.2649842,24.9369085 L63.3123028,24.9369085 Z" id="Shape"></path>
                <path d="M42.2082019,19.8264984 C42.2082019,14.2429022 39.1798107,8.37539432 31.8454259,8.37539432 C24.511041,8.37539432 21.4826498,14.2429022 21.4826498,19.8264984 C21.4826498,25.4100946 24.6056782,31.2302839 31.8454259,31.2302839 C39.1324921,31.2302839 42.2082019,25.4100946 42.2082019,19.8264984 Z M26.1671924,19.8264984 C26.1671924,15.1892744 28.533123,12.3974763 31.8454259,12.3974763 C35.1577287,12.3974763 37.5236593,15.1419558 37.5236593,19.8264984 C37.5236593,24.4637224 35.2523659,27.2082019 31.8927445,27.2082019 C28.4858044,27.2082019 26.1671924,24.511041 26.1671924,19.8264984 Z" id="Shape"></path>
                <rect id="Rectangle-path" x="106.324921" y="8.94321767" width="4.54258675" height="21.8138801"></rect>
                <path d="M124.77918,27.1135647 C122.933754,27.1135647 121.608833,26.4511041 121.608833,24.3690852 L121.608833,13.0126183 L127.570978,13.0126183 L125.914826,8.94321767 L121.608833,8.94321767 L121.608833,4.44794953 C121.608833,3.83280757 121.088328,3.31230284 120.473186,3.31230284 L117.066246,3.31230284 L117.066246,8.94321767 L113.091483,8.94321767 L113.091483,13.0126183 L117.066246,13.0126183 L117.066246,25.2681388 L117.066246,25.362776 C117.066246,28.0126183 118.722397,31.2776025 123.974763,31.2776025 C126.81388,31.2776025 128.706625,30.4258675 129.369085,30.1419558 C129.132492,29.4794953 128.18612,27.1608833 127.949527,26.6403785 C127.050473,26.8769716 125.962145,27.1135647 124.77918,27.1135647 Z" id="Shape"></path>
                <path d="M74.5741325,16.8927445 C74.5741325,13.2018927 77.318612,12.5394322 79.5425868,12.5394322 C80.2523659,12.5394322 80.9621451,12.5867508 81.5772871,12.681388 C81.6719243,11.8769716 81.7665615,11.1198738 81.955836,10.4100946 C82.0977918,9.84227129 82.2397476,9.27444795 82.3817035,8.75394322 C80.5362776,8.37539432 79.1640379,8.47003155 79.1640379,8.47003155 C73.7223975,8.47003155 70.0315457,10.8359621 70.0315457,16.9400631 L70.0315457,30.7570978 L74.5741325,30.7570978 L74.5741325,16.8927445 Z" id="Shape"></path>
                <path d="M144.984227,8.94321767 L138.73817,24.2744479 L132.681388,8.94321767 L128.044164,8.94321767 L136.419558,29.7160883 L132.776025,38.2334385 L136.656151,38.2334385 C137.082019,38.2334385 137.507886,37.9968454 137.649842,37.6182965 L149.621451,8.94321767 L144.984227,8.94321767 Z" id="Shape"></path>
                <path d="M97.1451104,31.2302839 C100.646688,31.2302839 103.675079,30 104.148265,29.7634069 L104.148265,25.2208202 C102.917981,25.7413249 100.504732,26.829653 97.192429,26.829653 C95.5835962,26.829653 88.4858044,26.1671924 88.4858044,15.615142 C88.4858044,5.06309148 95.488959,4.25867508 97.192429,4.25867508 C99.7949527,4.25867508 101.59306,5.01577287 102.539432,5.39432177 C102.728707,4.92113565 104.148265,1.37223975 104.148265,1.37223975 C103.62776,1.13564669 100.835962,0 97.2397476,0 C94.637224,0 83.4700315,1.23028391 83.4700315,15.6624606 C83.4227129,30.0946372 94.2586751,31.2302839 97.1451104,31.2302839 Z" id="Shape"></path>
                <rect id="Rectangle-path" x="106.324921" y="1.94006309" width="4.54258675" height="4.58990536"></rect>
                <path d="M10.7886435,13.2492114 C6.95583596,12.3028391 4.96845426,11.4511041 4.96845426,8.84858044 C4.96845426,6.81388013 5.9148265,4.3533123 10.6466877,4.3533123 C13.5804416,4.3533123 16.1356467,5.25236593 17.318612,5.77287066 C17.5078864,5.29968454 18.8801262,1.84542587 18.8801262,1.84542587 C18.8801262,1.84542587 15.615142,0.047318612 10.4574132,0.047318612 C4.49526814,0.047318612 0.094637224,3.170347 0.094637224,9.0851735 C0.094637224,14.8107256 4.21135647,16.5141956 9.32176656,17.6025237 C13.3911672,18.5015773 15.1419558,19.4479495 15.1419558,22.0977918 C15.1419558,24.5583596 14.1009464,26.7350158 8.61198738,26.7350158 C3.40694006,26.7350158 0,24.7476341 0,24.7476341 L0,29.2902208 C1.46687697,30.2839117 4.92113565,31.2776025 8.42271293,31.2776025 C17.0820189,31.2776025 19.9684543,26.6876972 19.9684543,22.0031546 C19.9684543,16.0410095 15.8044164,14.384858 10.7886435,13.2492114 Z" id="Shape"></path>
            </g>
        </g>
    </g>
</svg>