<?xml version="1.0" encoding="UTF-8"?>
<svg width="27px" height="43px" viewBox="0 0 27 43" version="1.1" xmlns="http://www.w3.org/2000/svg" xmlns:xlink="http://www.w3.org/1999/xlink">
    <!-- Generator: Sketch 46.1 (44463) - http://www.bohemiancoding.com/sketch -->
    <title>Page 1</title>
    <desc>Created with Sketch.</desc>
    <defs>
        <filter x="-36.8%" y="-14.3%" width="173.7%" height="140.0%" filterUnits="objectBoundingBox" id="filter-1">
            <feOffset dx="0" dy="2" in="SourceAlpha" result="shadowOffsetOuter1"></feOffset>
            <feGaussianBlur stdDeviation="2" in="shadowOffsetOuter1" result="shadowBlurOuter1"></feGaussianBlur>
            <feColorMatrix values="0 0 0 0 0   0 0 0 0 0   0 0 0 0 0  0 0 0 0.1 0" type="matrix" in="shadowBlurOuter1" result="shadowMatrixOuter1"></feColorMatrix>
            <feMerge>
                <feMergeNode in="shadowMatrixOuter1"></feMergeNode>
                <feMergeNode in="SourceGraphic"></feMergeNode>
            </feMerge>
        </filter>
        <polygon id="path-2" points="0 35 18.571 35 18.571 0 0 0"></polygon>
    </defs>
    <g id="Invision/Proto" stroke="none" stroke-width="1" fill="none" fill-rule="evenodd">
        <g id="2h-Design-Thinking-Workshops" transform="translate(-393.000000, -1577.000000)">
            <g id="Group-2" transform="translate(371.000000, 1543.000000)">
                <g id="Page-1" filter="url(#filter-1)" transform="translate(26.000000, 36.000000)">
                    <polygon id="Fill-1" fill="#383838" points="0 34.999 18.572 34.999 18.572 0 0 0"></polygon>
                    <polygon id="Fill-2" fill="#FFFFFF" points="1.072 30.714 17.5 30.714 17.5 3.571 1.072 3.571"></polygon>
                    <g id="Group-34">
                        <path d="M7.857,1.7856 C7.857,1.9826 7.697,2.1426 7.5,2.1426 C7.302,2.1426 7.143,1.9826 7.143,1.7856 C7.143,1.5886 7.302,1.4286 7.5,1.4286 C7.697,1.4286 7.857,1.5886 7.857,1.7856 Z" id="Fill-3" fill="#797979"></path>
                        <mask id="mask-3" fill="white">
                            <use xlink:href="#path-2"></use>
                        </mask>
                        <g id="Clip-6"></g>
                        <polygon id="Fill-5" fill="#797979" mask="url(#mask-3)" points="8.572 2.143 11.428 2.143 11.428 1.428 8.572 1.428"></polygon>
                        <path d="M10.357,32.8569 C10.357,33.4489 9.878,33.9279 9.286,33.9279 C8.694,33.9279 8.214,33.4489 8.214,32.8569 C8.214,32.2649 8.694,31.7859 9.286,31.7859 C9.878,31.7859 10.357,32.2649 10.357,32.8569" id="Fill-7" fill="#797979" mask="url(#mask-3)"></path>
                        <polygon id="Fill-8" fill="#D8D8D8" mask="url(#mask-3)" points="1.072 7.143 17.5 7.143 17.5 3.572 1.072 3.572"></polygon>
                        <polygon id="Fill-9" fill="#F2F2F2" mask="url(#mask-3)" points="2.5 16.428 16.072 16.428 16.072 13.572 2.5 13.572"></polygon>
                        <polygon id="Fill-10" fill="#F2F2F2" mask="url(#mask-3)" points="2.5 20.714 16.072 20.714 16.072 17.857 2.5 17.857"></polygon>
                        <polygon id="Fill-11" fill="#F2F2F2" mask="url(#mask-3)" points="2.5 25 16.072 25 16.072 22.144 2.5 22.144"></polygon>
                        <polygon id="Fill-12" fill="#F2F2F2" mask="url(#mask-3)" points="2.5 29.286 16.072 29.286 16.072 26.429 2.5 26.429"></polygon>
                        <polygon id="Fill-13" fill="#F2F2F2" mask="url(#mask-3)" points="2.5 12.143 16.072 12.143 16.072 9.286 2.5 9.286"></polygon>
                        <path d="M3.9283,10.7144 C3.9283,10.9114 3.7693,11.0714 3.5723,11.0714 C3.3743,11.0714 3.2143,10.9114 3.2143,10.7144 C3.2143,10.5174 3.3743,10.3574 3.5723,10.3574 C3.7693,10.3574 3.9283,10.5174 3.9283,10.7144" id="Fill-14" fill="#797979" mask="url(#mask-3)"></path>
                        <path d="M5.1803,10.7144 C5.1803,10.9114 5.0203,11.0714 4.8233,11.0714 C4.6253,11.0714 4.4653,10.9114 4.4653,10.7144 C4.4653,10.5174 4.6253,10.3574 4.8233,10.3574 C5.0203,10.3574 5.1803,10.5174 5.1803,10.7144" id="Fill-15" fill="#797979" mask="url(#mask-3)"></path>
                        <path d="M6.4312,10.7144 C6.4312,10.9114 6.2722,11.0714 6.0752,11.0714 C5.8772,11.0714 5.7172,10.9114 5.7172,10.7144 C5.7172,10.5174 5.8772,10.3574 6.0752,10.3574 C6.2722,10.3574 6.4312,10.5174 6.4312,10.7144" id="Fill-16" fill="#797979" mask="url(#mask-3)"></path>
                        <path d="M7.6832,10.7144 C7.6832,10.9114 7.5232,11.0714 7.3262,11.0714 C7.1282,11.0714 6.9692,10.9114 6.9692,10.7144 C6.9692,10.5174 7.1282,10.3574 7.3262,10.3574 C7.5232,10.3574 7.6832,10.5174 7.6832,10.7144" id="Fill-17" fill="#797979" mask="url(#mask-3)"></path>
                        <path d="M8.9351,10.7144 C8.9351,10.9114 8.7751,11.0714 8.5781,11.0714 C8.3801,11.0714 8.2201,10.9114 8.2201,10.7144 C8.2201,10.5174 8.3801,10.3574 8.5781,10.3574 C8.7751,10.3574 8.9351,10.5174 8.9351,10.7144" id="Fill-18" fill="#797979" mask="url(#mask-3)"></path>
                        <path d="M10.1861,10.7144 C10.1861,10.9114 10.0261,11.0714 9.8291,11.0714 C9.6321,11.0714 9.4721,10.9114 9.4721,10.7144 C9.4721,10.5174 9.6321,10.3574 9.8291,10.3574 C10.0261,10.3574 10.1861,10.5174 10.1861,10.7144" id="Fill-19" fill="#797979" mask="url(#mask-3)"></path>
                        <path d="M11.4381,10.7144 C11.4381,10.9114 11.2781,11.0714 11.0811,11.0714 C10.8831,11.0714 10.7231,10.9114 10.7231,10.7144 C10.7231,10.5174 10.8831,10.3574 11.0811,10.3574 C11.2781,10.3574 11.4381,10.5174 11.4381,10.7144" id="Fill-20" fill="#797979" mask="url(#mask-3)"></path>
                        <path d="M12.689,10.7144 C12.689,10.9114 12.53,11.0714 12.333,11.0714 C12.135,11.0714 11.975,10.9114 11.975,10.7144 C11.975,10.5174 12.135,10.3574 12.333,10.3574 C12.53,10.3574 12.689,10.5174 12.689,10.7144" id="Fill-21" fill="#797979" mask="url(#mask-3)"></path>
                        <path d="M13.941,10.7144 C13.941,10.9114 13.781,11.0714 13.584,11.0714 C13.386,11.0714 13.227,10.9114 13.227,10.7144 C13.227,10.5174 13.386,10.3574 13.584,10.3574 C13.781,10.3574 13.941,10.5174 13.941,10.7144" id="Fill-22" fill="#797979" mask="url(#mask-3)"></path>
                        <path d="M3.9283,14.9995 C3.9283,15.1965 3.7693,15.3565 3.5723,15.3565 C3.3743,15.3565 3.2143,15.1965 3.2143,14.9995 C3.2143,14.8035 3.3743,14.6435 3.5723,14.6435 C3.7693,14.6435 3.9283,14.8035 3.9283,14.9995" id="Fill-23" fill="#797979" mask="url(#mask-3)"></path>
                        <path d="M5.1803,14.9995 C5.1803,15.1965 5.0203,15.3565 4.8233,15.3565 C4.6253,15.3565 4.4653,15.1965 4.4653,14.9995 C4.4653,14.8035 4.6253,14.6435 4.8233,14.6435 C5.0203,14.6435 5.1803,14.8035 5.1803,14.9995" id="Fill-24" fill="#797979" mask="url(#mask-3)"></path>
                        <path d="M6.4312,14.9995 C6.4312,15.1965 6.2722,15.3565 6.0752,15.3565 C5.8772,15.3565 5.7172,15.1965 5.7172,14.9995 C5.7172,14.8035 5.8772,14.6435 6.0752,14.6435 C6.2722,14.6435 6.4312,14.8035 6.4312,14.9995" id="Fill-25" fill="#797979" mask="url(#mask-3)"></path>
                        <path d="M7.6832,14.9995 C7.6832,15.1965 7.5232,15.3565 7.3262,15.3565 C7.1282,15.3565 6.9692,15.1965 6.9692,14.9995 C6.9692,14.8035 7.1282,14.6435 7.3262,14.6435 C7.5232,14.6435 7.6832,14.8035 7.6832,14.9995" id="Fill-26" fill="#797979" mask="url(#mask-3)"></path>
                        <path d="M8.9351,14.9995 C8.9351,15.1965 8.7751,15.3565 8.5781,15.3565 C8.3801,15.3565 8.2201,15.1965 8.2201,14.9995 C8.2201,14.8035 8.3801,14.6435 8.5781,14.6435 C8.7751,14.6435 8.9351,14.8035 8.9351,14.9995" id="Fill-27" fill="#797979" mask="url(#mask-3)"></path>
                        <path d="M10.1861,14.9995 C10.1861,15.1965 10.0261,15.3565 9.8291,15.3565 C9.6321,15.3565 9.4721,15.1965 9.4721,14.9995 C9.4721,14.8035 9.6321,14.6435 9.8291,14.6435 C10.0261,14.6435 10.1861,14.8035 10.1861,14.9995" id="Fill-28" fill="#797979" mask="url(#mask-3)"></path>
                        <path d="M11.4381,14.9995 C11.4381,15.1965 11.2781,15.3565 11.0811,15.3565 C10.8831,15.3565 10.7231,15.1965 10.7231,14.9995 C10.7231,14.8035 10.8831,14.6435 11.0811,14.6435 C11.2781,14.6435 11.4381,14.8035 11.4381,14.9995" id="Fill-29" fill="#797979" mask="url(#mask-3)"></path>
                        <path d="M3.9283,19.2857 C3.9283,19.4827 3.7693,19.6427 3.5723,19.6427 C3.3743,19.6427 3.2143,19.4827 3.2143,19.2857 C3.2143,19.0887 3.3743,18.9287 3.5723,18.9287 C3.7693,18.9287 3.9283,19.0887 3.9283,19.2857" id="Fill-30" fill="#4FD684" mask="url(#mask-3)"></path>
                        <path d="M5.1803,19.2857 C5.1803,19.4827 5.0203,19.6427 4.8233,19.6427 C4.6253,19.6427 4.4653,19.4827 4.4653,19.2857 C4.4653,19.0887 4.6253,18.9287 4.8233,18.9287 C5.0203,18.9287 5.1803,19.0887 5.1803,19.2857" id="Fill-31" fill="#4FD684" mask="url(#mask-3)"></path>
                        <path d="M6.4312,19.2857 C6.4312,19.4827 6.2722,19.6427 6.0752,19.6427 C5.8772,19.6427 5.7172,19.4827 5.7172,19.2857 C5.7172,19.0887 5.8772,18.9287 6.0752,18.9287 C6.2722,18.9287 6.4312,19.0887 6.4312,19.2857" id="Fill-32" fill="#4FD684" mask="url(#mask-3)"></path>
                        <path d="M7.6832,19.2857 C7.6832,19.4827 7.5232,19.6427 7.3262,19.6427 C7.1282,19.6427 6.9692,19.4827 6.9692,19.2857 C6.9692,19.0887 7.1282,18.9287 7.3262,18.9287 C7.5232,18.9287 7.6832,19.0887 7.6832,19.2857" id="Fill-33" fill="#4FD684" mask="url(#mask-3)"></path>
                    </g>
                </g>
            </g>
        </g>
    </g>
</svg>