<svg width="118" height="30" viewBox="0 0 118 30" xmlns="http://www.w3.org/2000/svg">
  <title>
    SolarCity
  </title>
  <g fill-rule="nonzero" fill="#FFF" >
    <path d="M37.926 1.296c0-.48-.407-.89-.89-.89H34.37v23.668h3.556V1.296zM45.963 6.593s-2.556-.15-5.222 1.11v3.15S43 9.777 45.668 9.777c1.74 0 3.89.518 3.89 3.407h-3.594c-3.815 0-6.63 1.815-6.63 5.593 0 3 1.89 5.666 5.74 5.666 2.927 0 4.483-1.518 4.483-1.518v1.11h3.555V13.223c0-4.778-2.888-6.63-7.147-6.63zm3.593 12.926s-1.74 1.776-3.963 1.776-2.63-1.555-2.63-2.48c0-.927.26-2.483 3.074-2.483h3.482v3.186h.036zM33.037 15.52c0-4.372-2.37-8.964-8.11-8.964-5.742 0-8.112 4.592-8.112 8.963 0 4.37 2.444 8.924 8.11 8.924 5.705 0 8.112-4.555 8.112-8.925zm-12.556 0c0-3.63 1.853-5.816 4.446-5.816s4.444 2.148 4.444 5.815c0 3.628-1.777 5.776-4.407 5.776-2.667 0-4.482-2.11-4.482-5.777zM83.222 7h3.556v17.074h-3.556zM97.667 21.222c-1.445 0-2.482-.518-2.482-2.148v-8.89h4.667L98.556 7h-3.37V3.48c0-.48-.408-.887-.89-.887H91.63V7h-3.11v3.185h3.11v9.667c0 2.074 1.296 4.63 5.407 4.63 2.222 0 3.704-.667 4.222-.89-.186-.518-.927-2.333-1.112-2.74-.704.185-1.555.37-2.48.37zM58.37 13.222c0-2.89 2.15-3.407 3.89-3.407.555 0 1.11.037 1.592.11.074-.63.148-1.22.296-1.777.11-.444.222-.89.333-1.296-1.443-.296-2.517-.222-2.517-.222-4.26 0-7.148 1.85-7.148 6.63v10.814h3.555V13.222zM113.48 7l-4.887 12-4.74-12h-3.63l6.555 16.26-2.852 6.666h3.037c.333 0 .667-.185.778-.482L117.11 7h-3.63zM76.037 24.444c2.74 0 5.11-.963 5.482-1.148V19.74c-.964.408-2.853 1.26-5.446 1.26-1.26 0-6.815-.52-6.815-8.778 0-8.26 5.48-8.89 6.814-8.89 2.037 0 3.445.594 4.185.89.147-.37 1.26-3.148 1.26-3.148C81.11.89 78.925 0 76.11 0c-2.036 0-10.777.963-10.777 12.26-.037 11.296 8.445 12.184 10.704 12.184zM83.222 1.52h3.556V5.11h-3.556zM8.444 10.37c-3-.74-4.555-1.407-4.555-3.444 0-1.593.74-3.52 4.443-3.52 2.297 0 4.297.705 5.223 1.113l1.222-3.076S12.222.037 8.185.037C3.52.037.075 2.48.075 7.11c0 4.483 3.22 5.816 7.22 6.668 3.186.703 4.557 1.444 4.557 3.518 0 1.926-.815 3.63-5.11 3.63C2.666 20.926 0 19.37 0 19.37v3.556c1.148.778 3.852 1.555 6.593 1.555 6.777 0 9.037-3.59 9.037-7.258 0-4.666-3.26-5.963-7.186-6.852z"/>
  </g>
</svg>
