<svg width="42px" height="41px" viewBox="0 0 42 41" version="1.1" xmlns="http://www.w3.org/2000/svg" xmlns:xlink="http://www.w3.org/1999/xlink">
    <!-- Generator: Sketch 43.1 (39012) - http://www.bohemiancoding.com/sketch -->
    <desc>Created with Sketch.</desc>
    <defs></defs>
    <g id="WIP" stroke="none" stroke-width="1" fill="none" fill-rule="evenodd">
        <g id="3a-Case-Studies-Copy" transform="translate(-50.000000, -2509.000000)" fill-rule="nonzero" fill="#FFFFFF">
            <g id="Group-8" transform="translate(0.000000, 2442.000000)">
                <g id="FormForce-logo" transform="translate(50.000000, 58.000000)">
                    <path d="M20.5882353,9.86470588 L0.111764706,9.86470588 L0.111764706,23.3 C0.758749824,31.9707421 5.72383452,39.7344898 13.3235294,43.9588235 L13.3235294,30.0705882 L4.75882353,30.0705882 C4.75882353,30.0705882 3.32352941,26.7588235 3.12352941,24.1470588 L13.2294118,24.1470588 L13.2294118,18.3235294 L2.97058824,18.3235294 L2.97058824,12.5941176 L18.8235294,12.5941176 L16.6352941,24.1941176 L19.1823529,24.1941176 L16.6352941,38.3117647 L21.1764706,38.3117647 L20.3176471,49.8176471 L24,35.5058824 L20.1176471,35.5058824 L23.9941176,21.3882353 L21.4470588,21.3882353 L23.3352941,12.5647059 L38.2058824,12.5647059 L38.2058824,18.2941176 L27.9529412,18.2941176 L27.9529412,24.1176471 L38.0529412,24.1176471 C37.8588235,26.7294118 36.4235294,30.0411765 36.4235294,30.0411765 L27.8529412,30.0411765 L27.8529412,43.9235294 C35.4434425,39.7067448 40.4072725,31.9582194 41.0647059,23.3 L41.0647059,9.86470588 L20.5882353,9.86470588 Z" id="Shape"></path>
                </g>
            </g>
        </g>
    </g>
</svg>
