<svg width="81" height="30" viewBox="0 0 81 30" xmlns="http://www.w3.org/2000/svg">
  <title>
    Zoetis
  </title>
  <g fill="#FFF" fill-rule="evenodd">
    <path d="M15.99 7.145l-.3 2.416-9.984 10.465s4.005-.277 10.142 4.372c6.137 4.65 12.928 1.907 16.044-1.068l2.093 2.138s-9.065 10.135-22.27.093c0 0-3.067-2.324-5.16-2.324C4.463 23.236 0 23.19 0 23.19l.372-2 10.09-10.79H2.918l.8-3.195 12.088-.074"/>
    <path d="M24.113 6.856s-6.642 1.23-7.724 8.694c-1.083 7.462 6.977 9.962 11.417 6.64 4.44-3.32 6.12-9.924 2.314-13.954 0 0-1.865-2.052-6.007-1.38zm1.923 2.855c1.99.643 2.82 3.6 1.85 6.603-.967 3.005-3.366 4.92-5.357 4.28-1.99-.642-2.82-3.598-1.852-6.603.968-3.004 3.367-4.92 5.358-4.28zM43.88 9.77s-3.935-1.447-5.57 3.863c0 0 7.093.78 6.61-2.6 0 0-.15-1.002-1.04-1.262zm4.456 2.526c-.854 5.235-10.396 4.158-10.396 4.158-.297.743.037 1.82.037 1.82 2.636 4.715 8.094 1.187 8.094 1.187l.335 2.972c-1.225 1.15-13.292 3.453-12.252-5.904 1.04-9.356 8.836-9.876 8.836-9.876 1.373-.185 6.2.41 5.346 5.644zM50.758 7.356c.076-.002-.546 2.82-.546 2.82h2.185l-1.465 7.983s-1.215 4.95 2.52 5.4c3.735.45 3.735-.406 3.735-.406l.09-2.925s-3.105 1.004-2.655-1.922c.45-2.925 1.575-8.13 1.575-8.13h3.588l.733-3-3.736.045.81-4.276s-4.23 1.215-4.095 1.215c.135 0-.45 3.106-.45 3.106l-2.29.088M68.105 3.756c-.74 1.098-2.146 1.445-3.138.775s-1.196-2.102-.454-3.2C65.253.234 66.66-.113 67.65.557c.993.67 1.196 2.102.455 3.2M63.6 7.187l-3.026 15.975h3.912l2.988-15.96-3.875-.015M79.15 18.404c-.038.41-.118.662-.118.662-1.997 7.004-11.525 3.724-11.525 3.724l1.144-2.738c.605.302 2.186.644 2.186.644 4.213.747 5.11-2.538 2.443-4.276-.283-.184-.605-.35-.967-.494-.325-.127-.62-.27-.89-.425-2.17-1.5-2.047-3.517-1.917-4.243.032-.175.063-.277.063-.277 1.837-6.404 10.605-3.404 10.605-3.404l-1.053 2.503c-.555-.277-2.01-.59-2.01-.59-3.455-.608-4.485 1.71-2.932 3.348.374.394.896.75 1.573 1.013 2.862 1.12 3.334 3.48 3.41 4.287 0 0 .007.18-.014.267"/>
  </g>
</svg>
