<?xml version="1.0" encoding="UTF-8"?>
<svg width="287px" height="191px" viewBox="0 0 287 191" version="1.1" xmlns="http://www.w3.org/2000/svg" xmlns:xlink="http://www.w3.org/1999/xlink">
    <!-- Generator: Sketch 46 (44423) - http://www.bohemiancoding.com/sketch -->
    <title>Group 10</title>
    <desc>Created with Sketch.</desc>
    <defs>
        <radialGradient cx="50%" cy="100%" fx="50%" fy="100%" r="76.3419118%" gradientTransform="translate(0.500000,1.000000),scale(0.654948,1.000000),rotate(180.000000),scale(1.000000,1.098151),translate(-0.500000,-1.000000)" id="radialGradient-1">
            <stop stop-color="#FFFFFF" offset="0%"></stop>
            <stop stop-color="#F5FBFB" offset="100%"></stop>
        </radialGradient>
        <path d="M105.477708,37.2240838 C115.684628,16.9217198 137.637644,0 166.723879,0 C209.202337,0 238.916332,37.9224111 235.093968,75.3962279 C260.111385,80.2798945 279,102.270268 279,128.589346 C279,158.48793 254.633594,182.730525 224.566193,182.730525 L57.842314,182.730525 C23.2457374,182.730525 0,160.157441 0,131.974615 C0,108.4026 16.6937782,85.2421807 40.8276805,81.2140807 C40.8276805,40.6093527 78.2561543,23.6830082 105.477708,37.2240838 Z" id="path-2"></path>
        <filter x="-2.5%" y="-2.7%" width="105.0%" height="107.7%" filterUnits="objectBoundingBox" id="filter-3">
            <feOffset dx="0" dy="2" in="SourceAlpha" result="shadowOffsetOuter1"></feOffset>
            <feGaussianBlur stdDeviation="2" in="shadowOffsetOuter1" result="shadowBlurOuter1"></feGaussianBlur>
            <feColorMatrix values="0 0 0 0 0   0 0 0 0 0   0 0 0 0 0  0 0 0 0.05 0" type="matrix" in="shadowBlurOuter1"></feColorMatrix>
        </filter>
    </defs>
    <g id="Invision/Proto" stroke="none" stroke-width="1" fill="none" fill-rule="evenodd">
        <g id="3a5-CloudVelox" transform="translate(-591.000000, -3105.000000)">
            <g id="Group-10" transform="translate(595.000000, 3107.000000)">
                <g id="Clip-2">
                    <use fill="black" fill-opacity="1" filter="url(#filter-3)" xlink:href="#path-2"></use>
                    <use fill="url(#radialGradient-1)" fill-rule="evenodd" xlink:href="#path-2"></use>
                </g>
                <path d="M110.8,96.86 C111.613337,96.86 112.31333,96.7233347 112.9,96.45 C113.48667,96.1766653 114.099997,95.740003 114.74,95.14 L116.26,96.7 C114.779993,98.3400082 112.983344,99.16 110.87,99.16 C108.756656,99.16 107.00334,98.4800068 105.61,97.12 C104.21666,95.7599932 103.52,94.0400104 103.52,91.96 C103.52,89.8799896 104.229993,88.1466736 105.65,86.76 C107.070007,85.3733264 108.863322,84.68 111.03,84.68 C113.196677,84.68 115.006659,85.479992 116.46,87.08 L114.96,88.72 C114.29333,88.0799968 113.663336,87.6333346 113.07,87.38 C112.476664,87.1266654 111.780004,87 110.98,87 C109.56666,87 108.380005,87.4566621 107.42,88.37 C106.459995,89.2833379 105.98,90.4499929 105.98,91.87 C105.98,93.2900071 106.456662,94.4766619 107.41,95.43 C108.363338,96.3833381 109.493327,96.86 110.8,96.86 Z M119.26,99 L119.26,85.02 L121.62,85.02 L121.62,96.76 L128,96.76 L128,99 L119.26,99 Z M136.92,86.84 C135.533326,86.84 134.363338,87.3333284 133.41,88.32 C132.456662,89.3066716 131.98,90.5033263 131.98,91.91 C131.98,93.3166737 132.456662,94.5133284 133.41,95.5 C134.363338,96.4866716 135.533326,96.98 136.92,96.98 C138.306674,96.98 139.476662,96.4866716 140.43,95.5 C141.383338,94.5133284 141.86,93.3166737 141.86,91.91 C141.86,90.5033263 141.383338,89.3066716 140.43,88.32 C139.476662,87.3333284 138.306674,86.84 136.92,86.84 Z M136.92,99.14 C134.83999,99.14 133.09334,98.4500069 131.68,97.07 C130.26666,95.6899931 129.56,93.9700103 129.56,91.91 C129.56,89.8499897 130.26666,88.1300069 131.68,86.75 C133.09334,85.3699931 134.83999,84.68 136.92,84.68 C139.00001,84.68 140.74666,85.3699931 142.16,86.75 C143.57334,88.1300069 144.28,89.8499897 144.28,91.91 C144.28,93.9700103 143.57334,95.6899931 142.16,97.07 C140.74666,98.4500069 139.00001,99.14 136.92,99.14 Z M158.84,85 L158.84,92.94 C158.84,94.9533434 158.286672,96.5033279 157.18,97.59 C156.073328,98.6766721 154.676675,99.22 152.99,99.22 C151.303325,99.22 149.890006,98.6766721 148.75,97.59 C147.609994,96.5033279 147.04,94.993343 147.04,93.06 L147.04,85 L149.42,85 L149.42,92.74 C149.42,94.0466732 149.736663,95.0833295 150.37,95.85 C151.003336,96.6166705 151.866661,97 152.96,97 C154.053339,97 154.91333,96.6300037 155.54,95.89 C156.16667,95.1499963 156.48,94.1333398 156.48,92.84 L156.48,85 L158.84,85 Z M173.42,86.85 C174.766673,88.0700061 175.44,89.7666558 175.44,91.94 C175.44,94.1133442 174.786673,95.833327 173.48,97.1 C172.173327,98.366673 170.173347,99 167.48,99 L162.84,99 L162.84,85.02 L167.64,85.02 C170.146679,85.02 172.073327,85.6299939 173.42,86.85 Z M173.06,92 C173.06,88.799984 171.226685,87.2 167.56,87.2 L165.2,87.2 L165.2,96.78 L167.82,96.78 C169.513342,96.78 170.809995,96.3766707 171.71,95.57 C172.610004,94.7633293 173.06,93.5733412 173.06,92 Z M85.71,127.78 L80.85,118.08 L80.85,129 L78.49,129 L78.49,115.02 L82.17,115.02 L86.39,123.8 L90.61,115.02 L94.27,115.02 L94.27,129 L91.91,129 L91.91,118.08 L87.03,127.78 L85.71,127.78 Z M98.67,115.02 L101.03,115.02 L101.03,129 L98.67,129 L98.67,115.02 Z M114.77,122.2 L117.13,122.2 L117.13,126.98 C115.809993,128.433341 113.923346,129.16 111.47,129.16 C109.403323,129.16 107.67334,128.480007 106.28,127.12 C104.88666,125.759993 104.19,124.04001 104.19,121.96 C104.19,119.87999 104.899993,118.146674 106.32,116.76 C107.740007,115.373326 109.456657,114.68 111.47,114.68 C113.483343,114.68 115.15666,115.266661 116.49,116.44 L115.23,118.24 C114.683331,117.773331 114.133336,117.450001 113.58,117.27 C113.026664,117.089999 112.383337,117 111.65,117 C110.23666,117 109.050005,117.456662 108.09,118.37 C107.129995,119.283338 106.65,120.483326 106.65,121.97 C106.65,123.456674 107.116662,124.649995 108.05,125.55 C108.983338,126.450004 110.113327,126.9 111.44,126.9 C112.766673,126.9 113.876662,126.613336 114.77,126.04 L114.77,122.2 Z M131.71,119.56 C131.71,121.866678 130.703343,123.319997 128.69,123.92 L132.35,129 L129.35,129 L126.01,124.3 L122.91,124.3 L122.91,129 L120.55,129 L120.55,115.02 L125.75,115.02 C127.883344,115.02 129.409995,115.379996 130.33,116.1 C131.250005,116.820004 131.71,117.973325 131.71,119.56 Z M128.57,121.54 C129.050002,121.126665 129.29,120.463338 129.29,119.55 C129.29,118.636662 129.043336,118.010002 128.55,117.67 C128.056664,117.329998 127.176673,117.16 125.91,117.16 L122.91,117.16 L122.91,122.16 L125.85,122.16 C127.18334,122.16 128.089998,121.953335 128.57,121.54 Z M142.47,115.02 L148.63,129 L146.03,129 L144.61,125.82 L137.91,125.82 L136.55,129 L134.03,129 L140.19,115.02 L142.47,115.02 Z M143.67,123.64 L141.27,118.26 L138.89,123.64 L143.67,123.64 Z M156.73,117.18 L156.73,129 L154.37,129 L154.37,117.18 L150.13,117.18 L150.13,115.02 L160.97,115.02 L160.97,117.18 L156.73,117.18 Z M164.27,115.02 L166.63,115.02 L166.63,129 L164.27,129 L164.27,115.02 Z M177.15,116.84 C175.763326,116.84 174.593338,117.333328 173.64,118.32 C172.686662,119.306672 172.21,120.503326 172.21,121.91 C172.21,123.316674 172.686662,124.513328 173.64,125.5 C174.593338,126.486672 175.763326,126.98 177.15,126.98 C178.536674,126.98 179.706662,126.486672 180.66,125.5 C181.613338,124.513328 182.09,123.316674 182.09,121.91 C182.09,120.503326 181.613338,119.306672 180.66,118.32 C179.706662,117.333328 178.536674,116.84 177.15,116.84 Z M177.15,129.14 C175.06999,129.14 173.32334,128.450007 171.91,127.07 C170.49666,125.689993 169.79,123.97001 169.79,121.91 C169.79,119.84999 170.49666,118.130007 171.91,116.75 C173.32334,115.369993 175.06999,114.68 177.15,114.68 C179.23001,114.68 180.97666,115.369993 182.39,116.75 C183.80334,118.130007 184.51,119.84999 184.51,121.91 C184.51,123.97001 183.80334,125.689993 182.39,127.07 C180.97666,128.450007 179.23001,129.14 177.15,129.14 Z M198.15,125.46 L198.15,115.02 L200.51,115.02 L200.51,129 L197.95,129 L190.03,118.8 L190.03,129 L187.67,129 L187.67,115.02 L190.03,115.02 L198.15,125.46 Z" id="CLOUD-MIGRATION" fill="#38C1E7"></path>
            </g>
        </g>
    </g>
</svg>