<?xml version="1.0" encoding="UTF-8"?>
<svg width="287px" height="191px" viewBox="0 0 287 191" version="1.1" xmlns="http://www.w3.org/2000/svg" xmlns:xlink="http://www.w3.org/1999/xlink">
    <!-- Generator: Sketch 46 (44423) - http://www.bohemiancoding.com/sketch -->
    <title>Group 8</title>
    <desc>Created with Sketch.</desc>
    <defs>
        <radialGradient cx="50%" cy="100%" fx="50%" fy="100%" r="76.3419118%" gradientTransform="translate(0.500000,1.000000),scale(0.654948,1.000000),rotate(180.000000),scale(1.000000,1.098151),translate(-0.500000,-1.000000)" id="radialGradient-1">
            <stop stop-color="#FFFFFF" offset="0%"></stop>
            <stop stop-color="#F5FBFB" offset="100%"></stop>
        </radialGradient>
        <path d="M105.477708,37.2240838 C115.684628,16.9217198 137.637644,0 166.723879,0 C209.202337,0 238.916332,37.9224111 235.093968,75.3962279 C260.111385,80.2798945 279,102.270268 279,128.589346 C279,158.48793 254.633594,182.730525 224.566193,182.730525 L57.842314,182.730525 C23.2457374,182.730525 5.68434189e-14,160.157441 5.68434189e-14,131.974615 C5.68434189e-14,108.4026 16.6937782,85.2421807 40.8276805,81.2140807 C40.8276805,40.6093527 78.2561543,23.6830082 105.477708,37.2240838 Z" id="path-2"></path>
        <filter x="-2.5%" y="-2.7%" width="105.0%" height="107.7%" filterUnits="objectBoundingBox" id="filter-3">
            <feOffset dx="0" dy="2" in="SourceAlpha" result="shadowOffsetOuter1"></feOffset>
            <feGaussianBlur stdDeviation="2" in="shadowOffsetOuter1" result="shadowBlurOuter1"></feGaussianBlur>
            <feColorMatrix values="0 0 0 0 0   0 0 0 0 0   0 0 0 0 0  0 0 0 0.05 0" type="matrix" in="shadowBlurOuter1"></feColorMatrix>
        </filter>
    </defs>
    <g id="Invision/Proto" stroke="none" stroke-width="1" fill="none" fill-rule="evenodd">
        <g id="3a5-CloudVelox" transform="translate(-145.000000, -3105.000000)">
            <g id="Group-8" transform="translate(149.000000, 3107.000000)">
                <g id="Clip-2">
                    <use fill="black" fill-opacity="1" filter="url(#filter-3)" xlink:href="#path-2"></use>
                    <use fill="url(#radialGradient-1)" fill-rule="evenodd" xlink:href="#path-2"></use>
                </g>
                <path d="M110.8,96.86 C111.613337,96.86 112.31333,96.7233347 112.9,96.45 C113.48667,96.1766653 114.099997,95.740003 114.74,95.14 L116.26,96.7 C114.779993,98.3400082 112.983344,99.16 110.87,99.16 C108.756656,99.16 107.00334,98.4800068 105.61,97.12 C104.21666,95.7599932 103.52,94.0400104 103.52,91.96 C103.52,89.8799896 104.229993,88.1466736 105.65,86.76 C107.070007,85.3733264 108.863323,84.68 111.03,84.68 C113.196678,84.68 115.006659,85.479992 116.46,87.08 L114.96,88.72 C114.29333,88.0799968 113.663336,87.6333346 113.07,87.38 C112.476664,87.1266654 111.780004,87 110.98,87 C109.56666,87 108.380005,87.4566621 107.42,88.37 C106.459995,89.2833379 105.98,90.4499929 105.98,91.87 C105.98,93.2900071 106.456662,94.4766619 107.41,95.43 C108.363338,96.3833381 109.493327,96.86 110.8,96.86 Z M119.26,99 L119.26,85.02 L121.62,85.02 L121.62,96.76 L128,96.76 L128,99 L119.26,99 Z M136.92,86.84 C135.533326,86.84 134.363338,87.3333284 133.41,88.32 C132.456662,89.3066716 131.98,90.5033263 131.98,91.91 C131.98,93.3166737 132.456662,94.5133284 133.41,95.5 C134.363338,96.4866716 135.533326,96.98 136.92,96.98 C138.306674,96.98 139.476662,96.4866716 140.43,95.5 C141.383338,94.5133284 141.86,93.3166737 141.86,91.91 C141.86,90.5033263 141.383338,89.3066716 140.43,88.32 C139.476662,87.3333284 138.306674,86.84 136.92,86.84 Z M136.92,99.14 C134.83999,99.14 133.09334,98.4500069 131.68,97.07 C130.26666,95.6899931 129.56,93.9700103 129.56,91.91 C129.56,89.8499897 130.26666,88.1300069 131.68,86.75 C133.09334,85.3699931 134.83999,84.68 136.92,84.68 C139.00001,84.68 140.74666,85.3699931 142.16,86.75 C143.57334,88.1300069 144.28,89.8499897 144.28,91.91 C144.28,93.9700103 143.57334,95.6899931 142.16,97.07 C140.74666,98.4500069 139.00001,99.14 136.92,99.14 Z M158.84,85 L158.84,92.94 C158.84,94.9533434 158.286672,96.5033279 157.18,97.59 C156.073328,98.6766721 154.676675,99.22 152.99,99.22 C151.303325,99.22 149.890006,98.6766721 148.75,97.59 C147.609994,96.5033279 147.04,94.993343 147.04,93.06 L147.04,85 L149.42,85 L149.42,92.74 C149.42,94.0466732 149.736664,95.0833295 150.37,95.85 C151.003337,96.6166705 151.866661,97 152.96,97 C154.053339,97 154.91333,96.6300037 155.54,95.89 C156.16667,95.1499963 156.48,94.1333398 156.48,92.84 L156.48,85 L158.84,85 Z M173.42,86.85 C174.766673,88.0700061 175.44,89.7666558 175.44,91.94 C175.44,94.1133442 174.786673,95.833327 173.48,97.1 C172.173327,98.366673 170.173347,99 167.48,99 L162.84,99 L162.84,85.02 L167.64,85.02 C170.146679,85.02 172.073327,85.6299939 173.42,86.85 Z M173.06,92 C173.06,88.799984 171.226685,87.2 167.56,87.2 L165.2,87.2 L165.2,96.78 L167.82,96.78 C169.513342,96.78 170.809996,96.3766707 171.71,95.57 C172.610005,94.7633293 173.06,93.5733412 173.06,92 Z M93.75,119.56 C93.75,121.866678 92.7433434,123.319997 90.73,123.92 L94.39,129 L91.39,129 L88.05,124.3 L84.95,124.3 L84.95,129 L82.59,129 L82.59,115.02 L87.79,115.02 C89.923344,115.02 91.4499954,115.379996 92.37,116.1 C93.2900046,116.820004 93.75,117.973325 93.75,119.56 Z M90.61,121.54 C91.0900024,121.126665 91.33,120.463338 91.33,119.55 C91.33,118.636662 91.0833358,118.010002 90.59,117.67 C90.0966642,117.329998 89.216673,117.16 87.95,117.16 L84.95,117.16 L84.95,122.16 L87.89,122.16 C89.22334,122.16 90.1299976,121.953335 90.61,121.54 Z M107.69,115.02 L107.69,117.24 L100.23,117.24 L100.23,120.94 L106.93,120.94 L106.93,123.04 L100.23,123.04 L100.23,126.78 L107.93,126.78 L107.93,129 L97.87,129 L97.87,115.02 L107.69,115.02 Z M117.57,126.86 C118.383337,126.86 119.08333,126.723335 119.67,126.45 C120.25667,126.176665 120.869997,125.740003 121.51,125.14 L123.03,126.7 C121.549993,128.340008 119.753344,129.16 117.64,129.16 C115.526656,129.16 113.77334,128.480007 112.38,127.12 C110.98666,125.759993 110.29,124.04001 110.29,121.96 C110.29,119.87999 110.999993,118.146674 112.42,116.76 C113.840007,115.373326 115.633323,114.68 117.8,114.68 C119.966678,114.68 121.776659,115.479992 123.23,117.08 L121.73,118.72 C121.06333,118.079997 120.433336,117.633335 119.84,117.38 C119.246664,117.126665 118.550004,117 117.75,117 C116.33666,117 115.150005,117.456662 114.19,118.37 C113.229995,119.283338 112.75,120.449993 112.75,121.87 C112.75,123.290007 113.226662,124.476662 114.18,125.43 C115.133338,126.383338 116.263327,126.86 117.57,126.86 Z M132.15,116.84 C130.763326,116.84 129.593338,117.333328 128.64,118.32 C127.686662,119.306672 127.21,120.503326 127.21,121.91 C127.21,123.316674 127.686662,124.513328 128.64,125.5 C129.593338,126.486672 130.763326,126.98 132.15,126.98 C133.536674,126.98 134.706662,126.486672 135.66,125.5 C136.613338,124.513328 137.09,123.316674 137.09,121.91 C137.09,120.503326 136.613338,119.306672 135.66,118.32 C134.706662,117.333328 133.536674,116.84 132.15,116.84 Z M132.15,129.14 C130.06999,129.14 128.32334,128.450007 126.91,127.07 C125.49666,125.689993 124.79,123.97001 124.79,121.91 C124.79,119.84999 125.49666,118.130007 126.91,116.75 C128.32334,115.369993 130.06999,114.68 132.15,114.68 C134.23001,114.68 135.97666,115.369993 137.39,116.75 C138.80334,118.130007 139.51,119.84999 139.51,121.91 C139.51,123.97001 138.80334,125.689993 137.39,127.07 C135.97666,128.450007 134.23001,129.14 132.15,129.14 Z M143.91,115.02 L148.23,125.58 L152.49,115.02 L155.07,115.02 L149.45,129 L146.91,129 L141.27,115.02 L143.91,115.02 Z M167.89,115.02 L167.89,117.24 L160.43,117.24 L160.43,120.94 L167.13,120.94 L167.13,123.04 L160.43,123.04 L160.43,126.78 L168.13,126.78 L168.13,129 L158.07,129 L158.07,115.02 L167.89,115.02 Z M182.89,119.56 C182.89,121.866678 181.883343,123.319997 179.87,123.92 L183.53,129 L180.53,129 L177.19,124.3 L174.09,124.3 L174.09,129 L171.73,129 L171.73,115.02 L176.93,115.02 C179.063344,115.02 180.589995,115.379996 181.51,116.1 C182.430005,116.820004 182.89,117.973325 182.89,119.56 Z M179.75,121.54 C180.230002,121.126665 180.47,120.463338 180.47,119.55 C180.47,118.636662 180.223336,118.010002 179.73,117.67 C179.236664,117.329998 178.356673,117.16 177.09,117.16 L174.09,117.16 L174.09,122.16 L177.03,122.16 C178.36334,122.16 179.269998,121.953335 179.75,121.54 Z M191.71,121.38 L195.53,115.02 L198.11,115.02 L192.87,123.48 L192.87,129 L190.51,129 L190.51,123.48 L185.31,115.02 L187.89,115.02 L191.71,121.38 Z" id="CLOUD-RECOVERY" fill="#38C1E7"></path>
            </g>
        </g>
    </g>
</svg>