<?xml version="1.0" encoding="UTF-8"?>
<svg width="50px" height="70px" viewBox="0 0 50 70" version="1.1" xmlns="http://www.w3.org/2000/svg" xmlns:xlink="http://www.w3.org/1999/xlink">
    <!-- Generator: Sketch 46 (44423) - http://www.bohemiancoding.com/sketch -->
    <title>Group 11</title>
    <desc>Created with Sketch.</desc>
    <defs></defs>
    <g id="Invision/Proto" stroke="none" stroke-width="1" fill="none" fill-rule="evenodd">
        <g id="3a5-CloudVelox" transform="translate(-378.000000, -2996.000000)" fill-rule="nonzero">
            <g id="Group-12" transform="translate(378.000000, 2996.000000)">
                <g id="Group-11">
                    <path d="M48.2758621,50.1586207 L48.2758621,41.5655172 L42.6517241,40.6241379 C42.2446474,39.1857091 41.6694132,37.8002859 40.937931,36.4965517 L44.2689655,31.837931 L38.1862069,25.7551724 L33.4551724,28.9655172 C32.1508534,28.2352391 30.7655751,27.6600651 29.3275862,27.2517241 L28.3862069,21.7241379 L19.7689655,21.7241379 L18.8275862,27.3482759 C17.3895974,27.7566168 16.0043191,28.3317909 14.7,29.062069 L10.0413793,25.7310345 L3.95862069,31.8137931 L7.24137931,36.4965517 C6.50989714,37.8002859 5.93466293,39.1857091 5.52758621,40.6241379 L0,41.5655172 L0,50.1586207 L5.62413793,51.1 C6.00049314,52.5341948 6.54325906,53.9194631 7.24137931,55.2275862 L3.91034483,59.8862069 L9.99310345,65.9689655 L14.7,62.7586207 C16.0039302,63.4896995 17.3893047,64.0649135 18.8275862,64.4724138 L19.7689655,70 L28.362069,70 L29.3034483,64.3758621 C30.7457295,64.0006576 32.1391228,63.4578824 33.4551724,62.7586207 L38.1137931,66.0896552 L44.1965517,60.0068966 L40.8655172,55.3482759 C41.5969994,54.0445417 42.1722336,52.6591185 42.5793103,51.2206897 L48.2758621,50.1586207 Z" id="Shape" fill="#4FD684"></path>
                    <circle id="Oval" fill="#2CBC65" cx="24.0655172" cy="45.862069" r="14.4827586"></circle>
                    <circle id="Oval" fill="#4FD684" cx="24.0655172" cy="45.862069" r="9.65517241"></circle>
                    <circle id="Oval" fill="#2CBC65" cx="24.0655172" cy="45.862069" r="3.62068966"></circle>
                    <path d="M48.1310345,17.9344828 L49.4827586,13.8551724 L47.0689655,12.5275862 C47.0998097,11.7832935 47.0430992,11.0379544 46.9,10.3068966 L49.3137931,8.61724138 L47.1896552,4.82758621 L44.462069,5.67241379 C43.9579169,5.11768355 43.3908794,4.62355085 42.7724138,4.2 L43.2068966,1.37586207 L39.1275862,0 L37.8,2.4137931 C37.0557307,2.3842681 36.3105447,2.44096704 35.5793103,2.58275862 L33.8896552,0.168965517 L30.0517241,2.1 L30.8965517,4.82758621 C30.3408671,5.33080282 29.8466316,5.89795836 29.4241379,6.51724138 L26.5517241,6.20344828 L25.2,10.2827586 L27.6137931,11.6103448 C27.5829489,12.3546375 27.6396595,13.0999766 27.7827586,13.8310345 L25.3689655,15.5206897 L27.5172414,19.3103448 L30.2448276,18.4655172 C30.7489797,19.0202475 31.3160172,19.5143802 31.9344828,19.937931 L31.3793103,22.8344828 L35.4586207,24.1862069 L36.7862069,21.7724138 C37.5385113,21.8038162 38.2919068,21.747109 39.0310345,21.6034483 L40.7206897,24.0172414 L44.5586207,22.0862069 L43.7137931,19.3586207 C44.2694777,18.8554041 44.7637133,18.2882485 45.1862069,17.6689655 L48.1310345,17.9344828 Z" id="Shape" fill="#4FD684"></path>
                    <circle id="Oval" fill="#2CBC65" transform="translate(37.350668, 12.069543) rotate(-71.570000) translate(-37.350668, -12.069543) " cx="37.3506678" cy="12.069543" r="7.24137931"></circle>
                    <circle id="Oval" fill="#4FD684" transform="translate(37.350668, 12.069543) rotate(-71.570000) translate(-37.350668, -12.069543) " cx="37.3506678" cy="12.069543" r="4.82758621"></circle>
                    <circle id="Oval" fill="#2CBC65" transform="translate(37.350668, 12.069543) rotate(-71.570000) translate(-37.350668, -12.069543) " cx="37.3506678" cy="12.069543" r="1.81034483"></circle>
                </g>
            </g>
        </g>
    </g>
</svg>