<?xml version="1.0" encoding="UTF-8"?>
<svg width="195px" height="73px" viewBox="0 0 195 73" version="1.1" xmlns="http://www.w3.org/2000/svg" xmlns:xlink="http://www.w3.org/1999/xlink">
    <!-- Generator: Sketch 46.1 (44463) - http://www.bohemiancoding.com/sketch -->
    <title>zoetis</title>
    <desc>Created with Sketch.</desc>
    <defs></defs>
    <g id="Invision/Proto" stroke="none" stroke-width="1" fill="none" fill-rule="evenodd">
        <g id="3a3-Zoetis" transform="translate(-165.000000, -245.000000)" fill="#3DACB4">
            <g id="zoetis" transform="translate(165.000000, 245.000000)">
                <path d="M38.739613,17.3125935 L38.013825,23.1666325 L13.8252309,48.5198505 C13.8252309,48.5198505 23.5284416,47.8472218 38.3984167,59.1121243 C53.2683917,70.3770268 69.7228412,63.7326492 77.2703856,56.5230465 L82.3433074,61.7055417 C82.3433074,61.7055417 60.3787275,86.2635391 28.3865562,61.9311978 C28.3865562,61.9311978 20.9523823,56.2990177 15.8832576,56.2990177 C10.8141328,56.2990177 0,56.1867322 0,56.1867322 L0.901539364,51.3383815 L25.3467087,25.1997068 L7.0729072,25.1997068 L9.01268143,17.457968 L38.3013195,17.2778771" id="Fill-1"></path>
                <path d="M58.4243073,16.6106729 C58.4243073,16.6106729 42.3316669,19.5941064 39.7100425,37.6758833 C37.0878757,55.7571177 56.6158041,61.8140302 67.3746078,53.7679812 C78.1328691,45.7219323 82.2011875,29.7198798 72.9796657,19.9559156 C72.9796657,19.9559156 68.4594927,14.9833456 58.4243073,16.6106729 Z M63.0817182,23.5295265 C67.905659,25.0836241 69.9143234,32.2454919 67.5682598,39.5256121 C65.2221962,46.8062747 59.4104677,51.4479548 54.5865269,49.8938572 C49.7631286,48.3397596 47.7544642,41.1778918 50.1005278,33.8972291 C52.446049,26.6171089 58.2583199,21.9748864 63.0817182,23.5295265 L63.0817182,23.5295265 Z" id="Fill-4"></path>
                <path d="M106.318179,23.674901 C106.318179,23.674901 96.7825832,20.1663832 92.824923,33.0304061 C92.824923,33.0304061 110.006788,34.9191907 108.837282,26.7331916 C108.837282,26.7331916 108.4771,24.3041343 106.318179,23.674901 Z M117.113326,29.7920246 C115.043909,42.4759566 91.925011,39.8668084 91.925011,39.8668084 C91.2057323,41.66609 92.0150564,44.2746958 92.0150564,44.2746958 C98.4023164,55.6996188 111.625979,47.1534379 111.625979,47.1534379 L112.435303,54.350022 C109.467058,57.1387187 80.2304941,62.716112 82.7495968,40.0468993 C85.2681572,17.3776866 104.159258,16.1181352 104.159258,16.1181352 C107.487685,15.6684504 119.182202,17.1075502 117.113326,29.7920246 L117.113326,29.7920246 Z" id="Fill-5"></path>
                <path d="M122.981469,17.8219469 C123.165357,17.8181498 121.658452,24.6572643 121.658452,24.6572643 L126.95269,24.6572643 L123.402947,43.9975077 C123.402947,43.9975077 120.459112,55.9919953 129.509764,57.0823046 C138.559874,58.172614 138.559874,56.1010262 138.559874,56.1010262 L138.777936,49.0134731 C138.777936,49.0134731 131.254259,51.44687 132.344568,44.3593168 C133.434878,37.2712212 136.161193,24.6572643 136.161193,24.6572643 L144.853291,24.6572643 L146.629248,17.3912476 L137.578596,17.5002786 L139.541695,7.14125495 C139.541695,7.14125495 129.291702,10.0850902 129.618795,10.0850902 C129.945888,10.0850902 128.527943,17.6093095 128.527943,17.6093095 L122.981469,17.8219469" id="Fill-6"></path>
                <path d="M165.01208,9.10109955 C163.216596,11.7606949 159.812227,12.6009383 157.408664,10.9784929 C155.005102,9.35550506 154.512564,5.88387333 156.308591,3.22427797 C158.104618,0.564140155 161.508445,-0.276103211 163.912007,1.34688462 C166.31557,2.96933001 166.808107,6.44096174 165.01208,9.10109955" id="Fill-8"></path>
                <polyline id="Fill-10" points="154.094883 17.4145726 146.766486 56.1183844 156.244583 56.1183844 163.48402 17.4482041 154.094883 17.4145726"></polyline>
                <path d="M191.770224,44.5920246 C191.680179,45.5814397 191.488154,46.1954845 191.488154,46.1954845 C186.649025,63.1657968 163.563217,55.2173875 163.563217,55.2173875 L166.33564,48.5849436 C167.797522,49.3166984 171.628251,50.1455505 171.628251,50.1455505 C181.83756,51.9535112 184.008415,43.994253 177.549553,39.7843571 C176.865533,39.3384694 176.086043,38.9338074 175.207286,38.5882715 C174.41966,38.2785369 173.705806,37.9308313 173.049993,37.5576308 C167.793183,33.9205542 168.091526,29.034775 168.407228,27.2740067 C168.483712,26.8503592 168.560196,26.6046328 168.560196,26.6046328 C173.013107,11.0869814 194.257323,18.3557103 194.257323,18.3557103 L191.706216,24.4196745 C190.360959,23.750843 186.835625,22.9930509 186.835625,22.9930509 C178.463568,21.5197772 175.968876,27.1389386 179.730714,31.1041929 C180.637678,32.0594341 181.903196,32.9202903 183.542457,33.5609148 C190.478126,36.2720422 191.621053,41.9888433 191.808195,43.9443483 C191.808195,43.9443483 191.822299,44.3793872 191.770224,44.5920246" id="Fill-11"></path>
            </g>
        </g>
    </g>
</svg>