<?xml version="1.0" encoding="UTF-8"?>
<svg width="187px" height="100px" viewBox="0 0 187 100" version="1.1" xmlns="http://www.w3.org/2000/svg" xmlns:xlink="http://www.w3.org/1999/xlink">
    <!-- Generator: Sketch 46 (44423) - http://www.bohemiancoding.com/sketch -->
    <title>cloudvelox_4</title>
    <desc>Created with Sketch.</desc>
    <defs></defs>
    <g id="Invision/Proto" stroke="none" stroke-width="1" fill="none" fill-rule="evenodd">
        <g id="3a5-CloudVelox" transform="translate(-304.000000, -486.000000)" fill-rule="nonzero" fill="#3DACB4">
            <g id="cloudvelox_4" transform="translate(304.000000, 486.000000)">
                <path d="M0.328947368,90.0657895 L0.328947368,90.0657895 C0.263157895,84.8684211 4.34210526,80.6578947 9.47368421,80.5263158 L9.86842105,80.5263158 C13.3552632,80.5263158 15.3947368,81.7105263 17.0394737,83.3552632 L14.4736842,86.3157895 C13.0263158,85.0657895 11.6447368,84.2763158 9.80263158,84.2763158 C6.71052632,84.2763158 4.47368421,86.8421053 4.47368421,90 L4.47368421,90.0657895 C4.47368421,93.2236842 6.64473684,95.8552632 9.80263158,95.8552632 C11.9078947,95.8552632 13.1578947,95 14.6052632,93.6842105 L17.1710526,96.25 C15.3289474,98.4210526 12.5,99.6710526 9.67105263,99.5394737 C4.53947368,99.6052632 0.394736842,95.5263158 0.263157895,90.3947368 C0.328947368,90.2631579 0.328947368,90.1973684 0.328947368,90.0657895" id="Shape"></path>
                <polygon id="Shape" points="20.4605263 80.9210526 24.4736842 80.9210526 24.4736842 95.5263158 33.6184211 95.5263158 33.6184211 99.2105263 20.4605263 99.2105263"></polygon>
                <path d="M50.0657895,90.0657895 L50.0657895,90.0657895 C50.0657895,86.9078947 47.7631579,84.2763158 44.5394737,84.2763158 C41.3157895,84.2763158 39.0131579,86.8421053 39.0131579,90 L39.0131579,90.0657895 C39.0131579,93.2236842 41.3157895,95.8552632 44.5394737,95.8552632 C47.7631579,95.8552632 50.0657895,93.2236842 50.0657895,90.0657895 M34.8026316,90.0657895 L34.8026316,90.0657895 C34.8026316,84.8026316 38.9473684,80.5263158 44.6052632,80.5263158 C50.2631579,80.5263158 54.3421053,84.7368421 54.3421053,89.9342105 L54.3421053,90 C54.3421053,95.1973684 50.1973684,99.4736842 44.5394737,99.4736842 C38.8815789,99.4736842 34.8026316,95.3289474 34.8026316,90.0657895" id="Shape"></path>
                <path d="M57.5657895,91.3815789 L57.5657895,80.9210526 L61.5789474,80.9210526 L61.5789474,91.3157895 C61.5789474,94.2763158 63.0921053,95.8552632 65.5263158,95.8552632 C67.9605263,95.8552632 69.4736842,94.3421053 69.4736842,91.4473684 L69.4736842,80.9210526 L73.4868421,80.9210526 L73.4868421,91.25 C73.4868421,96.7763158 70.3947368,99.5394737 65.4605263,99.5394737 C60.5263158,99.5394737 57.5657895,96.7763158 57.5657895,91.3815789" id="Shape"></path>
                <path d="M84.8026316,95.5921053 C88.0921053,95.5921053 90.3289474,93.3552632 90.3289474,90.1315789 L90.3289474,90.1315789 C90.3289474,86.9078947 88.0921053,84.6052632 84.8026316,84.6052632 L81.7105263,84.6052632 L81.7105263,95.6578947 L84.8026316,95.5921053 L84.8026316,95.5921053 Z M77.6973684,80.9210526 L84.8684211,80.9210526 C90.6578947,80.9210526 94.6052632,84.8684211 94.6052632,90.0657895 L94.6052632,90.1315789 C94.6052632,95.2631579 90.6578947,99.2763158 84.8684211,99.2763158 L77.6973684,99.2763158 L77.6973684,80.9210526 Z" id="Shape"></path>
                <polygon id="Shape" points="96.9736842 80.9210526 99.2763158 80.9210526 105.789474 96.7105263 112.302632 80.9210526 114.539474 80.9210526 106.644737 99.3421053 104.868421 99.3421053"></polygon>
                <polygon id="Shape" points="118.157895 80.9210526 131.381579 80.9210526 131.381579 82.7631579 120.263158 82.7631579 120.263158 89.0131579 130.263158 89.0131579 130.263158 90.9210526 120.263158 90.9210526 120.263158 97.3684211 131.513158 97.3684211 131.513158 99.2105263 118.157895 99.2105263"></polygon>
                <polygon id="Shape" points="135.723684 80.9210526 137.763158 80.9210526 137.763158 97.3026316 148.092105 97.3026316 148.092105 99.2105263 135.723684 99.2105263"></polygon>
                <path d="M166.578947,90.0657895 L166.578947,90.0657895 C166.578947,85.8552632 163.552632,82.4342105 159.407895,82.4342105 C155.263158,82.4342105 152.236842,85.7894737 152.236842,89.9342105 L152.236842,90 C152.236842,94.1447368 155.263158,97.5657895 159.407895,97.5657895 C163.552632,97.5657895 166.578947,94.2763158 166.578947,90.0657895 M150.065789,90.0657895 L150.065789,90.0657895 C150.065789,84.9342105 153.881579,80.5263158 159.407895,80.5263158 C165,80.5263158 168.75,84.8684211 168.75,89.9342105 L168.75,90 C168.75,95.0657895 164.934211,99.4736842 159.407895,99.4736842 C153.815789,99.5394737 150.065789,95.1973684 150.065789,90.0657895" id="Shape"></path>
                <polygon id="Shape" points="177.434211 89.8684211 170.657895 80.9210526 173.092105 80.9210526 178.75 88.3552632 184.342105 80.9210526 186.710526 80.9210526 179.934211 89.8684211 186.973684 99.2105263 184.539474 99.2105263 178.684211 91.3157895 172.828947 99.2105263 170.394737 99.2105263"></polygon>
                <path d="M125.723684,45.3947368 C124.605263,46.5131579 122.828947,46.5131579 121.776316,45.3947368 C120.657895,44.2763158 120.657895,42.5 121.776316,41.4473684 C122.894737,40.3289474 124.671053,40.3289474 125.723684,41.4473684 C126.776316,42.5 126.776316,44.2763158 125.723684,45.3947368 C125.723684,45.3947368 125.723684,45.3947368 125.723684,45.3947368 L125.723684,45.3947368" id="Shape"></path>
                <path d="M118.947368,38.6184211 C117.828947,39.7368421 116.052632,39.7368421 115,38.6184211 C113.881579,37.5 113.881579,35.7236842 115,34.6710526 C116.118421,33.5526316 117.894737,33.5526316 118.947368,34.6710526 C120.065789,35.7894737 120.065789,37.5657895 118.947368,38.6184211 C118.947368,38.6184211 118.947368,38.6184211 118.947368,38.6184211 L118.947368,38.6184211" id="Shape"></path>
                <path d="M112.171053,31.8421053 C111.052632,32.9605263 109.276316,32.9605263 108.223684,31.8421053 C107.105263,30.7236842 107.105263,28.9473684 108.223684,27.8947368 C109.342105,26.7763158 111.118421,26.7763158 112.171053,27.8947368 C113.289474,29.0131579 113.289474,30.7894737 112.171053,31.8421053 C112.171053,31.8421053 112.171053,31.8421053 112.171053,31.8421053 L112.171053,31.8421053" id="Shape"></path>
                <path d="M132.5,38.6184211 C131.381579,39.7368421 129.605263,39.7368421 128.552632,38.6184211 C127.434211,37.5 127.434211,35.7236842 128.552632,34.6710526 C129.671053,33.5526316 131.447368,33.5526316 132.5,34.6710526 C133.552632,35.7894737 133.552632,37.5657895 132.5,38.6184211 C132.5,38.6184211 132.5,38.6184211 132.5,38.6184211 L132.5,38.6184211" id="Shape"></path>
                <path d="M125.723684,31.8421053 C124.605263,32.9605263 122.828947,32.9605263 121.776316,31.8421053 C120.657895,30.7236842 120.657895,28.9473684 121.776316,27.8947368 C122.894737,26.7763158 124.671053,26.7763158 125.723684,27.8947368 C126.776316,29.0131579 126.776316,30.7894737 125.723684,31.8421053 C125.723684,31.8421053 125.723684,31.8421053 125.723684,31.8421053 L125.723684,31.8421053" id="Shape"></path>
                <path d="M118.947368,25.1315789 C117.828947,26.25 116.052632,26.25 115,25.1315789 C113.881579,24.0131579 113.881579,22.2368421 115,21.1842105 C116.118421,20.0657895 117.894737,20.0657895 118.947368,21.1842105 C120.065789,22.2368421 120.065789,24.0131579 118.947368,25.1315789 C118.947368,25.1315789 118.947368,25.1315789 118.947368,25.1315789 L118.947368,25.1315789" id="Shape"></path>
                <path d="M139.210526,31.8421053 C138.092105,32.9605263 136.315789,32.9605263 135.263158,31.8421053 C134.144737,30.7236842 134.144737,28.9473684 135.263158,27.8947368 C136.381579,26.7763158 138.157895,26.7763158 139.210526,27.8947368 C140.328947,29.0131579 140.328947,30.7894737 139.210526,31.8421053 C139.210526,31.8421053 139.210526,31.8421053 139.210526,31.8421053 L139.210526,31.8421053" id="Shape"></path>
                <path d="M132.5,25.1315789 C131.381579,26.25 129.605263,26.25 128.552632,25.1315789 C127.434211,24.0131579 127.434211,22.2368421 128.552632,21.1842105 C129.671053,20.0657895 131.447368,20.0657895 132.5,21.1842105 C133.552632,22.2368421 133.552632,24.0131579 132.5,25.1315789 C132.5,25.1315789 132.5,25.1315789 132.5,25.1315789 L132.5,25.1315789" id="Shape"></path>
                <path d="M125.723684,18.3552632 C124.605263,19.4736842 122.828947,19.4736842 121.776316,18.3552632 C120.657895,17.2368421 120.657895,15.4605263 121.776316,14.4078947 C122.894737,13.2894737 124.671053,13.2894737 125.723684,14.4078947 C126.776316,15.4605263 126.776316,17.2368421 125.723684,18.3552632 C125.723684,18.3552632 125.723684,18.3552632 125.723684,18.3552632 L125.723684,18.3552632" id="Shape"></path>
                <path d="M105.394737,65.7236842 C104.276316,66.8421053 102.5,66.8421053 101.447368,65.7236842 C100.328947,64.6052632 100.328947,62.8289474 101.447368,61.7763158 C102.565789,60.6578947 104.342105,60.6578947 105.394737,61.7763158 C106.513158,62.8289474 106.513158,64.6052632 105.394737,65.7236842 C105.460526,65.7236842 105.394737,65.7236842 105.394737,65.7236842 L105.394737,65.7236842" id="Shape"></path>
                <path d="M98.6842105,58.9473684 C97.5657895,60.0657895 95.7894737,60.0657895 94.7368421,58.9473684 C93.6184211,57.8289474 93.6184211,56.0526316 94.7368421,55 C95.8552632,53.8815789 97.6315789,53.8815789 98.6842105,55 C99.7368421,56.0526316 99.7368421,57.8289474 98.6842105,58.9473684 C98.6842105,58.8815789 98.6842105,58.8815789 98.6842105,58.9473684 L98.6842105,58.9473684" id="Shape"></path>
                <path d="M91.9078947,52.1710526 C90.7894737,53.2894737 89.0131579,53.2894737 87.9605263,52.1710526 C86.8421053,51.0526316 86.8421053,49.2763158 87.9605263,48.2236842 C89.0789474,47.1052632 90.8552632,47.1052632 91.9078947,48.2236842 C93.0263158,49.2763158 93.0263158,51.0526316 91.9078947,52.1710526 C91.9078947,52.1710526 91.9078947,52.1710526 91.9078947,52.1710526 L91.9078947,52.1710526" id="Shape"></path>
                <path d="M85.1315789,45.3947368 C84.0131579,46.5131579 82.2368421,46.5131579 81.1842105,45.3947368 C80.0657895,44.2763158 80.0657895,42.5 81.1842105,41.4473684 C82.3026316,40.3289474 84.0789474,40.3289474 85.1315789,41.4473684 C86.25,42.5 86.25,44.2763158 85.1315789,45.3947368 C85.1315789,45.3947368 85.1315789,45.3947368 85.1315789,45.3947368 L85.1315789,45.3947368" id="Shape"></path>
                <path d="M78.3552632,38.6184211 C77.2368421,39.7368421 75.4605263,39.7368421 74.4078947,38.6184211 C73.2894737,37.5 73.2894737,35.7236842 74.4078947,34.6710526 C75.5263158,33.5526316 77.3026316,33.5526316 78.3552632,34.6710526 C79.4736842,35.7894737 79.4736842,37.5657895 78.3552632,38.6184211 C78.3552632,38.6184211 78.3552632,38.6184211 78.3552632,38.6184211 L78.3552632,38.6184211" id="Shape"></path>
                <path d="M71.6447368,31.8421053 C70.5263158,32.9605263 68.75,32.9605263 67.6973684,31.8421053 C66.5789474,30.7236842 66.5789474,28.9473684 67.6973684,27.8947368 C68.8157895,26.7763158 70.5921053,26.7763158 71.6447368,27.8947368 C72.6973684,29.0131579 72.6973684,30.7894737 71.6447368,31.8421053 C71.6447368,31.8421053 71.6447368,31.8421053 71.6447368,31.8421053 L71.6447368,31.8421053" id="Shape"></path>
                <path d="M64.8684211,25.1315789 C63.75,26.25 61.9736842,26.25 60.9210526,25.1315789 C59.8026316,24.0131579 59.8026316,22.2368421 60.9210526,21.1842105 C62.0394737,20.0657895 63.8157895,20.0657895 64.8684211,21.1842105 C65.9868421,22.2368421 65.9868421,24.0131579 64.8684211,25.1315789 C64.8684211,25.1315789 64.8684211,25.1315789 64.8684211,25.1315789 L64.8684211,25.1315789" id="Shape"></path>
                <path d="M58.0921053,18.3552632 C56.9736842,19.4736842 55.1973684,19.4736842 54.1447368,18.3552632 C53.0263158,17.2368421 53.0263158,15.4605263 54.1447368,14.4078947 C55.2631579,13.2894737 57.0394737,13.2894737 58.0921053,14.4078947 C59.2105263,15.4605263 59.2105263,17.2368421 58.0921053,18.3552632 C58.0921053,18.3552632 58.0921053,18.3552632 58.0921053,18.3552632 L58.0921053,18.3552632" id="Shape"></path>
                <path d="M51.3157895,11.5789474 C50.1973684,12.6973684 48.4210526,12.6973684 47.3684211,11.5789474 C46.25,10.4605263 46.25,8.68421053 47.3684211,7.63157895 C48.4868421,6.51315789 50.2631579,6.51315789 51.3157895,7.63157895 C52.4342105,8.68421053 52.4342105,10.4605263 51.3157895,11.5789474 C51.3157895,11.5789474 51.3157895,11.5789474 51.3157895,11.5789474 L51.3157895,11.5789474" id="Shape"></path>
                <path d="M44.6052632,4.80263158 C43.4868421,5.92105263 41.7105263,5.92105263 40.6578947,4.80263158 C39.5394737,3.68421053 39.5394737,1.90789474 40.6578947,0.855263158 C41.7763158,-0.197368421 43.5526316,-0.263157895 44.6052632,0.855263158 C44.6052632,0.855263158 44.6052632,0.855263158 44.6052632,0.855263158 C45.6578947,1.97368421 45.6578947,3.75 44.6052632,4.80263158 L44.6052632,4.80263158" id="Shape"></path>
                <path d="M112.171053,58.9473684 C111.052632,60.0657895 109.276316,60.0657895 108.223684,58.9473684 C107.105263,57.8289474 107.105263,56.0526316 108.223684,55 C109.342105,53.8815789 111.118421,53.8815789 112.171053,55 C113.289474,56.0526316 113.289474,57.8289474 112.171053,58.9473684 C112.171053,58.8815789 112.171053,58.8815789 112.171053,58.9473684 L112.171053,58.9473684" id="Shape"></path>
                <path d="M105.394737,52.1710526 C104.276316,53.2894737 102.5,53.2894737 101.447368,52.1710526 C100.328947,51.0526316 100.328947,49.2763158 101.447368,48.2236842 C102.565789,47.1052632 104.342105,47.1052632 105.394737,48.2236842 C106.513158,49.2763158 106.513158,51.0526316 105.394737,52.1710526 C105.460526,52.1710526 105.394737,52.1710526 105.394737,52.1710526 L105.394737,52.1710526" id="Shape"></path>
                <path d="M78.1578947,51.9078947 C77.1710526,52.8947368 75.6578947,52.8947368 74.6710526,51.9078947 C73.6842105,50.9210526 73.6842105,49.4078947 74.6710526,48.4210526 C75.6578947,47.4342105 77.1710526,47.4342105 78.1578947,48.4210526 C79.0789474,49.4078947 79.0789474,50.9210526 78.1578947,51.9078947 C78.1578947,51.9078947 78.1578947,51.9078947 78.1578947,51.9078947 L78.1578947,51.9078947" id="Shape"></path>
                <path d="M98.6842105,45.3947368 C97.5657895,46.5131579 95.7894737,46.5131579 94.7368421,45.3947368 C93.6184211,44.2763158 93.6184211,42.5 94.7368421,41.4473684 C95.8552632,40.3289474 97.6315789,40.3289474 98.6842105,41.4473684 C99.7368421,42.5 99.7368421,44.2763158 98.6842105,45.3947368 C98.6842105,45.3947368 98.6842105,45.3947368 98.6842105,45.3947368 L98.6842105,45.3947368" id="Shape"></path>
                <path d="M91.9078947,38.6184211 C90.7894737,39.7368421 89.0131579,39.7368421 87.9605263,38.6184211 C86.8421053,37.5 86.8421053,35.7236842 87.9605263,34.6710526 C89.0789474,33.5526316 90.8552632,33.5526316 91.9078947,34.6710526 C93.0263158,35.7894737 93.0263158,37.5657895 91.9078947,38.6184211 C91.9078947,38.6184211 91.9078947,38.6184211 91.9078947,38.6184211 L91.9078947,38.6184211" id="Shape"></path>
                <path d="M85.1315789,31.8421053 C84.0131579,32.9605263 82.2368421,32.9605263 81.1842105,31.8421053 C80.0657895,30.7236842 80.0657895,28.9473684 81.1842105,27.8947368 C82.3026316,26.7763158 84.0789474,26.7763158 85.1315789,27.8947368 C86.25,29.0131579 86.25,30.7894737 85.1315789,31.8421053 C85.1315789,31.8421053 85.1315789,31.8421053 85.1315789,31.8421053 L85.1315789,31.8421053" id="Shape"></path>
                <path d="M57.5,31.3157895 C56.7105263,32.1052632 55.4605263,32.1052632 54.6710526,31.3157895 C53.8815789,30.5263158 53.8815789,29.2763158 54.6710526,28.4868421 C55.4605263,27.6973684 56.7105263,27.6973684 57.5,28.4868421 C58.2894737,29.2763158 58.2894737,30.5263158 57.5,31.3157895 C57.5,31.3157895 57.5,31.3157895 57.5,31.3157895" id="Shape"></path>
                <path d="M50.7894737,24.5394737 C50,25.3289474 48.75,25.3289474 47.9605263,24.5394737 C47.1710526,23.75 47.1710526,22.5 47.9605263,21.7105263 C48.75,20.9210526 50,20.9210526 50.7894737,21.7105263 C51.5131579,22.5 51.5131579,23.75 50.7894737,24.5394737 C50.7894737,24.5394737 50.7894737,24.5394737 50.7894737,24.5394737" id="Shape"></path>
                <path d="M78.3552632,25.1315789 C77.2368421,26.25 75.4605263,26.25 74.4078947,25.1315789 C73.2894737,24.0131579 73.2894737,22.2368421 74.4078947,21.1842105 C75.5263158,20.0657895 77.3026316,20.0657895 78.3552632,21.1842105 C79.4736842,22.2368421 79.4736842,24.0131579 78.3552632,25.1315789 C78.3552632,25.1315789 78.3552632,25.1315789 78.3552632,25.1315789 L78.3552632,25.1315789" id="Shape"></path>
                <path d="M71.6447368,18.3552632 C70.5263158,19.4736842 68.75,19.4736842 67.6973684,18.3552632 C66.5789474,17.2368421 66.5789474,15.4605263 67.6973684,14.4078947 C68.8157895,13.2894737 70.5921053,13.2894737 71.6447368,14.4078947 C72.6973684,15.4605263 72.6973684,17.2368421 71.6447368,18.3552632 C71.6447368,18.3552632 71.6447368,18.3552632 71.6447368,18.3552632 L71.6447368,18.3552632" id="Shape"></path>
                <path d="M64.8684211,11.5789474 C63.75,12.6973684 61.9736842,12.6973684 60.9210526,11.5789474 C59.8026316,10.4605263 59.8026316,8.68421053 60.9210526,7.63157895 C62.0394737,6.51315789 63.8157895,6.51315789 64.8684211,7.63157895 C65.9868421,8.68421053 65.9868421,10.4605263 64.8684211,11.5789474 C64.8684211,11.5789474 64.8684211,11.5789474 64.8684211,11.5789474 L64.8684211,11.5789474" id="Shape"></path>
                <path d="M58.0921053,4.80263158 C56.9736842,5.92105263 55.1973684,5.92105263 54.1447368,4.80263158 C53.0263158,3.68421053 53.0263158,1.90789474 54.1447368,0.855263158 C55.2631579,-0.263157895 57.0394737,-0.263157895 58.0921053,0.855263158 C59.2105263,1.97368421 59.2105263,3.75 58.0921053,4.80263158 C58.0921053,4.80263158 58.0921053,4.80263158 58.0921053,4.80263158 L58.0921053,4.80263158" id="Shape"></path>
                <path d="M30.3947368,4.14473684 C29.6710526,4.86842105 28.4868421,4.86842105 27.7631579,4.14473684 C27.0394737,3.42105263 27.0394737,2.23684211 27.7631579,1.51315789 C28.4868421,0.789473684 29.6710526,0.789473684 30.3947368,1.51315789 C31.1184211,2.23684211 31.1184211,3.42105263 30.3947368,4.14473684 C30.3947368,4.14473684 30.3947368,4.14473684 30.3947368,4.14473684 L30.3947368,4.14473684" id="Shape"></path>
                <path d="M118.947368,52.1710526 C117.828947,53.2894737 116.052632,53.2894737 115,52.1710526 C113.881579,51.0526316 113.881579,49.2763158 115,48.2236842 C116.118421,47.1052632 117.894737,47.1052632 118.947368,48.2236842 C120.065789,49.2763158 120.065789,51.0526316 118.947368,52.1710526 C118.947368,52.1710526 118.947368,52.1710526 118.947368,52.1710526 L118.947368,52.1710526" id="Shape"></path>
                <path d="M112.171053,45.3947368 C111.052632,46.5131579 109.276316,46.5131579 108.223684,45.3947368 C107.105263,44.2763158 107.105263,42.5 108.223684,41.4473684 C109.342105,40.3289474 111.118421,40.3289474 112.171053,41.4473684 C113.289474,42.5 113.289474,44.2763158 112.171053,45.3947368 C112.171053,45.3947368 112.171053,45.3947368 112.171053,45.3947368 L112.171053,45.3947368" id="Shape"></path>
                <path d="M43.6842105,44.5394737 C43.0921053,45.1315789 42.1052632,45.1315789 41.5131579,44.5394737 C40.9210526,43.9473684 40.9210526,42.9605263 41.5131579,42.3684211 C42.1052632,41.7763158 43.0921053,41.7763158 43.6842105,42.3684211 C44.2763158,42.8947368 44.2763158,43.8815789 43.6842105,44.5394737 C43.6842105,44.4736842 43.6842105,44.4736842 43.6842105,44.5394737 L43.6842105,44.5394737" id="Shape"></path>
                <path d="M57.6315789,44.8684211 C56.8421053,45.6578947 55.4605263,45.6578947 54.6710526,44.8684211 C53.8815789,44.0789474 53.8815789,42.6973684 54.6710526,41.9078947 C55.4605263,41.1184211 56.8421053,41.1184211 57.6315789,41.9078947 C57.6315789,41.9078947 57.6315789,41.9078947 57.6315789,41.9078947 L57.6315789,41.9078947 C58.4210526,42.7631579 58.4210526,44.0789474 57.6315789,44.8684211" id="Shape"></path>
                <path d="M29.8684211,44.1447368 C29.4736842,44.5394737 28.75,44.5394737 28.3552632,44.1447368 C27.9605263,43.75 27.9605263,43.0263158 28.3552632,42.6315789 C28.75,42.2368421 29.4736842,42.2368421 29.8684211,42.6315789 C30.2631579,43.0263158 30.3289474,43.75 29.8684211,44.1447368 C29.8684211,44.1447368 29.8684211,44.1447368 29.8684211,44.1447368 L29.8684211,44.1447368" id="Shape"></path>
                <path d="M71.3815789,45.1315789 C70.3947368,46.1184211 68.8157895,46.1184211 67.8947368,45.1315789 C66.9078947,44.1447368 66.9078947,42.5657895 67.8947368,41.6447368 C68.8815789,40.6578947 70.4605263,40.6578947 71.3815789,41.6447368 C71.3815789,41.6447368 71.3815789,41.6447368 71.3815789,41.6447368 L71.3815789,41.6447368 C72.3684211,42.6315789 72.3684211,44.2105263 71.3815789,45.1315789" id="Shape"></path>
                <path d="M57.2368421,58.0263158 C56.6447368,58.6184211 55.6578947,58.6184211 55.0657895,58.0263158 C54.4736842,57.4342105 54.4736842,56.4473684 55.0657895,55.8552632 C55.6578947,55.2631579 56.6447368,55.2631579 57.2368421,55.8552632 C57.8289474,56.4473684 57.8289474,57.4342105 57.2368421,58.0263158 C57.2368421,58.0263158 57.2368421,58.0263158 57.2368421,58.0263158 L57.2368421,58.0263158" id="Shape"></path>
                <path d="M71.1184211,58.4210526 C70.3289474,59.2105263 68.9473684,59.2105263 68.1578947,58.4210526 C67.3684211,57.6315789 67.3684211,56.25 68.1578947,55.4605263 C68.9473684,54.6710526 70.3289474,54.6710526 71.1184211,55.4605263 C71.1184211,55.4605263 71.1184211,55.4605263 71.1184211,55.4605263 L71.1184211,55.4605263 C71.9078947,56.25 71.9078947,57.5657895 71.1184211,58.4210526" id="Shape"></path>
                <path d="M43.6842105,30.9868421 C43.0921053,31.5789474 42.1052632,31.5789474 41.5131579,30.9868421 C40.9210526,30.3947368 40.9210526,29.4078947 41.5131579,28.8157895 C42.1052632,28.2236842 43.0921053,28.2236842 43.6842105,28.8157895 C44.2763158,29.4078947 44.2763158,30.3947368 43.6842105,30.9868421 C43.6842105,30.9868421 43.6842105,30.9868421 43.6842105,30.9868421 L43.6842105,30.9868421" id="Shape"></path>
                <path d="M84.9342105,58.6842105 C83.9473684,59.6710526 82.3684211,59.6710526 81.4473684,58.6842105 C80.5263158,57.6973684 80.4605263,56.1184211 81.4473684,55.1973684 C82.4342105,54.2105263 84.0131579,54.2105263 84.9342105,55.1973684 C84.9342105,55.1973684 84.9342105,55.1973684 84.9342105,55.1973684 L84.9342105,55.1973684 C85.8552632,56.1842105 85.8552632,57.7631579 84.9342105,58.6842105" id="Shape"></path>
                <path d="M77.7631579,65.0657895 C76.9736842,65.8552632 75.7894737,65.8552632 75,65.0657895 C74.2105263,64.2763158 74.2105263,63.0921053 75,62.3026316 C75.7894737,61.5131579 76.9736842,61.5131579 77.7631579,62.3026316 C77.7631579,62.3026316 77.7631579,62.3026316 77.7631579,62.3026316 L77.7631579,62.3026316 C78.5526316,63.0921053 78.5526316,64.2763158 77.7631579,65.0657895" id="Shape"></path>
                <path d="M91.9078947,65.7236842 C90.7894737,66.8421053 89.0131579,66.8421053 87.9605263,65.7236842 C86.8421053,64.6052632 86.8421053,62.8289474 87.9605263,61.7763158 C89.0789474,60.6578947 90.8552632,60.6578947 91.9078947,61.7763158 C93.0263158,62.8289474 93.0263158,64.6052632 91.9078947,65.7236842 C91.9078947,65.7236842 91.9078947,65.7236842 91.9078947,65.7236842 L91.9078947,65.7236842" id="Shape"></path>
                <path d="M105.394737,38.6184211 C104.276316,39.7368421 102.5,39.7368421 101.447368,38.6184211 C100.328947,37.5 100.328947,35.7236842 101.447368,34.6710526 C102.565789,33.5526316 104.342105,33.5526316 105.394737,34.6710526 C106.513158,35.7894737 106.513158,37.5657895 105.394737,38.6184211 C105.460526,38.6184211 105.394737,38.6184211 105.394737,38.6184211 L105.394737,38.6184211" id="Shape"></path>
                <path d="M98.6842105,31.8421053 C97.5657895,32.9605263 95.7894737,32.9605263 94.7368421,31.8421053 C93.6184211,30.7236842 93.6184211,28.9473684 94.7368421,27.8947368 C95.8552632,26.7763158 97.6315789,26.7763158 98.6842105,27.8947368 C99.7368421,29.0131579 99.7368421,30.7894737 98.6842105,31.8421053 C98.6842105,31.8421053 98.6842105,31.8421053 98.6842105,31.8421053 L98.6842105,31.8421053" id="Shape"></path>
                <path d="M91.9078947,25.1315789 C90.7894737,26.25 89.0131579,26.25 87.9605263,25.1315789 C86.8421053,24.0131579 86.8421053,22.2368421 87.9605263,21.1842105 C89.0789474,20.0657895 90.8552632,20.0657895 91.9078947,21.1842105 C93.0263158,22.2368421 93.0263158,24.0131579 91.9078947,25.1315789 C91.9078947,25.1315789 91.9078947,25.1315789 91.9078947,25.1315789 L91.9078947,25.1315789" id="Shape"></path>
                <path d="M85.1315789,18.3552632 C84.0131579,19.4736842 82.2368421,19.4736842 81.1842105,18.3552632 C80.0657895,17.2368421 80.0657895,15.4605263 81.1842105,14.4078947 C82.3026316,13.2894737 84.0789474,13.2894737 85.1315789,14.4078947 C86.25,15.4605263 86.25,17.2368421 85.1315789,18.3552632 C85.1315789,18.3552632 85.1315789,18.3552632 85.1315789,18.3552632 L85.1315789,18.3552632" id="Shape"></path>
                <path d="M30.3947368,17.6973684 C29.6710526,18.4210526 28.4868421,18.4210526 27.7631579,17.6973684 C27.0394737,16.9736842 27.0394737,15.7894737 27.7631579,15.0657895 C28.4868421,14.3421053 29.6710526,14.3421053 30.3947368,15.0657895 C31.1184211,15.7894737 31.1184211,16.9736842 30.3947368,17.6973684 C30.3947368,17.6973684 30.3947368,17.6973684 30.3947368,17.6973684" id="Shape"></path>
                <path d="M44.2763158,18.0921053 C43.3552632,19.0131579 41.7763158,19.0131579 40.8552632,18.0921053 C39.9342105,17.1710526 39.9342105,15.5921053 40.8552632,14.6710526 C41.7763158,13.75 43.3552632,13.75 44.2763158,14.6710526 L44.2763158,14.6710526 C45.2631579,15.5921053 45.2631579,17.1052632 44.2763158,18.0921053" id="Shape"></path>
                <path d="M16.4473684,17.2368421 C15.9868421,17.6973684 15.1315789,17.6973684 14.6710526,17.2368421 C14.2105263,16.7763158 14.2105263,15.9210526 14.6710526,15.4605263 C15.1315789,15 15.9868421,15 16.4473684,15.4605263 C16.9736842,15.9868421 16.9736842,16.7763158 16.4473684,17.2368421 C16.4473684,17.2368421 16.4473684,17.2368421 16.4473684,17.2368421 L16.4473684,17.2368421" id="Shape"></path>
                <path d="M78.3552632,11.5789474 C77.2368421,12.6973684 75.4605263,12.6973684 74.4078947,11.5789474 C73.2894737,10.4605263 73.2894737,8.68421053 74.4078947,7.63157895 C75.5263158,6.51315789 77.3026316,6.51315789 78.3552632,7.63157895 C79.4736842,8.68421053 79.4736842,10.4605263 78.3552632,11.5789474 C78.3552632,11.5789474 78.3552632,11.5789474 78.3552632,11.5789474 L78.3552632,11.5789474" id="Shape"></path>
                <path d="M71.6447368,4.80263158 C70.5263158,5.92105263 68.75,5.92105263 67.6973684,4.80263158 C66.5789474,3.68421053 66.5789474,1.90789474 67.6973684,0.855263158 C68.8157895,-0.263157895 70.5921053,-0.263157895 71.6447368,0.855263158 C72.6973684,1.97368421 72.6973684,3.75 71.6447368,4.80263158 C71.6447368,4.80263158 71.6447368,4.80263158 71.6447368,4.80263158 L71.6447368,4.80263158" id="Shape"></path>
                <path d="M145.986842,25.1315789 C144.868421,26.25 143.092105,26.25 142.039474,25.1315789 C140.921053,24.0131579 140.921053,22.2368421 142.039474,21.1842105 C143.157895,20.0657895 144.934211,20.0657895 145.986842,21.1842105 C147.105263,22.2368421 147.105263,24.0131579 145.986842,25.1315789 C145.986842,25.1315789 145.986842,25.1315789 145.986842,25.1315789 L145.986842,25.1315789" id="Shape"></path>
                <path d="M139.210526,18.3552632 C138.092105,19.4736842 136.315789,19.4736842 135.263158,18.3552632 C134.144737,17.2368421 134.144737,15.4605263 135.263158,14.4078947 C136.381579,13.2894737 138.157895,13.2894737 139.210526,14.4078947 C140.328947,15.4605263 140.328947,17.2368421 139.210526,18.3552632 C139.210526,18.3552632 139.210526,18.3552632 139.210526,18.3552632 L139.210526,18.3552632" id="Shape"></path>
                <path d="M132.5,11.5789474 C131.381579,12.6973684 129.605263,12.6973684 128.552632,11.5789474 C127.434211,10.4605263 127.434211,8.68421053 128.552632,7.63157895 C129.671053,6.51315789 131.447368,6.51315789 132.5,7.63157895 C133.552632,8.68421053 133.552632,10.4605263 132.5,11.5789474 C132.5,11.5789474 132.5,11.5789474 132.5,11.5789474 L132.5,11.5789474" id="Shape"></path>
                <path d="M152.763158,18.3552632 C151.644737,19.4736842 149.868421,19.4736842 148.815789,18.3552632 C147.697368,17.2368421 147.697368,15.4605263 148.815789,14.4078947 C149.934211,13.2894737 151.710526,13.2894737 152.763158,14.4078947 C153.815789,15.4605263 153.815789,17.2368421 152.763158,18.3552632 C152.763158,18.3552632 152.763158,18.3552632 152.763158,18.3552632 L152.763158,18.3552632" id="Shape"></path>
                <path d="M145.986842,11.5789474 C144.868421,12.6973684 143.092105,12.6973684 142.039474,11.5789474 C140.921053,10.4605263 140.921053,8.68421053 142.039474,7.63157895 C143.157895,6.51315789 144.934211,6.51315789 145.986842,7.63157895 C147.105263,8.68421053 147.105263,10.4605263 145.986842,11.5789474 C145.986842,11.5789474 145.986842,11.5789474 145.986842,11.5789474 L145.986842,11.5789474" id="Shape"></path>
                <path d="M139.210526,4.80263158 C138.092105,5.92105263 136.315789,5.92105263 135.263158,4.80263158 C134.144737,3.68421053 134.144737,1.90789474 135.263158,0.855263158 C136.381579,-0.263157895 138.157895,-0.263157895 139.210526,0.855263158 C140.328947,1.97368421 140.328947,3.75 139.210526,4.80263158 C139.210526,4.80263158 139.210526,4.80263158 139.210526,4.80263158 L139.210526,4.80263158" id="Shape"></path>
                <path d="M159.539474,11.5789474 C158.421053,12.6973684 156.644737,12.6973684 155.592105,11.5789474 C154.473684,10.4605263 154.473684,8.68421053 155.592105,7.63157895 C156.710526,6.51315789 158.486842,6.51315789 159.539474,7.63157895 C160.592105,8.68421053 160.592105,10.4605263 159.539474,11.5789474 C159.539474,11.5789474 159.539474,11.5789474 159.539474,11.5789474 L159.539474,11.5789474" id="Shape"></path>
                <path d="M152.763158,4.80263158 C151.644737,5.92105263 149.868421,5.92105263 148.815789,4.80263158 C147.763158,3.68421053 147.697368,1.90789474 148.815789,0.855263158 C149.934211,-0.263157895 151.710526,-0.263157895 152.763158,0.855263158 C153.815789,1.97368421 153.815789,3.75 152.763158,4.80263158 C152.763158,4.80263158 152.763158,4.80263158 152.763158,4.80263158 L152.763158,4.80263158" id="Shape"></path>
                <path d="M166.25,4.80263158 C165.131579,5.92105263 163.355263,5.92105263 162.302632,4.80263158 C161.184211,3.68421053 161.184211,1.90789474 162.302632,0.855263158 C163.421053,-0.263157895 165.197368,-0.263157895 166.25,0.855263158 C167.368421,1.97368421 167.368421,3.75 166.25,4.80263158 C166.25,4.80263158 166.25,4.80263158 166.25,4.80263158 L166.25,4.80263158" id="Shape"></path>
            </g>
        </g>
    </g>
</svg>