<?xml version="1.0" encoding="UTF-8"?>
<svg width="200px" height="88px" viewBox="0 0 200 88" version="1.1" xmlns="http://www.w3.org/2000/svg" xmlns:xlink="http://www.w3.org/1999/xlink">
    <!-- Generator: Sketch 46.1 (44463) - http://www.bohemiancoding.com/sketch -->
    <title>bestegg_color</title>
    <desc>Created with Sketch.</desc>
    <defs></defs>
    <g id="Invision/Proto" stroke="none" stroke-width="1" fill="none" fill-rule="evenodd">
        <g id="3a1-Best-Egg" transform="translate(-412.000000, -266.000000)" fill-rule="nonzero" fill="#38C1E7">
            <g id="hero" transform="translate(200.000000, 266.000000)">
                <g id="bestegg_color" transform="translate(212.000000, 0.000000)">
                    <path d="M114.725296,17.7272727 L118.397233,17.7272727 C111.982213,6.2944664 103.851779,0 95.4802372,0 C87.1086957,0 78.9782609,6.29249012 72.555336,17.7272727 L76.2252964,17.7272727 C77.1893587,16.1267845 78.2451384,14.5833665 79.3873518,13.1047431 C84.3280632,6.71936759 89.986166,3.17588933 95.4802372,3.17588933 C102.183794,3.17391304 109.126482,8.45059289 114.725296,17.7272727 L114.725296,17.7272727 Z" id="Fill-1"></path>
                    <path d="M95.4802372,83.9209486 C83.6541502,83.9209486 74.9268775,79.0296443 70.270751,70.284585 L66.701581,70.284585 C68.151629,73.4867802 70.191034,76.3876695 72.7134387,78.8359684 C78.3498024,84.2391304 86.2213439,87.0948617 95.4802372,87.0948617 C104.73913,87.0948617 112.610672,84.2470356 118.245059,78.8359684 C120.766991,76.3891077 122.806959,73.4903815 124.258893,70.2905138 L120.689723,70.2905138 C116.029644,79.0316206 107.304348,83.9268775 95.4802372,83.9268775" id="Fill-2"></path>
                    <path d="M29.5039526,46.3023715 C29.5201934,48.3810248 29.2298509,50.4507136 28.6422925,52.444664 C28.1203221,54.2387448 27.258893,55.9159821 26.1047431,57.3853755 C24.9954186,58.7774463 23.5915873,59.9065856 21.9940711,60.6916996 C20.3656126,61.5072464 18.497365,61.9150198 16.3893281,61.9150198 C13.673913,61.9150198 9.66469038,61.3517787 4.36166008,60.2252964 L4.36166008,22.1047431 L2.88932806,22.0474308 L1.9743083,22.0118577 L1.51778656,21.9940711 L1.19762846,21.9802372 C0.399209486,21.9393939 0,21.5836627 0,20.9130435 L0,19.7114625 L7.22727273,19.7114625 L7.256917,36.7312253 C8.50017035,35.0382362 10.0707447,33.612152 11.8754941,32.5375494 C13.6722446,31.4983552 15.7170837,30.9656316 17.7924901,30.9960474 C21.4749671,30.9960474 24.3478261,32.2687747 26.4110672,34.8142292 C28.4743083,37.3596838 29.5052701,41.1890646 29.5039526,46.3023715 M26.5395257,46.3023715 C26.5395257,41.8333333 25.7134387,38.5480896 24.0612648,36.4466403 C22.4090909,34.345191 20.0375494,33.2911726 16.9466403,33.284585 C15.0354879,33.2691606 13.1610474,33.8095213 11.5513834,34.8399209 C9.93873518,35.8662714 8.49736495,37.2951252 7.22727273,39.1264822 L7.22727273,58.3577075 C11.4130435,59.2193676 14.2852437,59.6508564 15.8438735,59.6521739 C17.6172596,59.6521739 19.168643,59.3300395 20.4980237,58.6857708 C21.8133015,58.0540224 22.9589568,57.1177152 23.8399209,55.9545455 C24.7795673,54.688408 25.4666448,53.2531944 25.8636364,51.7272727 C26.3358853,49.9582235 26.5659151,48.1332764 26.5474308,46.3023715" id="Fill-3"></path>
                    <path d="M50.7905138,32.0731225 C52.2074061,32.6420705 53.4838517,33.5119146 54.5316206,34.6225296 C55.6319362,35.8105593 56.4743843,37.2135179 57.0059289,38.743083 C57.6014493,40.372859 57.8985507,42.2437418 57.8972332,44.3557312 C57.8972332,44.8003953 57.8300395,45.1007905 57.6996047,45.2628458 C57.5435879,45.4378589 57.314786,45.5299645 57.0810277,45.5118577 L35.3794466,45.5118577 L35.3794466,46.0849802 C35.3794466,48.3379447 35.6429513,50.3194993 36.1699605,52.0296443 C36.6189286,53.5987703 37.3783322,55.0617983 38.4031621,56.3320158 C39.3441748,57.4710323 40.5452555,58.3670982 41.9051383,58.944664 C43.3595554,59.5447669 44.9208748,59.8426413 46.4940711,59.8201581 C47.8188911,59.84427 49.1402276,59.6765235 50.416996,59.3221344 C51.3838938,59.0473826 52.3197207,58.6731843 53.2094862,58.2055336 C53.8336539,57.8757638 54.4339392,57.5026492 55.0059289,57.0889328 C55.4505929,56.756917 55.770751,56.5909091 55.972332,56.5909091 C56.2121889,56.5799101 56.4405046,56.6944423 56.5750988,56.8932806 L57.3656126,57.8577075 C56.8187442,58.51831 56.1711346,59.0885532 55.4466403,59.5474308 C54.6133245,60.0916087 53.7225717,60.5422872 52.7905138,60.8913043 C51.7707236,61.2758638 50.7201978,61.5733696 49.6501976,61.7806324 C48.5439515,62.0017749 47.4186466,62.1136435 46.2905138,62.1146245 C44.3664251,62.138868 42.4572966,61.773848 40.6778656,61.041502 C39.0102128,60.3444412 37.5233056,59.2765715 36.3300395,57.9189723 C35.0667046,56.4506228 34.1164689,54.739795 33.5375494,52.8913043 C32.8787879,50.9150198 32.5494071,48.6462451 32.5494071,46.0849802 C32.5289194,44.0605541 32.840017,42.0464304 33.4703557,40.1225296 C34.0319739,38.3909124 34.9351572,36.7895093 36.1264822,35.4130435 C37.3006692,34.0823587 38.7533463,33.0264183 40.3814229,32.3201581 C42.0612648,31.5744401 43.9716733,31.2022398 46.1126482,31.2035573 C47.7134772,31.1884132 49.3020646,31.4837146 50.7905138,32.0731225 M41.9604743,34.0652174 C40.7641684,34.5272177 39.6791451,35.2370965 38.7766798,36.1482213 C37.8557439,37.0906769 37.1185196,38.1965133 36.6027668,39.4090909 C36.0261971,40.7648664 35.6545399,42.1988773 35.5,43.6640316 L55.3023715,43.6640316 C55.324419,42.1930818 55.0999709,40.7288251 54.6383399,39.3320158 C54.2417084,38.134291 53.6048735,37.0300851 52.7667984,36.0869565 C51.9625649,35.202185 50.9724882,34.5063643 49.8675889,34.0494071 C48.6799043,33.5651505 47.4070028,33.3245492 46.1245059,33.3418972 C44.7026882,33.3186442 43.2892634,33.5640491 41.958498,34.0652174" id="Fill-4"></path>
                    <path d="M81.2114625,52.9288538 C81.2222488,54.1816955 80.9802714,55.4238465 80.5,56.5810277 C80.0359622,57.6951249 79.3345558,58.6946291 78.444664,59.5098814 C77.4827073,60.3741108 76.3598655,61.0402945 75.1403162,61.4703557 C73.70567,61.9752569 72.1926274,62.2208502 70.6719368,62.1956522 C67.6347579,62.1911015 64.6242775,61.6283949 61.7905138,60.5355731 L61.7905138,53.2035573 L63.2588933,53.2035573 C64.0770751,53.2035573 64.5105402,53.6910408 64.5592885,54.6660079 C64.5592885,54.7509881 64.5849802,54.9881423 64.6264822,55.3715415 C64.6679842,55.7549407 64.7134387,56.2865613 64.7727273,56.9525692 C64.8320158,57.6185771 64.8814229,58.3359684 64.9229249,59.0988142 C66.5487484,59.7483531 68.5052701,60.0737813 70.7924901,60.0750988 C71.9313764,60.0967424 73.0652102,59.9181385 74.1422925,59.5474308 C75.0359303,59.2381038 75.8575119,58.7506679 76.5573123,58.1146245 C77.1932326,57.5198774 77.6916595,56.7934825 78.0177866,55.986166 C78.3482275,55.1699964 78.5173538,54.2975195 78.5158103,53.416996 C78.5158103,52.4104084 78.2740448,51.5750988 77.7905138,50.9110672 C77.2802891,50.2220372 76.6329857,49.6460583 75.8893281,49.2193676 C75.044846,48.7273527 74.148814,48.3297054 73.2173913,48.0335968 C72.2226614,47.7147563 71.1982872,47.3945982 70.1442688,47.0731225 C69.0902503,46.7516469 68.0638999,46.3992095 67.0652174,46.0158103 C66.1127527,45.6582278 65.2142684,45.1707452 64.3952569,44.5671937 C63.6210038,43.9972052 62.9730385,43.2732065 62.4920949,42.4407115 C62.0098814,41.6054018 61.7687747,40.5638999 61.7687747,39.3162055 C61.7687773,38.2508911 62.0064331,37.1989943 62.4644269,36.2371542 C62.9333931,35.2422872 63.6067921,34.357441 64.4407115,33.6403162 C65.3621614,32.8587984 66.4210412,32.255639 67.5632411,31.8616601 C68.8924291,31.4022119 70.2914177,31.1775177 71.6976285,31.1976285 C73.8530962,31.1976285 76.5098814,31.7312253 79.6679842,32.798419 L79.6679842,39.9782609 L78.201581,39.9782609 C77.3833992,39.9782609 76.9492754,39.4907773 76.8992095,38.5158103 C76.8992095,38.4288538 76.8735178,38.1976285 76.8339921,37.8241107 C76.7944664,37.4505929 76.7470356,36.9328063 76.6897233,36.2747036 C76.6324111,35.6166008 76.583004,34.9209486 76.541502,34.187747 C74.9982413,33.6738433 73.3834637,33.4070482 71.756917,33.3972332 C70.7496391,33.3857425 69.7475764,33.5434004 68.7924901,33.8636364 C67.9594742,34.140206 67.1824794,34.5631696 66.4980237,35.1126482 C65.8792694,35.6095669 65.3710645,36.2301827 65.0059289,36.9347826 C64.6592264,37.6069838 64.4783054,38.3523511 64.4782609,39.1086957 C64.4454438,39.9547471 64.7011997,40.7868248 65.2035573,41.4683794 C65.7252197,42.1216169 66.372307,42.66388 67.1067194,43.0632411 C67.9569891,43.5327893 68.8520893,43.91612 69.7786561,44.2075099 C70.7878788,44.5329381 71.8089592,44.8544137 72.8418972,45.1719368 C73.8748353,45.4894598 74.8959157,45.8471673 75.9051383,46.2450593 C76.8567749,46.6125727 77.7552996,47.1050334 78.5770751,47.7094862 C79.3537306,48.2832539 80.0019629,49.012936 80.4802372,49.8517787 C80.9890951,50.795792 81.2412391,51.8568412 81.2114625,52.9288538" id="Fill-5"></path>
                    <path d="M89.5335968,60.3102767 C88.3965744,59.1824769 87.8280632,57.4413702 87.8280632,55.0869565 L87.8280632,34.5612648 L83.513834,34.5612648 C83.3158509,34.5697441 83.1216783,34.5050199 82.9683794,34.3794466 C82.8236197,34.2490973 82.7458382,34.0600955 82.756917,33.8656126 L82.756917,32.7490119 L87.8952569,32.3873518 L88.6205534,23.7588933 C88.6398101,23.5775382 88.7191066,23.4078158 88.8458498,23.2766798 C88.9830154,23.1333979 89.1753642,23.0563143 89.3735178,23.0652174 L90.7332016,23.0652174 L90.7332016,32.4189723 L100.183794,32.4189723 L100.183794,34.5632411 L90.7272727,34.5632411 L90.7272727,54.9387352 C90.7110868,55.661027 90.8180171,56.3808011 91.0434783,57.0671937 C91.2257376,57.6130131 91.5244656,58.1126912 91.9189723,58.5316206 C92.2852314,58.9106236 92.7344249,59.1994874 93.2312253,59.3754941 C93.7546825,59.5606261 94.3064491,59.6529216 94.8616601,59.6482213 C95.4999779,59.6633316 96.1352789,59.5559946 96.7332016,59.3320158 C97.2072471,59.1446829 97.6619555,58.9117027 98.0909091,58.6363636 C98.4178109,58.4265137 98.7301202,58.1947578 99.0256917,57.9426877 C99.1774168,57.7775915 99.3784572,57.6659795 99.5988142,57.6245059 C99.7980618,57.6471412 99.9762159,57.7591238 100.083004,57.9288538 L100.873518,59.1956522 C100.059534,60.074621 99.0669813,60.7693407 97.9624506,61.2332016 C96.8063864,61.7414484 95.55732,62.0039139 94.2944664,62.0039526 C92.2615283,62.0039526 90.6765481,61.4407115 89.5395257,60.3142292" id="Fill-6"></path>
                    <path d="M128.721344,31.8754941 C130.139455,32.4441531 131.416736,33.3147815 132.464427,34.4268775 C133.565131,35.6149685 134.408217,37.017869 134.940711,38.5474308 C135.532279,40.1772069 135.828063,42.0480896 135.828063,44.1600791 C135.828063,44.6047431 135.762846,44.9051383 135.630435,45.0671937 C135.473067,45.2395459 135.244353,45.3286933 135.011858,45.3083004 L113.312253,45.3083004 L113.312253,45.8814229 C113.312253,48.1343874 113.575758,50.115942 114.102767,51.826087 C114.551928,53.3955283 115.312049,54.858644 116.337945,56.1284585 C117.278345,57.2672777 118.478738,58.1633358 119.837945,58.7411067 C121.292393,59.3411034 122.853691,59.6389736 124.426877,59.6166008 C125.752356,59.6408759 127.074368,59.4731282 128.351779,59.1185771 C129.318003,58.8437101 130.253163,58.4695137 131.142292,58.0019763 C131.766502,57.6722797 132.366793,57.299162 132.938735,56.8853755 C133.381423,56.5533597 133.703557,56.3873518 133.905138,56.3873518 C134.141623,56.3794413 134.365569,56.4936535 134.498024,56.6897233 L135.288538,57.6541502 C134.741456,58.3145459 134.093881,58.8847583 133.369565,59.3438735 C132.535787,59.8884602 131.644333,60.339158 130.711462,60.687747 C129.692441,61.0725878 128.642547,61.3701017 127.573123,61.5770751 C126.466884,61.7982682 125.341574,61.9101372 124.213439,61.9110672 C122.288701,61.9354141 120.378906,61.5703952 118.598814,60.8379447 C116.931161,60.1408839 115.444254,59.0730142 114.250988,57.715415 C112.984118,56.2479306 112.030487,54.5370431 111.448617,52.687747 C110.789855,50.7114625 110.460474,48.4426877 110.460474,45.8814229 C110.439987,43.8569968 110.751084,41.8428731 111.381423,39.9189723 C111.943582,38.1875926 112.846708,36.5862921 114.037549,35.2094862 C115.212786,33.8790954 116.666033,32.8232312 118.294466,32.1166008 C119.974308,31.3722003 121.881423,31 124.01581,31 C125.626362,30.9826938 127.224791,31.2800915 128.721344,31.8754941 M119.891304,33.8675889 C118.694998,34.3295893 117.609975,35.039468 116.70751,35.9505929 C115.787113,36.8934849 115.04996,37.9992145 114.533597,39.2114625 C113.955291,40.5663337 113.581641,41.9996585 113.424901,43.4644269 L133.227273,43.4644269 C133.248097,41.9935613 133.02368,40.5295064 132.563241,39.1324111 C132.166254,37.9348456 131.529459,36.8307081 130.6917,35.8873518 C129.889541,35.0042467 128.902268,34.3091739 127.800395,33.8517787 C126.612558,33.3680393 125.339762,33.1274581 124.057312,33.1442688 C122.634836,33.1208139 121.220726,33.3662212 119.889328,33.8675889" id="Fill-7"></path>
                    <path d="M153.741107,31.4505929 C154.805595,31.7488282 155.818505,32.2073034 156.745059,32.8102767 L164.442688,32.8102767 L164.442688,33.798419 C164.442688,34.3003953 164.162055,34.5711462 163.594862,34.6126482 L159.037549,34.944664 C159.609832,35.7271626 160.04796,36.5994102 160.333992,37.5256917 C160.642402,38.51726 160.795727,39.5505337 160.788538,40.5889328 C160.805558,41.9428839 160.536164,43.2851391 159.998024,44.527668 C159.494415,45.6798673 158.748196,46.7098787 157.810277,47.5474308 C156.828295,48.4095468 155.686896,49.0708868 154.450593,49.4940711 C153.051524,49.9717246 151.581009,50.2063386 150.102767,50.187747 C148.498953,50.2078252 146.90454,49.9400816 145.395257,49.3972332 C144.615965,49.8221812 143.936178,50.4083207 143.401186,51.1166008 C142.918972,51.7753623 142.677207,52.4196311 142.675889,53.0494071 C142.675889,53.9137022 142.978261,54.5777339 143.583004,55.041502 C144.297587,55.5529287 145.117207,55.8986003 145.982213,56.0533597 C147.106172,56.2848669 148.246817,56.426291 149.393281,56.4762846 C150.671278,56.5368906 151.969697,56.6027668 153.288538,56.673913 C154.607378,56.7450593 155.905138,56.870224 157.181818,57.0494071 C158.358285,57.2023241 159.506896,57.5224178 160.592885,58 C161.543381,58.4177469 162.370317,59.0731704 162.994071,59.9031621 C163.596179,60.7187088 163.897233,61.8003953 163.897233,63.1482213 C163.895692,64.4060364 163.573272,65.6426621 162.960474,66.7411067 C162.291662,67.9396479 161.371389,68.9792525 160.262846,69.7885375 C158.969982,70.7329578 157.526705,71.4519234 155.994071,71.9150198 C154.175804,72.4703135 152.28243,72.7403193 150.381423,72.715415 C148.509844,72.7446507 146.642594,72.5266942 144.828063,72.0671937 C143.40684,71.7094331 142.055048,71.1176902 140.828063,70.3162055 C139.831854,69.6654391 138.999851,68.7928499 138.397233,67.7667984 C137.860807,66.8272388 137.579429,65.763725 137.581028,64.6818182 C137.554489,63.1622901 138.116783,61.6914019 139.150198,60.5770751 C140.204216,59.43083 141.642951,58.5454545 143.466403,57.9209486 C142.555179,57.638834 141.730389,57.130225 141.06917,56.4426877 C140.476285,55.798419 140.177866,54.9031621 140.177866,53.7549407 C140.182919,53.3018384 140.264433,52.8528409 140.418972,52.4268775 C140.594595,51.9370546 140.838791,51.4746115 141.144269,51.0533597 C141.481094,50.582636 141.87028,50.1516806 142.304348,49.7687747 C142.787372,49.3463062 143.317956,48.98153 143.885375,48.6818182 C142.500824,47.9016794 141.349291,46.7665198 140.549407,45.3932806 C139.758893,44.0243742 139.363636,42.4242424 139.363636,40.5928854 C139.345292,39.2407896 139.607742,37.8995997 140.134387,36.6541502 C140.631477,35.4978419 141.373116,34.4629179 142.3083,33.6205534 C143.295888,32.7448317 144.450007,32.0773649 145.701581,31.6581028 C147.12121,31.180904 148.611117,30.946394 150.108696,30.9644269 C151.336297,30.9554908 152.559062,31.119147 153.741107,31.4505929 M160.501976,61.2608696 C159.964142,60.6567632 159.285213,60.1950917 158.525692,59.916996 C157.607193,59.5722661 156.649151,59.3438764 155.673913,59.2371542 C154.597497,59.1054018 153.470356,59.0098814 152.29249,58.9505929 C151.114625,58.8913043 149.932806,58.831357 148.747036,58.770751 C147.633253,58.7177239 146.523782,58.5962828 145.424901,58.4071146 C144.68852,58.6949424 143.977258,59.0433019 143.298419,59.4486166 C142.681493,59.8114387 142.11811,60.2584208 141.624506,60.7766798 C141.171863,61.2534543 140.804228,61.8042374 140.537549,62.4051383 C140.27046,63.0197265 140.135786,63.6836707 140.142292,64.3537549 C140.137845,65.2211587 140.37385,66.072829 140.824111,66.8142292 C141.323721,67.6166196 142.006415,68.2891546 142.816206,68.7766798 C143.813193,69.3806121 144.898903,69.8240994 146.033597,70.0909091 C147.467352,70.4311654 148.937627,70.593128 150.411067,70.5731225 C151.851339,70.5837713 153.287112,70.4111066 154.683794,70.0592885 C155.89967,69.760144 157.060813,69.2712765 158.124506,68.6106719 C159.043192,68.0427071 159.826358,67.2804528 160.418972,66.3774704 C160.966671,65.5327602 161.255208,64.5462387 161.249012,63.5395257 C161.249012,62.5928854 161,61.8320158 160.509881,61.2588933 M153.543478,47.6857708 C154.487773,47.3495868 155.351415,46.8198238 156.079051,46.1304348 C156.772098,45.4584739 157.305028,44.6391527 157.63834,43.7332016 C158.349308,41.7364851 158.344418,39.554774 157.624506,37.5612648 C157.281406,36.6544498 156.741428,35.8350321 156.043478,35.1620553 C155.31495,34.4776029 154.451247,33.9531876 153.507905,33.6225296 C152.416492,33.2448146 151.26743,33.0608844 150.112648,33.0790514 C148.952761,33.0617058 147.798647,33.2455882 146.701581,33.6225296 C145.751734,33.9505766 144.881701,34.4751551 144.148221,35.1620553 C143.450576,35.8352848 142.910646,36.6546298 142.567194,37.5612648 C142.195226,38.5501323 142.010916,39.5996913 142.023715,40.6561265 C142.007975,41.706482 142.190341,42.7503942 142.561265,43.7332016 C142.907554,44.6343466 143.447238,45.4485941 144.142292,46.1185771 C144.87733,46.8110177 145.747208,47.3445159 146.697628,47.6857708 C147.792687,48.0720317 148.947645,48.2607328 150.108696,48.243083 C151.277534,48.2613681 152.440387,48.0726888 153.543478,47.6857708" id="Fill-8"></path>
                    <path d="M182.51581,31.4505929 C183.579759,31.74861 184.59205,32.2071065 185.517787,32.8102767 L193.225296,32.8102767 L193.225296,33.798419 C193.225296,34.3003953 192.943347,34.571805 192.379447,34.6126482 L187.822134,34.944664 C188.3945,35.7297073 188.831986,36.6046783 189.116601,37.5335968 C189.424838,38.5251571 189.577507,39.5585063 189.56917,40.5968379 C189.586908,41.9508556 189.317484,43.2932596 188.778656,44.5355731 C188.27559,45.6880829 187.529292,46.7182031 186.590909,47.555336 C185.609348,48.4180373 184.467828,49.0794479 183.231225,49.5019763 C181.832166,49.9796677 180.361644,50.2142827 178.883399,50.1956522 C177.279589,50.2156876 175.685184,49.9479453 174.175889,49.4051383 C173.397252,49.8310313 172.717648,50.4170122 172.181818,51.1245059 C171.699605,51.7832675 171.458498,52.4275362 171.458498,53.0573123 C171.458498,53.9209486 171.762846,54.5869565 172.363636,55.0494071 C173.079095,55.5605792 173.899296,55.9062113 174.764822,56.0612648 C175.888544,56.2874554 177.028528,56.4235925 178.173913,56.4683794 C179.453228,56.5289855 180.751647,56.5948617 182.06917,56.6660079 C183.386693,56.7371542 184.685112,56.8623188 185.964427,57.041502 C187.140878,57.1944985 188.289477,57.5145891 189.375494,57.9920949 C190.325409,58.4098999 191.151691,59.065344 191.774704,59.8952569 C192.374177,60.7147563 192.673913,61.7990777 192.673913,63.1482213 C192.670638,64.4058123 192.348328,65.6420109 191.737154,66.7411067 C191.068672,67.9410358 190.147578,68.9814803 189.037549,69.7905138 C187.744508,70.7341717 186.301251,71.4524597 184.768775,71.9150198 C182.949875,72.4705159 181.055818,72.7405239 179.15415,72.715415 C177.282583,72.7444201 175.415363,72.5264671 173.600791,72.0671937 C172.179662,71.7091544 170.827915,71.1174311 169.600791,70.3162055 C168.604793,69.6658138 167.773356,68.7931102 167.171937,67.7667984 C166.632925,66.8280206 166.349457,65.7643323 166.349802,64.6818182 C166.322728,63.1625625 166.8843,61.6917098 167.916996,60.5770751 C168.971014,59.43083 170.410408,58.5454545 172.235178,57.9209486 C171.323495,57.6385831 170.498124,57.1300346 169.835968,56.4426877 C169.241765,55.798419 168.944664,54.9025033 168.944664,53.7549407 C168.950464,53.3017362 169.032644,52.8527541 169.187747,52.4268775 C169.363734,51.9372152 169.607904,51.4748219 169.913043,51.0533597 C170.251143,50.5830594 170.640931,50.1521702 171.075099,49.7687747 C171.558134,49.3463204 172.088716,48.9815454 172.656126,48.6818182 C171.271517,47.9017563 170.119966,46.7665788 169.320158,45.3932806 C168.529644,44.0243742 168.134387,42.4242424 168.134387,40.5928854 C168.114424,39.2406443 168.37694,37.8991243 168.905138,36.6541502 C169.402775,35.4981506 170.144335,34.4633363 171.079051,33.6205534 C172.06773,32.7453083 173.222391,32.0779169 174.474308,31.6581028 C175.894037,31.1813076 177.383874,30.9468084 178.881423,30.9644269 C180.110812,30.9538055 181.335586,31.1161329 182.519763,31.4466403 M189.280632,61.256917 C188.742798,60.6528106 188.063869,60.1911391 187.304348,59.9130435 C186.385174,59.5682926 185.426476,59.3399048 184.450593,59.2332016 C183.374177,59.1014493 182.247694,59.0059289 181.071146,58.9466403 C179.885375,58.8853755 178.711462,58.8241107 177.513834,58.7667984 C176.400712,58.7136906 175.291905,58.5922498 174.193676,58.4031621 C173.456726,58.6911387 172.74482,59.0394901 172.065217,59.444664 C171.447971,59.8078836 170.883987,60.2548146 170.389328,60.7727273 C169.936624,61.2494529 169.568982,61.8002471 169.302372,62.4011858 C169.035847,63.0159515 168.901197,63.6797745 168.907115,64.3498024 C168.902667,65.2172061 169.138672,66.0688764 169.588933,66.8102767 C170.088425,67.6127616 170.771145,68.2853216 171.581028,68.7727273 C172.576973,69.3754715 173.661297,69.8182704 174.794466,70.0849802 C176.228245,70.4250973 177.698503,70.587058 179.171937,70.5671937 C180.612215,70.5779497 182.048002,70.4052834 183.444664,70.0533597 C184.660664,69.7545921 185.821865,69.2657004 186.885375,68.6047431 C187.804181,68.0369306 188.587377,67.2746469 189.179842,66.3715415 C189.727223,65.5266857 190.015732,64.5402613 190.009881,63.5335968 C190.009881,62.5862978 189.763505,61.826087 189.270751,61.2529644 M182.318182,47.6857708 C183.263281,47.3500448 184.127659,46.8202432 184.855731,46.1304348 C185.5455,45.457327 186.075622,44.6381696 186.407115,43.7332016 C187.117918,41.7364569 187.113028,39.554803 186.393281,37.5612648 C186.050594,36.6542391 185.510559,35.8347359 184.812253,35.1620553 C184.084081,34.4771345 183.220273,33.9526556 182.27668,33.6225296 C181.185287,33.2447355 180.036211,33.0608031 178.881423,33.0790514 C177.721536,33.0617058 176.567422,33.2455882 175.470356,33.6225296 C174.518026,33.949977 173.645807,34.4753287 172.911067,35.1640316 C172.213118,35.8370084 171.673139,36.6564261 171.33004,37.5632411 C170.959681,38.552492 170.776074,39.6018702 170.788538,40.6581028 C170.775435,41.7079561 170.959103,42.7509745 171.33004,43.7332016 C171.675984,44.6345243 172.215714,45.4488424 172.911067,46.1185771 C173.645793,46.8114255 174.51576,47.3449787 175.466403,47.6857708 C177.68998,48.4282889 180.094605,48.4282889 182.318182,47.6857708" id="Fill-9"></path>
                    <path d="M199.916996,69.1086957 C199.944352,70.1174427 199.357336,71.0420411 198.432792,71.4464383 C197.508248,71.8508354 196.43083,71.6542633 195.708663,70.9494279 C194.986495,70.2445924 194.763813,69.1722666 195.145636,68.2381732 C195.527458,67.3040799 196.437526,66.6947805 197.44664,66.6976285 C198.095367,66.6849195 198.722086,66.9329399 199.186431,67.3861409 C199.650776,67.8393419 199.913945,68.4598517 199.916996,69.1086957 Z M195.581028,69.1086957 C195.565428,69.6162747 195.757196,70.1083209 196.112153,70.471481 C196.46711,70.834641 196.954648,71.0375981 197.462451,71.0335968 C197.962139,71.0317689 198.439738,70.8274302 198.786116,70.4672714 C199.132494,70.1071127 199.318054,69.6219096 199.300395,69.1225296 C199.300395,68.0494071 198.521739,67.1818182 197.448617,67.1818182 C196.94303,67.1826797 196.459253,67.3878441 196.107186,67.750704 C195.755119,68.1135639 195.564651,68.6033134 195.579051,69.1086957 L195.581028,69.1086957 Z M197.065217,70.3735178 L196.505929,70.3735178 L196.505929,67.9624506 C196.811853,67.9086055 197.122223,67.88412 197.432806,67.8893281 C197.72327,67.8654178 198.014417,67.9265311 198.270751,68.0652174 C198.425632,68.196798 198.512187,68.3917305 198.505929,68.5948617 C198.484891,68.8728988 198.279882,69.1022172 198.005929,69.1541502 L198.005929,69.1837945 C198.251964,69.2836924 198.421891,69.5122928 198.44664,69.7766798 C198.47053,69.9861498 198.530014,70.190002 198.62253,70.3794466 L198.029644,70.3794466 C197.934272,70.1929047 197.867643,69.9930185 197.832016,69.7865613 C197.788538,69.5217391 197.634387,69.4051383 197.332016,69.4051383 L197.067194,69.4051383 L197.065217,70.3735178 Z M197.081028,69.0059289 L197.34585,69.0059289 C197.65415,69.0059289 197.905138,68.9031621 197.905138,68.6521739 C197.905138,68.4328063 197.743083,68.284585 197.391304,68.284585 C197.28773,68.282317 197.184249,68.2922671 197.083004,68.3142292 L197.081028,69.0059289 Z" id="Shape"></path>
                </g>
            </g>
        </g>
    </g>
</svg>