<?xml version="1.0" encoding="UTF-8"?>
<svg width="136px" height="59px" viewBox="0 0 136 59" version="1.1" xmlns="http://www.w3.org/2000/svg" xmlns:xlink="http://www.w3.org/1999/xlink">
    <!-- Generator: Sketch 43.1 (39012) - http://www.bohemiancoding.com/sketch -->
    <title>bestegg_color</title>
    <desc>Created with Sketch.</desc>
    <defs></defs>
    <g id="Page-1" stroke="none" stroke-width="1" fill="none" fill-rule="evenodd">
        <g id="Best-Egg-LP-v2" transform="translate(-650.000000, -1860.000000)" fill-rule="nonzero">
            <g id="bestegg_color" transform="translate(650.000000, 1860.000000)">
                <g id="Layer_1">
                    <g id="Page-1">
                        <g id="Artboard">
                            <g id="Group">
                                <path d="M77.9266165,11.9980544 L80.4207622,11.9980544 C76.0633903,4.26017875 70.5408308,0 64.8545007,0 C59.1681706,0 53.6456112,4.25884117 49.2828697,11.9980544 L51.7756731,11.9980544 C52.4305078,10.9148226 53.1476412,9.87021682 53.9234842,8.86946477 C57.2794392,4.54775753 61.1226788,2.14948422 64.8545007,2.14948422 C69.4078604,2.14814665 74.1236483,5.71947389 77.9266165,11.9980544 L77.9266165,11.9980544 Z" id="Fill-1" fill="#4D4D4C"></path>
                                <path d="M64.8545007,56.7988164 C56.8216869,56.7988164 50.8937281,53.4883165 47.7310761,47.5695438 L45.3067343,47.5695438 C46.2916725,49.7368322 47.6769287,51.7001927 49.3902603,53.3572341 C53.2187337,57.0141661 58.5654411,58.9469631 64.8545007,58.9469631 C71.1435603,58.9469631 76.4902677,57.0195164 80.3173988,53.3572341 C82.0304088,51.7011661 83.4160478,49.7392696 84.4022671,47.5735565 L81.9779253,47.5735565 C78.8125886,53.4896541 72.8859721,56.8028292 64.8545007,56.8028292" id="Fill-2" fill="#4D4D4C"></path>
                                <path d="M20.0404206,31.3380621 C20.0514521,32.7449224 19.8542384,34.1457153 19.4551421,35.4952476 C19.1005961,36.7095053 18.5154745,37.8446819 17.7315236,38.8391869 C16.9780202,39.781359 16.0244744,40.5455755 14.9393691,41.0769511 C13.8332463,41.6289241 12.5642479,41.9049105 11.1323738,41.9049105 C9.28794094,41.9049105 6.56469535,41.5237014 2.96263703,40.7612833 L2.96263703,14.9607847 L1.96256246,14.921995 L1.3410396,14.8979187 L1.03094936,14.8858805 L0.813483481,14.8765174 C0.27116116,14.8488742 0,14.6081106 0,14.1542265 L0,13.3409805 L4.90909091,13.3409805 L4.92922664,24.8601828 C5.77370061,23.7143452 6.84050584,22.7491524 8.06637333,22.0218471 C9.28680762,21.3185066 10.675755,20.9579522 12.085465,20.978538 C14.5867701,20.978538 16.538146,21.8399368 17.9395928,23.5627343 C19.3410396,25.2855319 20.0413155,27.8773078 20.0404206,31.3380621 M18.0268476,31.3380621 C18.0268476,28.3133575 17.465732,26.0898608 16.3435006,24.6675719 C15.2212693,23.245283 13.6104109,22.5319093 11.5109255,22.5274507 C10.2127842,22.5170113 8.93957936,22.8827346 7.84622269,23.5801228 C6.75083899,24.2747705 5.77179506,25.2418377 4.90909091,26.4813246 L4.90909091,39.4972742 C7.75225595,40.0804572 9.70318443,40.3724946 10.7618764,40.3733863 C11.9664405,40.3733863 13.0202103,40.1553614 13.9231859,39.7193118 C14.8165822,39.2917361 15.5947631,38.6580308 16.1931539,37.8707821 C16.8314042,37.0138434 17.2980984,36.0424717 17.567753,35.0097076 C17.8885259,33.8123915 18.0447725,32.5772429 18.0322172,31.3380621" id="Fill-3" fill="#238F93"></path>
                                <path d="M34.4992169,21.7075168 C35.4616343,22.0925883 36.328654,22.6813104 37.040346,23.4329895 C37.7877303,24.2370638 38.3599591,25.1866049 38.7210083,26.2218349 C39.1255127,27.324889 39.3273175,28.5911274 39.3264226,30.02055 C39.3264226,30.3215046 39.2807816,30.5248161 39.1921844,30.6344973 C39.0862107,30.7529485 38.9307981,30.8152867 38.7720188,30.8030318 L24.0313222,30.8030318 L24.0313222,31.1909288 C24.0313222,32.7157652 24.2103065,34.0569078 24.568275,35.2143566 C24.8732345,36.2763621 25.3890558,37.2665589 26.0851667,38.126259 C26.7243452,38.8971606 27.5401735,39.5036299 28.4638676,39.8945342 C29.4517735,40.3006918 30.5122923,40.5022972 31.5808785,40.4870802 C32.4807562,40.5033995 33.3782678,40.3898664 34.2455067,40.1500111 C34.9022675,39.9640555 35.5379235,39.7107931 36.1422925,39.3942809 C36.5662555,39.1710883 36.9739964,38.9185593 37.3625177,38.6385506 C37.6645537,38.4138378 37.8820195,38.3014815 38.0189425,38.3014815 C38.1818641,38.2940372 38.3369465,38.3715541 38.428369,38.5061306 L38.9653218,39.1588675 C38.593864,39.6059721 38.1539782,39.9919203 37.6618689,40.3024948 C37.095843,40.6708016 36.4908034,40.9758268 35.8577075,41.2120463 C35.1650198,41.4723213 34.4514551,41.6736771 33.7246625,41.8139554 C32.9732501,41.9636276 32.2088921,42.0393417 31.4426132,42.0400057 C30.135685,42.056414 28.8389184,41.8093636 27.6302483,41.313702 C26.4975031,40.841922 25.4875284,40.1191736 24.677008,39.2003324 C23.8188937,38.2065339 23.1734506,37.0486228 22.7802222,35.7975397 C22.3327616,34.4599639 22.1090312,32.924427 22.1090312,31.1909288 C22.095115,29.8207702 22.3064267,28.4575844 22.7345813,27.1554628 C23.1160577,25.9834811 23.7295407,24.8996302 24.5387426,23.9680198 C25.3363036,23.0673946 26.3230276,22.35272 27.428891,21.8747137 C28.5699157,21.3700018 29.8675516,21.1180917 31.3217988,21.1189834 C32.4091543,21.1087337 33.4881948,21.3085977 34.4992169,21.7075168 M28.5014542,23.0557931 C27.6888691,23.3684811 26.9518721,23.8489365 26.3388769,24.465598 C25.7133355,25.1034644 25.2125794,25.8519093 24.8622567,26.6725979 C24.4706245,27.5902049 24.218178,28.5607625 24.1132075,29.5523985 L37.563875,29.5523985 C37.5788506,28.5568401 37.4263953,27.5658117 37.1128347,26.6204325 C36.8434246,25.8097964 36.4108575,25.0624551 35.8415989,24.4241331 C35.2953271,23.825308 34.6228222,23.3543672 33.8723246,23.0450925 C33.0655954,22.7173412 32.200983,22.554499 31.3298531,22.5662404 C30.3640901,22.5505024 29.404028,22.7165957 28.5001119,23.0557931" id="Fill-4" fill="#238F93"></path>
                                <path d="M55.1625028,35.8229536 C55.1698294,36.6708936 55.0054674,37.511598 54.6792453,38.2947936 C54.3640498,39.0488294 53.8876228,39.7253072 53.283168,40.2770808 C52.6297634,40.8620028 51.8670785,41.3128848 51.0387053,41.603956 C50.0642287,41.9456798 49.0365016,42.1119007 48.0035797,42.0948463 C45.9405903,42.0917664 43.8957357,41.710919 41.9709151,40.9712827 L41.9709151,36.0088766 L42.9683049,36.0088766 C43.524051,36.0088766 43.8184801,36.338812 43.8515922,36.9986827 C43.8515922,37.0561984 43.8690432,37.2167075 43.8972332,37.4761972 C43.9254232,37.7356869 43.956298,38.0954948 43.9965695,38.5462578 C44.0368409,38.9970209 44.0704005,39.4825608 44.0985905,39.9988651 C45.2029234,40.4384816 46.5318816,40.6587358 48.085465,40.6596275 C48.8590481,40.6742762 49.6291994,40.5533947 50.3608024,40.3024948 C50.9678017,40.0931381 51.5258571,39.763235 52.0011932,39.3327524 C52.4331391,38.9302196 52.7716932,38.4385859 52.9932135,37.8921833 C53.2176639,37.3397889 53.3325422,36.7492848 53.3314938,36.1533348 C53.3314938,35.4720629 53.1672757,34.9067142 52.8388396,34.4572888 C52.4922718,33.9909441 52.052594,33.6011139 51.5474681,33.3123239 C50.9738577,32.9793217 50.3652322,32.7101887 49.7325677,32.5097785 C49.0569021,32.2939829 48.3611008,32.0772957 47.6451637,31.8597167 C46.9292266,31.6421377 46.2320829,31.4036033 45.5537326,31.1441137 C44.9067754,30.9020971 44.2964842,30.5721624 43.7401745,30.1636706 C43.2142667,29.7778948 42.7741393,29.2878829 42.4474607,28.7244391 C42.1199195,28.1590904 41.9561489,27.454188 41.9561489,26.6097319 C41.9561506,25.8887129 42.1175772,25.1767751 42.4286673,24.5257889 C42.7472104,23.8524497 43.2046135,23.2535739 43.7710493,22.7682143 C44.3969398,22.2392727 45.1161789,21.8310463 45.8920128,21.5643962 C46.7948575,21.2534355 47.7451139,21.1013595 48.7002759,21.1149707 C50.1643672,21.1149707 51.9689761,21.4761162 54.1141025,22.1984071 L54.1141025,27.0578198 L53.118055,27.0578198 C52.5623089,27.0578198 52.2674323,26.7278844 52.2334253,26.0680137 C52.2334253,26.0091604 52.2159743,25.852664 52.1891267,25.5998622 C52.1622791,25.3470604 52.1300619,24.9966155 52.0911328,24.5512028 C52.0522037,24.1057901 52.0186442,23.6349634 51.9904542,23.1387228 C50.9422016,22.7909059 49.8453716,22.6103354 48.7405474,22.6036925 C48.0563586,22.5959155 47.3757123,22.7026204 46.7269744,22.9193604 C46.1611523,23.1065464 45.6333822,23.3928138 45.1684689,23.7647083 C44.748183,24.1010294 44.4029872,24.5210705 44.1549705,24.9979531 C43.9194745,25.4529078 43.7965848,25.9573824 43.7965546,26.4692864 C43.7742637,27.0419053 43.9479847,27.6050666 44.2892087,28.0663519 C44.6435455,28.5084717 45.0830764,28.8754826 45.5819226,29.1457755 C46.1594643,29.463572 46.7674569,29.7230153 47.396823,29.9202318 C48.0823328,30.140486 48.7758968,30.358065 49.4775151,30.5729688 C50.1791334,30.7878726 50.8726974,31.0299739 51.5582072,31.2992724 C52.2046018,31.5480104 52.8149205,31.8813144 53.3731076,32.2904161 C53.9006472,32.6787497 54.340956,33.1726083 54.6658215,33.7403482 C55.0114608,34.379269 55.1827285,35.0974012 55.1625028,35.8229536" id="Fill-5" fill="#238F93"></path>
                                <path d="M60.8152733,40.818799 C60.0429562,40.0554891 59.6567977,38.8770849 59.6567977,37.2835863 L59.6567977,23.3915246 L56.7263778,23.3915246 C56.5918988,23.3972635 56.4600079,23.3534573 56.3558804,23.2684677 C56.257553,23.1802455 56.2047203,23.0523266 56.2122455,22.920698 L56.2122455,22.1649677 L59.7024387,21.9201913 L60.1950928,16.0803356 C60.2081729,15.9575921 60.2620347,15.8427217 60.3481244,15.7539671 C60.4412935,15.656992 60.5719455,15.6048208 60.7065404,15.6108465 L61.6300992,15.6108465 L61.6300992,21.9415925 L68.0493698,21.9415925 L68.0493698,23.3928622 L61.626072,23.3928622 L61.626072,37.1832681 C61.6150779,37.6721249 61.6877097,38.1592776 61.8408532,38.6238372 C61.964652,38.9932551 62.1675615,39.3314439 62.4355284,39.6149808 C62.6843081,39.8714951 62.9894207,40.0670021 63.32687,40.1861257 C63.6824258,40.3114255 64.0572107,40.3738924 64.4343351,40.3707111 C64.8679095,40.380938 65.2994348,40.3082909 65.7055709,40.156699 C66.0275641,40.0299096 66.3364226,39.8722255 66.6277873,39.6858724 C66.8498338,39.5438431 67.0619685,39.3869876 67.262734,39.2163833 C67.3657926,39.104644 67.5023483,39.0291034 67.6520248,39.0010336 C67.7873627,39.0163534 67.9083731,39.0921447 67.9809083,39.2070202 L68.5178611,40.0644063 C67.9649668,40.6593041 67.2907798,41.1294997 66.5405325,41.4434469 C65.7552814,41.7874351 64.9068589,41.9650753 64.0490715,41.9651014 C62.6682079,41.9651014 61.5916176,41.5838923 60.8193005,40.8214742" id="Fill-6" fill="#238F93"></path>
                                <path d="M87.4333656,21.5737592 C88.3966111,21.9586352 89.2641983,22.5478881 89.9758371,23.3005695 C90.7234852,24.1046853 91.2961474,25.0541871 91.6578417,26.0894149 C92.0596614,27.192469 92.2605713,28.4587074 92.2605713,29.88813 C92.2605713,30.1890846 92.2162727,30.3923961 92.1263331,30.5020773 C92.0194418,30.6187276 91.8640887,30.6790637 91.7061675,30.6652615 L76.9668133,30.6652615 L76.9668133,31.0531585 C76.9668133,32.5779949 77.1457976,33.9191375 77.5037661,35.0765863 C77.8088564,36.1388051 78.3251652,37.1290614 79.0220001,37.9884887 C79.6607628,38.7592567 80.4761238,39.3657208 81.3993586,39.7567639 C82.3872861,40.1628496 83.4477899,40.3644522 84.5163696,40.3493099 C85.4166949,40.3657397 86.3146652,40.2522058 87.1823402,40.0122408 C87.8386438,39.8262072 88.4738467,39.5729461 89.0777836,39.2565105 C89.5017751,39.0333675 89.9095195,38.7808365 90.2980088,38.5007803 C90.5987024,38.2760675 90.8175106,38.1637112 90.9544336,38.1637112 C91.1150649,38.1583572 91.2671788,38.2356576 91.3571482,38.3683603 L91.894101,39.0210972 C91.5224984,39.4680618 91.0826364,39.8539892 90.5906481,40.1647245 C90.0243079,40.533308 89.4187921,40.8383463 88.7851443,41.074276 C88.0929787,41.3347413 87.3798434,41.5361027 86.6534417,41.6761851 C85.9020344,41.8258915 85.137673,41.9016059 84.3713923,41.9022354 C83.0640231,41.9187137 81.7668039,41.671664 80.5576851,41.1759317 C79.4249398,40.7041517 78.4149652,39.9814033 77.6044448,39.0625621 C76.7439295,38.0693491 76.0961799,36.9113976 75.7009471,35.6597694 C75.2534865,34.3221936 75.0297561,32.7866567 75.0297561,31.0531585 C75.0158399,29.6829999 75.2271515,28.3198141 75.6553061,27.0176925 C76.0371501,25.8458716 76.6505938,24.7620901 77.4594675,23.8302495 C78.2577416,22.9298232 79.2448527,22.2152003 80.3509583,21.7369434 C81.491983,21.2331232 82.7873816,20.9812131 84.2371542,20.9812131 C85.3311136,20.9695 86.416839,21.1707828 87.4333656,21.5737592 M81.435603,22.9220355 C80.6230178,23.2347235 79.8860208,23.7151789 79.2730256,24.3318404 C78.6478503,24.9700023 78.1471426,25.7183748 77.7964054,26.5388404 C77.4035939,27.4558353 77.1497938,28.4259286 77.0433291,29.4173034 L90.4939966,29.4173034 C90.5081413,28.4218019 90.355707,27.4309101 90.0429562,26.4853373 C89.7733048,25.6748091 89.3407644,24.9275141 88.7717205,24.289038 C88.226858,23.6913407 87.5562572,23.2209061 86.8078156,22.9113349 C86.0009828,22.5839337 85.1364424,22.4211051 84.2653442,22.4324828 C83.2991336,22.4166082 82.3386063,22.5827032 81.4342606,22.9220355" id="Fill-7" fill="#238F93"></path>
                                <path d="M104.427922,21.2861804 C105.15097,21.48803 105.838985,21.7983322 106.468342,22.2064325 L111.69692,22.2064325 L111.69692,22.8752204 C111.69692,23.2149646 111.506302,23.3982125 111.121038,23.4263016 L108.025505,23.6510143 C108.414226,24.1806198 108.711822,24.7709686 108.906108,25.3978883 C109.115594,26.0689949 109.219739,26.7683283 109.214856,27.4711307 C109.226417,28.3875028 109.043432,29.295959 108.677903,30.1369191 C108.335829,30.916743 107.828963,31.6138684 107.191886,32.1807349 C106.52488,32.7642265 105.74959,33.2118302 104.909837,33.498247 C103.959526,33.8215292 102.960685,33.9803191 101.956596,33.9677361 C100.867214,33.9813252 99.784216,33.8001128 98.7590424,33.4327058 C98.2297119,33.7203162 97.7679697,34.1170232 97.404579,34.5963967 C97.0770378,35.0422552 96.9128197,35.4783049 96.9119248,35.9045457 C96.9119248,36.4895122 97.1173093,36.9389376 97.5280782,37.2528221 C98.0134555,37.5989625 98.5701784,37.8329177 99.1577299,37.9376609 C99.9211736,38.0943481 100.695951,38.1900657 101.474681,38.2239021 C102.342755,38.2649211 103.2247,38.3095069 104.120516,38.3576596 C105.016332,38.4058124 105.89783,38.4905255 106.765009,38.611799 C107.564118,38.7152953 108.344307,38.931939 109.08196,39.255173 C109.72758,39.5379096 110.289272,39.981509 110.712954,40.5432584 C111.121933,41.0952313 111.326423,41.8273311 111.326423,42.7395578 C111.325376,43.5908638 111.106373,44.4278286 110.690133,45.1712705 C110.235846,45.9824592 109.610755,46.6860774 108.857782,47.2338123 C107.979611,47.8730085 106.999272,48.359614 105.958237,48.6730438 C104.723188,49.048874 103.437122,49.2316175 102.145872,49.214762 C100.874611,49.2345491 99.6062904,49.0870332 98.3737788,48.7760371 C97.4084194,48.5339 96.4902212,48.1334005 95.6567977,47.590945 C94.9801274,47.1504976 94.4149928,46.5599176 94.0056678,45.8654723 C93.6413031,45.2295658 93.4501783,44.5097655 93.4512641,43.7775166 C93.4332377,42.7490797 93.8151734,41.753563 94.5171154,40.9993717 C95.2330524,40.2235778 96.2103065,39.6243439 97.4488776,39.2016699 C96.8299329,39.010731 96.2696983,38.6664977 95.8205683,38.2011633 C95.4178537,37.7651136 95.215154,37.1591918 95.215154,36.3820603 C95.2185862,36.0753946 95.2739545,35.7715071 95.3789246,35.4832094 C95.4982152,35.1516907 95.6640846,34.8387031 95.8715788,34.5535942 C96.1003657,34.2350022 96.3647184,33.9433258 96.659557,33.68417 C96.9876491,33.3982377 97.3480454,33.1513523 97.7334626,32.9485033 C96.7930122,32.420495 96.0108395,31.6522039 95.4675218,30.7227773 C94.930569,29.7962832 94.6620926,28.7132927 94.6620926,27.4738058 C94.649632,26.5586894 94.8279004,25.6509542 95.1856216,24.8080173 C95.5232674,24.0254125 96.0270225,23.3249621 96.6622418,22.7548386 C97.3330559,22.1621385 98.1169861,21.7103881 98.9671116,21.4266259 C99.9313882,21.1036514 100.9434,20.9449319 101.960623,20.9571368 C102.794466,20.9510887 103.625023,21.0618534 104.427922,21.2861804 M109.02021,41.462173 C108.654889,41.0533057 108.19373,40.7408403 107.677828,40.5526214 C107.053942,40.3193036 106.403197,40.1647264 105.740771,40.0924954 C105.00962,40.0033237 104.244015,39.9386742 103.443956,39.8985469 C102.643896,39.8584196 101.841151,39.8178465 101.035722,39.7768275 C100.27919,39.7409381 99.525588,39.6587451 98.7791782,39.5307136 C98.2789945,39.7255193 97.7958734,39.9612936 97.3347752,40.235616 C96.9157313,40.4811788 96.5330556,40.7837022 96.1977776,41.1344669 C95.8903219,41.4571542 95.640608,41.8299316 95.4594675,42.2366293 C95.2780484,42.6525907 95.1865715,43.101957 95.1909911,43.555479 C95.1879702,44.1425494 95.3482755,44.7189712 95.6541129,45.2207608 C95.993471,45.7638293 96.4571878,46.2190099 97.0072339,46.5489735 C97.6844328,46.9577229 98.4218964,47.257881 99.1926318,47.4384614 C100.166503,47.6687514 101.16518,47.7783698 102.166008,47.7648299 C103.144306,47.7720371 104.119548,47.6551753 105.068238,47.4170602 C105.894115,47.2145952 106.682817,46.8837232 107.405325,46.4366171 C108.029338,46.052211 108.5613,45.5363071 108.96383,44.9251566 C109.335852,44.3534455 109.53184,43.6857546 109.527631,43.0043978 C109.527631,42.363699 109.358491,41.8487323 109.02558,41.4608354 M104.293683,32.2743652 C104.935091,32.0468314 105.521716,31.6882807 106.015959,31.221693 C106.486708,30.7669009 106.848698,30.2123735 107.075099,29.5992137 C107.558021,28.2478094 107.554699,26.7711982 107.065702,25.4219646 C106.832653,24.8082201 106.465875,24.2536273 105.991797,23.7981477 C105.496947,23.3349011 104.910281,22.9799699 104.26952,22.7561762 C103.528183,22.5005336 102.747688,22.3760472 101.963308,22.3883428 C101.17546,22.3766031 100.391534,22.5010572 99.6463569,22.7561762 C99.0011776,22.9782027 98.4102121,23.3332444 97.9119994,23.7981477 C97.4381274,24.2537984 97.071382,24.8083419 96.8380938,25.4219646 C96.5854363,26.0912433 96.460245,26.8015988 96.4689388,27.5166082 C96.4582473,28.2275029 96.5821187,28.9340365 96.8340667,29.5992137 C97.069282,30.2091206 97.4358595,30.7602142 97.9079723,31.2136676 C98.4072431,31.6823207 98.9981034,32.0433993 99.6436722,32.2743652 C100.387485,32.5357917 101.171985,32.6635072 101.960623,32.6515615 C102.754551,32.6639371 103.544414,32.5362365 104.293683,32.2743652" id="Fill-8" fill="#238F93"></path>
                                <path d="M123.973003,21.2861804 C124.695686,21.4878824 125.383279,21.7981989 126.012081,22.2064325 L131.247371,22.2064325 L131.247371,22.8752204 C131.247371,23.2149646 131.055858,23.3986584 130.672832,23.4263016 L127.577299,23.6510143 C127.966076,24.182342 128.263236,24.7745341 128.456559,25.4032386 C128.665928,26.0743398 128.769628,26.7737243 128.763965,27.476481 C128.776013,28.3928982 128.593008,29.3014551 128.227012,30.1422694 C127.885306,30.9223034 127.378387,31.6195025 126.740995,32.1860852 C126.074274,32.7699729 125.298902,33.2176244 124.458945,33.5035973 C123.508641,33.8269052 122.509796,33.9856958 121.505705,33.9730864 C120.416325,33.9866466 119.333332,33.805435 118.308151,33.4380561 C117.779265,33.7263061 117.317648,34.1229058 116.953688,34.601747 C116.626147,35.0476055 116.462376,35.4836552 116.462376,35.909896 C116.462376,36.4944166 116.669103,36.9451797 117.077187,37.2581724 C117.563159,37.6041405 118.120276,37.8380689 118.708181,37.9430112 C119.471464,38.0960999 120.245792,38.1882394 121.02379,38.2185518 C121.892759,38.2595708 122.774704,38.3041566 123.669625,38.3523093 C124.564546,38.4004621 125.446491,38.4851752 126.31546,38.6064487 C127.114558,38.7099988 127.894739,38.9266404 128.632411,39.2498227 C129.277637,39.5325987 129.838884,39.976212 130.262063,40.5379081 C130.669252,41.0925562 130.872847,41.8264394 130.872847,42.7395578 C130.870622,43.5907121 130.651695,44.4273878 130.236558,45.1712705 C129.782494,45.9833985 129.156845,46.6875852 128.402864,47.2351499 C127.524572,47.8738301 126.544246,48.359977 125.503319,48.6730438 C124.26784,49.049011 122.981311,49.231756 121.689611,49.214762 C120.418358,49.234393 119.150058,49.0868795 117.917518,48.7760371 C116.952223,48.5337114 116.034056,48.1332252 115.200537,47.590945 C114.52401,47.1507512 113.959261,46.5600938 113.550749,45.8654723 C113.184629,45.230095 112.992084,44.5101766 112.992319,43.7775166 C112.973928,42.7492641 113.355374,41.7537714 114.056828,40.9993717 C114.772765,40.2235778 115.750466,39.6243439 116.989932,39.2016699 C116.370676,39.0105612 115.810046,38.6663688 115.36028,38.2011633 C114.956671,37.7651136 114.754866,37.1587459 114.754866,36.3820603 C114.758806,36.0753254 114.814626,35.7714484 114.919979,35.4832094 C115.039517,35.1517995 115.205369,34.8388455 115.412633,34.5535942 C115.642285,34.2352887 115.907048,33.9436572 116.201954,33.68417 C116.530054,33.3982473 116.890449,33.1513627 117.275859,32.9485033 C116.33537,32.420547 115.553185,31.6522438 115.009919,30.7227773 C114.472966,29.7962832 114.20449,28.7132927 114.20449,27.4738058 C114.19093,26.558591 114.369242,25.6506324 114.728018,24.8080173 C115.066036,24.0256214 115.569737,23.3252453 116.204639,22.7548386 C116.876194,22.1624611 117.660492,21.7107616 118.510851,21.4266259 C119.475195,21.1039245 120.48716,20.9452124 121.504363,20.9571368 C122.339419,20.9499481 123.171341,21.0598135 123.975688,21.2835053 M128.567977,41.4594978 C128.202655,41.0506306 127.741496,40.7381651 127.225595,40.5499463 C126.60125,40.3166143 125.950059,40.1620384 125.287195,40.0898202 C124.556044,40.0006485 123.790887,39.935999 122.991722,39.8958718 C122.186293,39.8544069 121.388918,39.8129421 120.575434,39.7741524 C119.819352,39.7382083 119.066199,39.6560155 118.320233,39.5280384 C117.819663,39.7229448 117.336104,39.9587137 116.874487,40.2329408 C116.455226,40.4787727 116.072142,40.7812616 115.736147,41.1317917 C115.42865,41.454446 115.178931,41.8272309 114.997837,42.2339542 C114.816801,42.6500358 114.725341,43.09932 114.729361,43.5528038 C114.72634,44.1398743 114.886645,44.716296 115.192483,45.2180856 C115.53176,45.7612181 115.995495,46.2164157 116.545604,46.5462984 C117.222095,46.9542437 117.958617,47.2539359 118.728317,47.4344487 C119.702204,47.6646444 120.70087,47.7742616 121.701693,47.7608171 C122.679995,47.7680969 123.655246,47.6512341 124.603923,47.4130474 C125.429885,47.2108376 126.218626,46.8799491 126.94101,46.4326044 C127.565104,46.0483013 128.097086,45.5323776 128.499515,44.9211438 C128.871321,44.3493342 129.06729,43.681709 129.063316,43.0003851 C129.063316,42.3592404 128.895965,41.8447196 128.561265,41.4568226 M123.838765,32.2743652 C124.480719,32.0471414 125.067844,31.6885646 125.562383,31.221693 C126.030905,30.7661248 126.390989,30.2117081 126.616153,29.5992137 C127.098963,28.2477903 127.095642,26.7712178 126.606757,25.4219646 C126.373988,24.8080775 126.007172,24.2534269 125.532851,23.7981477 C125.038244,23.3345841 124.451506,22.9796098 123.810575,22.7561762 C123.069251,22.50048 122.288747,22.3759921 121.504363,22.3883428 C120.716515,22.3766031 119.932589,22.5010572 119.187411,22.7561762 C118.540546,22.9777969 117.948095,23.3333619 117.449027,23.7994852 C116.974948,24.2549649 116.60817,24.8095577 116.375121,25.4233022 C116.123557,26.0928404 115.998842,26.8030735 116.007309,27.5179458 C115.998409,28.2285006 116.123164,28.9344293 116.375121,29.5992137 C116.610102,30.2092409 116.976712,30.7603822 117.449027,31.2136676 C117.948086,31.6825966 118.539007,32.0437125 119.184727,32.2743652 C120.695081,32.7769113 122.328411,32.7769113 123.838765,32.2743652" id="Fill-9" fill="#238F93"></path>
                                <path d="M135.792677,46.7736862 C135.811258,47.4564197 135.41253,48.0822002 134.784538,48.3559016 C134.156546,48.629603 133.424715,48.4965604 132.934186,48.0195183 C132.443657,47.5424763 132.292401,46.8167119 132.551752,46.1845051 C132.811104,45.5522983 133.429263,45.1399163 134.114699,45.1418438 C134.555344,45.1332422 134.981039,45.3011057 135.296444,45.6078382 C135.611848,45.9145707 135.790604,46.33454 135.792677,46.7736862 Z M132.84749,46.7736862 C132.836895,47.1172225 132.967152,47.450246 133.208255,47.6960375 C133.449358,47.941829 133.780515,48.0791931 134.125438,48.076485 C134.464849,48.0752479 134.789256,47.9369487 135.024531,47.6931884 C135.259807,47.4494282 135.385848,47.1210363 135.373853,46.7830493 C135.373853,46.0567456 134.844955,45.4695499 134.116041,45.4695499 C133.772624,45.470133 133.444021,45.608991 133.204881,45.8545794 C132.965741,46.1001678 132.836367,46.4316368 132.846148,46.7736862 L132.84749,46.7736862 Z M133.855619,47.6297347 L133.475725,47.6297347 L133.475725,45.9978923 C133.683523,45.9614492 133.89434,45.9448771 134.105302,45.948402 C134.302599,45.9322192 134.500359,45.9735815 134.674472,46.0674462 C134.779674,46.1565018 134.838467,46.2884347 134.834216,46.4259165 C134.819926,46.6140958 134.680674,46.7693015 134.494593,46.8044505 L134.494593,46.8245141 C134.661712,46.8921264 134.777133,47.0468461 134.793944,47.2257868 C134.810171,47.3675589 134.850576,47.5055288 134.913416,47.6337474 L134.510702,47.6337474 C134.44592,47.5074934 134.400663,47.3722077 134.376464,47.2324747 C134.346931,47.0532396 134.242225,46.9743226 134.036841,46.9743226 L133.856962,46.9743226 L133.855619,47.6297347 Z M133.866358,46.7041323 L134.046238,46.7041323 C134.255649,46.7041323 134.426132,46.6345784 134.426132,46.4647062 C134.426132,46.3162353 134.316056,46.2159172 134.077112,46.2159172 C134.00676,46.2143821 133.936471,46.2211165 133.867701,46.2359808 L133.866358,46.7041323 Z" id="Shape" fill="#238F93"></path>
                            </g>
                        </g>
                    </g>
                </g>
            </g>
        </g>
    </g>
</svg>