<?xml version="1.0" encoding="UTF-8"?>
<svg width="235px" height="60px" viewBox="0 0 235 60" version="1.1" xmlns="http://www.w3.org/2000/svg" xmlns:xlink="http://www.w3.org/1999/xlink">
    <!-- Generator: Sketch 46.1 (44463) - http://www.bohemiancoding.com/sketch -->
    <title>solarcity</title>
    <desc>Created with Sketch.</desc>
    <defs></defs>
    <g id="Invision/Proto" stroke="none" stroke-width="1" fill="none" fill-rule="evenodd">
        <g id="3a2-SolarCity" transform="translate(-395.000000, -260.000000)" fill-rule="nonzero" fill="#0B8340">
            <g id="solarcity" transform="translate(395.000000, 260.000000)">
                <g id="Layer_1">
                    <g id="Group">
                        <path d="M75.8518519,2.59259259 C75.8518519,1.62962963 75.037037,0.814814815 74.0740741,0.814814815 L68.7407407,0.814814815 L68.7407407,48.1481481 L75.8518519,48.1481481 L75.8518519,2.59259259 L75.8518519,2.59259259 Z" id="Shape"></path>
                        <path d="M91.9259259,13.1851852 C91.9259259,13.1851852 86.8148148,12.8888889 81.4814815,15.4074074 L81.4814815,21.7037037 C81.4814815,21.7037037 86,19.5555556 91.3333333,19.5555556 C94.8148148,19.5555556 99.1111111,20.5925926 99.1111111,26.3703704 L91.9259259,26.3703704 C84.2962963,26.3703704 78.6666667,30 78.6666667,37.5555556 C78.6666667,43.5555556 82.4444444,48.8888889 90.1481481,48.8888889 C96,48.8888889 99.1111111,45.8518519 99.1111111,45.8518519 L99.1111111,48.0740741 L106.222222,48.0740741 L106.222222,26.4444444 C106.222222,16.8888889 100.444444,13.1851852 91.9259259,13.1851852 Z M99.1111111,39.037037 C99.1111111,39.037037 95.6296296,42.5925926 91.1851852,42.5925926 C86.7407407,42.5925926 85.9259259,39.4814815 85.9259259,37.6296296 C85.9259259,35.7777778 86.4444444,32.6666667 92.0740741,32.6666667 L99.037037,32.6666667 L99.037037,39.037037 L99.1111111,39.037037 Z" id="Shape"></path>
                        <path d="M66.0740741,31.037037 C66.0740741,22.2962963 61.3333333,13.1111111 49.8518519,13.1111111 C38.3703704,13.1111111 33.6296296,22.2962963 33.6296296,31.037037 C33.6296296,39.7777778 38.5185185,48.8888889 49.8518519,48.8888889 C61.2592593,48.8888889 66.0740741,39.7777778 66.0740741,31.037037 Z M40.962963,31.037037 C40.962963,23.7777778 44.6666667,19.4074074 49.8518519,19.4074074 C55.037037,19.4074074 58.7407407,23.7037037 58.7407407,31.037037 C58.7407407,38.2962963 55.1851852,42.5925926 49.9259259,42.5925926 C44.5925926,42.5925926 40.962963,38.3703704 40.962963,31.037037 Z" id="Shape"></path>
                        <rect id="Rectangle-path" x="166.444444" y="14" width="7.11111111" height="34.1481481"></rect>
                        <path d="M195.333333,42.4444444 C192.444444,42.4444444 190.37037,41.4074074 190.37037,38.1481481 L190.37037,20.3703704 L199.703704,20.3703704 L197.111111,14 L190.37037,14 L190.37037,6.96296296 C190.37037,6 189.555556,5.18518519 188.592593,5.18518519 L183.259259,5.18518519 L183.259259,14 L177.037037,14 L177.037037,20.3703704 L183.259259,20.3703704 L183.259259,39.5555556 L183.259259,39.7037037 C183.259259,43.8518519 185.851852,48.962963 194.074074,48.962963 C198.518519,48.962963 201.481481,47.6296296 202.518519,47.1851852 C202.148148,46.1481481 200.666667,42.5185185 200.296296,41.7037037 C198.888889,42.0740741 197.185185,42.4444444 195.333333,42.4444444 Z" id="Shape"></path>
                        <path d="M116.740741,26.4444444 C116.740741,20.6666667 121.037037,19.6296296 124.518519,19.6296296 C125.62963,19.6296296 126.740741,19.7037037 127.703704,19.8518519 C127.851852,18.5925926 128,17.4074074 128.296296,16.2962963 C128.518519,15.4074074 128.740741,14.5185185 128.962963,13.7037037 C126.074074,13.1111111 123.925926,13.2592593 123.925926,13.2592593 C115.407407,13.2592593 109.62963,16.962963 109.62963,26.5185185 L109.62963,48.1481481 L116.740741,48.1481481 L116.740741,26.4444444 Z" id="Shape"></path>
                        <path d="M226.962963,14 L217.185185,38 L207.703704,14 L200.444444,14 L213.555556,46.5185185 L207.851852,59.8518519 L213.925926,59.8518519 C214.592593,59.8518519 215.259259,59.4814815 215.481481,58.8888889 L234.222222,14 L226.962963,14 Z" id="Shape"></path>
                        <path d="M152.074074,48.8888889 C157.555556,48.8888889 162.296296,46.962963 163.037037,46.5925926 L163.037037,39.4814815 C161.111111,40.2962963 157.333333,42 152.148148,42 C149.62963,42 138.518519,40.962963 138.518519,24.4444444 C138.518519,7.92592593 149.481481,6.66666667 152.148148,6.66666667 C156.222222,6.66666667 159.037037,7.85185185 160.518519,8.44444444 C160.814815,7.7037037 163.037037,2.14814815 163.037037,2.14814815 C162.222222,1.77777778 157.851852,0 152.222222,0 C148.148148,0 130.666667,1.92592593 130.666667,24.5185185 C130.592593,47.1111111 147.555556,48.8888889 152.074074,48.8888889 Z" id="Shape"></path>
                        <rect id="Rectangle-path" x="166.444444" y="3.03703704" width="7.11111111" height="7.18518519"></rect>
                        <path d="M16.8888889,20.7407407 C10.8888889,19.2592593 7.77777778,17.9259259 7.77777778,13.8518519 C7.77777778,10.6666667 9.25925926,6.81481481 16.6666667,6.81481481 C21.2592593,6.81481481 25.2592593,8.22222222 27.1111111,9.03703704 C27.4074074,8.2962963 29.5555556,2.88888889 29.5555556,2.88888889 C29.5555556,2.88888889 24.4444444,0.0740740741 16.3703704,0.0740740741 C7.03703704,0.0740740741 0.148148148,4.96296296 0.148148148,14.2222222 C0.148148148,23.1851852 6.59259259,25.8518519 14.5925926,27.5555556 C20.962963,28.962963 23.7037037,30.4444444 23.7037037,34.5925926 C23.7037037,38.4444444 22.0740741,41.8518519 13.4814815,41.8518519 C5.33333333,41.8518519 0,38.7407407 0,38.7407407 L0,45.8518519 C2.2962963,47.4074074 7.7037037,48.962963 13.1851852,48.962963 C26.7407407,48.962963 31.2592593,41.7777778 31.2592593,34.4444444 C31.2592593,25.1111111 24.7407407,22.5185185 16.8888889,20.7407407 Z" id="Shape"></path>
                    </g>
                </g>
            </g>
        </g>
    </g>
</svg>