<svg width="115" height="50" viewBox="0 0 115 50" xmlns="http://www.w3.org/2000/svg">
  <title>
    Best Egg
  </title>
  <g fill-rule="nonzero" fill="#FFF">
    <path d="M65.817 10.17h2.107C64.244 3.61 59.58 0 54.777 0c-4.803 0-9.467 3.61-13.152 10.17h2.105c.553-.918 1.16-1.804 1.814-2.652 2.835-3.663 6.08-5.696 9.233-5.696 3.845 0 7.828 3.026 11.04 8.348zM54.777 48.145c-6.785 0-11.792-2.806-14.463-7.823h-2.048c.832 1.837 2.002 3.5 3.45 4.906 3.233 3.1 7.75 4.738 13.06 4.738 5.312 0 9.828-1.634 13.06-4.738 1.448-1.404 2.618-3.067 3.45-4.903H69.24c-2.674 5.015-7.68 7.824-14.463 7.824M16.926 26.563c.01 1.193-.157 2.38-.494 3.524-.3 1.03-.794 1.992-1.456 2.835-.636.798-1.442 1.446-2.358 1.897-.934.466-2.006.7-3.216.7-1.557 0-3.857-.323-6.9-.97V12.68l-.844-.03-.525-.022-.262-.01-.183-.008C.23 12.587 0 12.382 0 11.998v-.69h4.146l.017 9.765c.714-.972 1.615-1.79 2.65-2.406 1.03-.597 2.204-.902 3.394-.885 2.113 0 3.76.73 4.945 2.19 1.184 1.46 1.775 3.658 1.774 6.59m-1.7 0c0-2.562-.474-4.447-1.422-5.653-.948-1.206-2.31-1.81-4.082-1.815-1.096-.01-2.172.3-3.095.893-.925.588-1.752 1.408-2.48 2.46V33.48c2.4.494 4.048.74 4.943.742 1.017 0 1.907-.185 2.67-.554.754-.363 1.41-.9 1.917-1.567.54-.725.933-1.55 1.16-2.424.272-1.015.404-2.062.393-3.113M29.138 18.4c.813.327 1.545.826 2.147 1.463.63.68 1.114 1.486 1.42 2.364.34.935.51 2.008.51 3.22 0 .255-.038.427-.113.52-.09.1-.22.153-.355.143h-12.45v.33c0 1.29.15 2.428.454 3.41.258.9.694 1.74 1.282 2.467.54.654 1.23 1.168 2.01 1.5.833.344 1.73.514 2.63.502.762.012 1.52-.084 2.252-.287.555-.158 1.092-.372 1.602-.64.358-.19.703-.404 1.03-.64.256-.192.44-.287.555-.287.14-.006.27.06.347.173l.453.553c-.313.38-.685.706-1.1.97-.48.31-.99.57-1.524.77-.585.22-1.188.39-1.802.51-.635.127-1.28.19-1.927.192-1.104.014-2.2-.196-3.22-.616-.957-.4-1.81-1.013-2.495-1.792-.724-.842-1.27-1.824-1.602-2.884-.378-1.134-.567-2.436-.567-3.905-.01-1.163.167-2.318.53-3.422.32-.993.84-1.912 1.523-2.702.673-.763 1.507-1.37 2.44-1.774.964-.428 2.06-.64 3.29-.64.917-.01 1.828.16 2.682.498m-5.065 1.143c-.687.265-1.31.672-1.827 1.195-.528.54-.95 1.175-1.247 1.87-.332.78-.545 1.6-.634 2.442h11.36c.013-.844-.115-1.684-.38-2.485-.228-.688-.593-1.32-1.074-1.862-.46-.508-1.03-.907-1.663-1.17-.683-.277-1.413-.415-2.15-.405-.814-.013-1.625.128-2.39.415M46.59 30.365c.007.72-.132 1.43-.407 2.095-.267.64-.67 1.213-1.18 1.68-.55.496-1.196.88-1.895 1.125-.823.29-1.69.43-2.564.416-1.742 0-3.47-.324-5.095-.95v-4.207h.84c.47 0 .72.28.747.84 0 .047.015.183.04.403.023.22.05.525.083.907.034.383.062.794.086 1.232.933.372 2.055.56 3.367.56.654.012 1.304-.09 1.922-.303.513-.177.984-.457 1.386-.822.365-.34.65-.758.84-1.22.188-.47.285-.97.284-1.475 0-.577-.138-1.057-.416-1.438-.293-.395-.664-.725-1.09-.97-.485-.282-1-.51-1.533-.68-.57-.183-1.16-.367-1.764-.55-.603-.186-1.192-.388-1.765-.608-.546-.206-1.062-.486-1.532-.832-.444-.327-.816-.742-1.092-1.22-.275-.48-.413-1.077-.413-1.792 0-.612.136-1.215.4-1.767.268-.572.654-1.08 1.132-1.49.528-.45 1.135-.795 1.79-1.02.763-.265 1.566-.394 2.373-.382 1.236 0 2.76.306 4.572.918v4.12h-.84c-.47 0-.72-.28-.748-.84 0-.05-.015-.182-.038-.396-.023-.215-.05-.512-.083-.89-.033-.377-.062-.776-.085-1.197-.886-.294-1.812-.448-2.745-.453-.578-.007-1.153.084-1.7.267-.48.16-.925.402-1.317.717-.355.285-.647.64-.856 1.045-.2.385-.303.813-.303 1.247-.018.485.13.962.417 1.353.3.375.67.686 1.092.915.487.27 1 .49 1.532.657.58.186 1.165.37 1.757.553.592.182 1.177.387 1.756.616.546.21 1.062.494 1.533.84.445.33.817.75 1.09 1.23.293.54.438 1.15.42 1.765M51.365 34.6c-.652-.647-.978-1.646-.978-2.997V19.828h-2.475c-.114.005-.225-.033-.313-.105-.084-.074-.13-.183-.123-.294v-.642l2.948-.208.416-4.95c.012-.104.058-.2.13-.276.08-.082.19-.127.303-.122h.78V18.6h5.422v1.23H52.05v11.688c-.01.415.052.827.18 1.22.106.314.277.6.504.84.21.22.467.385.752.485.3.107.617.16.936.157.366.01.73-.053 1.073-.18.272-.11.533-.243.78-.4.187-.12.366-.254.536-.4.088-.093.203-.157.33-.18.114.012.216.076.277.174l.454.726c-.466.505-1.036.903-1.67 1.17-.663.29-1.38.44-2.104.44-1.166 0-2.075-.322-2.728-.968M73.847 18.287c.814.326 1.546.826 2.147 1.464.632.682 1.115 1.487 1.42 2.365.34.935.51 2.008.51 3.22 0 .255-.037.427-.113.52-.09.1-.22.15-.354.138h-12.45v.33c0 1.292.152 2.428.454 3.41.258.9.694 1.74 1.283 2.468.54.654 1.228 1.168 2.008 1.5.835.344 1.73.515 2.633.502.76.014 1.52-.082 2.252-.286.554-.158 1.09-.372 1.6-.64.36-.19.703-.404 1.03-.64.255-.192.44-.287.556-.287.137-.005.265.06.34.173l.455.553c-.314.38-.686.706-1.1.97-.48.312-.99.57-1.526.77-.586.22-1.188.392-1.802.51-.634.127-1.28.192-1.927.192-1.103.014-2.2-.195-3.22-.616-.957-.4-1.81-1.012-2.495-1.79-.726-.843-1.274-1.824-1.607-2.885-.378-1.134-.567-2.436-.567-3.905-.01-1.16.167-2.317.53-3.42.322-.994.84-1.913 1.523-2.702.674-.764 1.508-1.37 2.442-1.775.964-.427 2.058-.64 3.282-.64.924-.01 1.84.16 2.7.502M68.78 19.43c-.685.265-1.308.672-1.825 1.195-.528.54-.95 1.175-1.248 1.87-.33.778-.546 1.6-.636 2.44h11.362c.012-.843-.117-1.683-.38-2.485-.23-.687-.594-1.32-1.075-1.862-.46-.506-1.026-.905-1.658-1.167-.683-.277-1.413-.415-2.15-.405-.815-.014-1.626.127-2.39.415M88.2 18.043c.61.17 1.192.434 1.724.78h4.416v.567c0 .288-.16.443-.486.467l-2.615.19c.328.45.58.95.743 1.48.177.57.265 1.163.26 1.76.01.775-.144 1.546-.453 2.258-.29.66-.717 1.252-1.255 1.733-.563.494-1.218.874-1.927 1.117-.803.274-1.647.408-2.495.398-.92.01-1.834-.143-2.7-.454-.447.243-.837.58-1.144.985-.278.378-.417.748-.417 1.11 0 .495.173.876.52 1.142.41.294.88.492 1.376.58.644.133 1.3.215 1.956.243.734.035 1.478.073 2.235.114.758.04 1.502.112 2.235.215.675.087 1.333.27 1.957.544.545.24 1.02.616 1.377 1.092.344.468.517 1.09.517 1.862 0 .72-.186 1.43-.537 2.06-.384.69-.912 1.285-1.548 1.75-.742.54-1.57.954-2.45 1.22-1.042.318-2.128.473-3.22.46-1.072.015-2.144-.11-3.185-.373-.815-.206-1.59-.545-2.294-1.005-.572-.373-1.05-.874-1.395-1.462-.308-.54-.47-1.15-.468-1.77-.016-.872.307-1.716.9-2.355.605-.658 1.43-1.166 2.476-1.524-.523-.163-.996-.455-1.375-.85-.34-.37-.51-.882-.51-1.54.002-.26.05-.52.138-.763.1-.28.24-.546.416-.788.193-.27.416-.518.665-.738.277-.242.58-.45.906-.623-.794-.45-1.454-1.1-1.913-1.888-.454-.785-.68-1.703-.68-2.754-.01-.776.14-1.545.442-2.26.285-.663.71-1.257 1.247-1.74.566-.502 1.228-.885 1.946-1.126.815-.274 1.67-.408 2.53-.398.703-.005 1.405.09 2.083.28m3.88 17.1c-.31-.345-.7-.61-1.134-.77-.527-.198-1.077-.33-1.636-.39-.618-.075-1.265-.13-1.94-.164-.676-.034-1.354-.07-2.034-.103-.64-.03-1.276-.1-1.906-.21-.423.166-.83.366-1.22.598-.354.21-.677.465-.96.762-.26.274-.47.59-.624.935-.153.352-.23.733-.227 1.118-.003.497.132.986.39 1.41.287.46.68.847 1.143 1.127.572.346 1.195.6 1.846.754.82.196 1.665.29 2.51.278.827.006 1.65-.093 2.45-.295.7-.172 1.365-.452 1.975-.83.527-.327.977-.764 1.317-1.283.314-.484.48-1.05.476-1.628 0-.543-.143-.98-.424-1.308m-3.997-7.787c.542-.193 1.038-.497 1.455-.892.398-.386.703-.856.895-1.375.407-1.146.405-2.398-.008-3.54-.198-.52-.508-.992-.908-1.378-.418-.392-.914-.693-1.455-.883-.626-.218-1.285-.323-1.948-.313-.666-.01-1.328.096-1.958.312-.545.187-1.044.488-1.465.882-.4.387-.71.857-.907 1.377-.213.566-.32 1.168-.312 1.774-.01.603.096 1.202.31 1.766.198.517.507.984.906 1.368.422.397.92.703 1.466.9.628.22 1.29.33 1.957.32.67.01 1.337-.1 1.97-.32M104.71 18.043c.61.17 1.19.434 1.72.78h4.423v.567c0 .288-.162.444-.486.467l-2.614.19c.328.45.58.953.742 1.486.177.57.265 1.162.26 1.757.01.777-.144 1.547-.453 2.26-.29.66-.717 1.252-1.256 1.732-.563.495-1.218.875-1.927 1.117-.804.273-1.647.408-2.495.397-.92.012-1.835-.142-2.7-.453-.448.244-.838.58-1.145.986-.277.378-.415.747-.415 1.11 0 .494.175.876.52 1.142.41.293.88.49 1.377.58.645.13 1.3.208 1.956.234.734.034 1.48.072 2.234.113.756.04 1.5.112 2.235.214.675.088 1.334.272 1.957.546.545.24 1.02.616 1.376 1.092.344.47.516 1.092.516 1.866-.002.72-.187 1.43-.537 2.06-.385.69-.913 1.286-1.55 1.75-.742.542-1.57.954-2.45 1.22-1.042.318-2.13.473-3.22.46-1.074.015-2.145-.11-3.186-.373-.815-.206-1.59-.545-2.295-1.005-.572-.373-1.05-.874-1.394-1.462-.31-.54-.472-1.15-.472-1.77-.015-.872.307-1.716.9-2.355.604-.658 1.43-1.166 2.477-1.524-.522-.163-.996-.455-1.376-.85-.34-.37-.51-.883-.51-1.54.002-.26.05-.52.138-.763.1-.28.24-.546.416-.788.194-.27.418-.518.667-.738.277-.242.582-.45.907-.623-.794-.45-1.455-1.1-1.914-1.888-.453-.785-.68-1.703-.68-2.754-.01-.776.14-1.545.442-2.26.286-.663.71-1.257 1.247-1.74.568-.502 1.23-.885 1.948-1.126.815-.273 1.67-.408 2.53-.398.704-.006 1.407.087 2.086.277m3.88 17.103c-.31-.347-.698-.612-1.134-.77-.528-.2-1.078-.33-1.637-.39-.62-.077-1.265-.132-1.94-.166-.68-.035-1.354-.07-2.04-.103-.64-.03-1.276-.1-1.906-.208-.423.165-.83.365-1.22.597-.355.21-.68.465-.962.762-.26.274-.47.59-.624.934-.153.352-.23.733-.227 1.117 0 .498.134.986.393 1.412.286.46.678.845 1.142 1.125.572.345 1.194.6 1.844.752.82.196 1.665.29 2.51.277.827.006 1.65-.093 2.45-.295.7-.172 1.365-.453 1.975-.832.528-.325.977-.763 1.317-1.28.314-.486.48-1.052.476-1.63 0-.542-.14-.98-.424-1.307m-3.99-7.783c.543-.192 1.04-.496 1.457-.892.397-.386.7-.856.89-1.375.41-1.146.406-2.398-.007-3.54-.196-.522-.506-.992-.907-1.378-.418-.393-.913-.693-1.455-.883-.625-.218-1.284-.323-1.946-.313-.666-.01-1.328.096-1.957.312-.547.187-1.047.488-1.47.883-.4.387-.71.857-.906 1.377-.21.567-.316 1.17-.31 1.775-.007.603.1 1.2.31 1.765.2.517.51.984.908 1.368.422.398.92.704 1.466.9 1.276.425 2.656.425 3.93 0M114.692 39.647c.015.58-.32 1.11-.852 1.342-.53.23-1.148.118-1.563-.287-.414-.404-.542-1.02-.323-1.555.22-.536.74-.885 1.32-.884.373-.007.732.135.998.395.267.26.418.615.42.987zm-2.488 0c-.01.292.1.574.305.782.202.208.482.324.773.322.287 0 .56-.12.76-.325.2-.207.305-.485.295-.772 0-.615-.447-1.113-1.062-1.113-.29 0-.568.118-.77.326-.202.208-.31.49-.303.78zm.852.726h-.32V38.99c.174-.03.352-.045.53-.042.167-.014.334.02.48.1.09.076.14.188.136.305-.012.16-.13.29-.287.32v.017c.14.058.24.19.253.34.014.12.048.238.1.346h-.34c-.054-.107-.092-.22-.113-.34-.024-.152-.113-.22-.286-.22h-.153v.557zm.01-.785h.15c.177 0 .32-.06.32-.203 0-.125-.092-.21-.293-.21-.06-.002-.12.004-.177.017v.396z"/>
  </g>
</svg>
