<svg width="47" height="57" viewBox="0 0 47 57" xmlns="http://www.w3.org/2000/svg">
  <title>
    Apple_logo
  </title>
  <path d="M38.762 30.283c.08 8.625 7.566 11.496 7.652 11.532-.065.204-1.2 4.09-3.945 8.108-2.38 3.47-4.843 6.93-8.727 7.005-3.818.068-5.047-2.267-9.408-2.267-4.36 0-5.727 2.192-9.34 2.336-3.75.144-6.603-3.754-9-7.213-4.892-7.078-8.636-20-3.61-28.718 2.493-4.333 6.95-7.074 11.794-7.146 3.678-.072 7.155 2.475 9.404 2.475 2.25 0 6.474-3.06 10.91-2.612 1.86.08 7.077.75 10.43 5.654-.27.17-6.227 3.632-6.162 10.846zm-7.175-21.18c-1.99 2.407-5.256 4.282-8.454 4.035-.438-3.273 1.18-6.686 3.022-8.816C28.213 1.912 31.683.115 34.55 0c.37 3.34-.973 6.693-2.963 9.103z" fill-rule="nonzero" fill="#FFF"/>
</svg>
