<svg width="105" height="35" viewBox="0 0 105 35" xmlns="http://www.w3.org/2000/svg">
  <title>
    Google_2015_logo
  </title>
  <g fill-rule="nonzero" fill="#FFF">
    <path d="M45.014 18.348c0 4.966-3.885 8.625-8.653 8.625-4.767 0-8.652-3.66-8.652-8.625 0-5 3.885-8.626 8.653-8.626 4.77 0 8.654 3.625 8.654 8.626zm-3.788 0c0-3.104-2.252-5.227-4.865-5.227-2.612 0-4.864 2.124-4.864 5.228 0 3.072 2.252 5.226 4.865 5.226 2.614 0 4.866-2.158 4.866-5.226zM63.68 18.348c0 4.966-3.884 8.625-8.652 8.625-4.768 0-8.653-3.66-8.653-8.625 0-4.997 3.885-8.626 8.653-8.626 4.768 0 8.653 3.625 8.653 8.626zm-3.787 0c0-3.104-2.252-5.227-4.865-5.227-2.614 0-4.865 2.124-4.865 5.228 0 3.072 2.25 5.226 4.865 5.226 2.613 0 4.865-2.158 4.865-5.226zM81.57 10.243V25.73c0 6.37-3.757 8.97-8.198 8.97-4.18 0-6.697-2.796-7.646-5.082l3.298-1.373c.587 1.404 2.026 3.06 4.344 3.06 2.843 0 4.604-1.753 4.604-5.055v-1.24h-.132c-.848 1.046-2.48 1.96-4.542 1.96-4.313 0-8.264-3.757-8.264-8.59 0-4.87 3.95-8.658 8.264-8.658 2.057 0 3.69.914 4.542 1.93h.132v-1.405h3.597v-.004zm-3.33 8.136c0-3.038-2.026-5.26-4.604-5.26-2.613 0-4.803 2.222-4.803 5.26 0 3.005 2.19 5.194 4.803 5.194 2.578 0 4.605-2.19 4.605-5.195zM87.5 1.167v25.277h-3.694V1.167M101.897 21.187l2.94 1.96c-.95 1.404-3.236 3.822-7.187 3.822-4.9 0-8.56-3.788-8.56-8.626 0-5.13 3.69-8.626 8.136-8.626 4.476 0 6.666 3.563 7.38 5.488l.394.98-11.53 4.775c.882 1.732 2.255 2.614 4.18 2.614 1.93 0 3.267-.948 4.247-2.387zm-9.05-3.104l7.708-3.2c-.424-1.077-1.7-1.828-3.2-1.828-1.926 0-4.605 1.7-4.508 5.028zM13.724 16.104v-3.66h12.332c.12.638.182 1.393.182 2.21 0 2.745-.75 6.14-3.17 8.56-2.352 2.45-5.358 3.755-9.34 3.755C6.348 26.97.14 20.956.14 13.575.14 6.196 6.347.183 13.728.183c4.083 0 6.992 1.602 9.178 3.69l-2.583 2.583c-1.567-1.47-3.69-2.614-6.6-2.614-5.39 0-9.605 4.344-9.605 9.734s4.216 9.734 9.606 9.734c3.496 0 5.487-1.404 6.763-2.68 1.034-1.034 1.715-2.512 1.983-4.53l-8.746.004z"/>
  </g>
</svg>
