<?xml version="1.0" encoding="UTF-8"?>
<svg width="158px" height="160px" viewBox="0 0 158 160" version="1.1" xmlns="http://www.w3.org/2000/svg" xmlns:xlink="http://www.w3.org/1999/xlink">
    <!-- Generator: Sketch 46.1 (44463) - http://www.bohemiancoding.com/sketch -->
    <title>arrow2</title>
    <desc>Created with Sketch.</desc>
    <defs></defs>
    <g id="Invision/Proto" stroke="none" stroke-width="1" fill="none" fill-rule="evenodd">
        <g id="2h-Design-Thinking-Workshops" transform="translate(-194.000000, -1101.000000)" fill-rule="nonzero" fill="#EDEDED">
            <g id="arrow2" transform="translate(194.000000, 1101.000000)">
                <path d="M158,2 L154,2 L154,0 L158,0 L158,2 Z M146,2 L142,2 L142,0 L146,0 L146,2 Z M134,2 L130,2 L130,0 L134,0 L134,2 Z M122,2 L118,2 L118,0 L122,0 L122,2 Z M110,2 L106,2 L106,0 L110,0 L110,2 Z M98,2 L94,2 L94,0 L98,0 L98,2 Z M86,2 L82,2 L82,0 L86,0 L86,2 Z M74,2 L70,2 L70,0 L74,0 L74,2 Z M62,2 L58,2 L58,0 L62,0 L62,2 Z M50,2 L46,2 L46,0 L50,0 L50,2 Z M38,2 L34,2 L34,0 L38,0 L38,2 Z M26,2 L22,2 L22,0 L26,0 L26,2 Z M14,2 L10,2 L10,0 L14,0 L14,2 Z M9,7 L9,11 L7,11 L7,7 L9,7 Z M9,19 L9,23 L7,23 L7,19 L9,19 Z M9,31 L9,35 L7,35 L7,31 L9,31 Z M9,43 L9,47 L7,47 L7,43 L9,43 Z M9,55 L9,59 L7,59 L7,55 L9,55 Z M9,67 L9,71 L7,71 L7,67 L9,67 Z M9,79 L9,83 L7,83 L7,79 L9,79 Z M9,91 L9,95 L7,95 L7,91 L9,91 Z M9,103 L9,107 L7,107 L7,103 L9,103 Z M9,115 L9,119 L7,119 L7,115 L9,115 Z M9,127 L9,131 L7,131 L7,127 L9,127 Z M9,139 L9,143 L7,143 L7,139 L9,139 Z M7.08333333,160 L0,150 L14.1666667,150 L7.08333333,160 Z"></path>
            </g>
        </g>
    </g>
</svg>