<?xml version="1.0" encoding="UTF-8"?>
<svg width="158px" height="158px" viewBox="0 0 158 158" version="1.1" xmlns="http://www.w3.org/2000/svg" xmlns:xlink="http://www.w3.org/1999/xlink">
    <!-- Generator: Sketch 46.1 (44463) - http://www.bohemiancoding.com/sketch -->
    <title>arrow1</title>
    <desc>Created with Sketch.</desc>
    <defs></defs>
    <g id="Invision/Proto" stroke="none" stroke-width="1" fill="none" fill-rule="evenodd">
        <g id="2h-Design-Thinking-Workshops" transform="translate(-709.000000, -798.000000)" fill-rule="nonzero" fill="#EDEDED">
            <g id="arrow1" transform="translate(709.000000, 798.000000)">
                <path d="M0,2 L4,2 L4,0 L0,0 L0,2 Z M12,2 L16,2 L16,0 L12,0 L12,2 Z M24,2 L28,2 L28,0 L24,0 L24,2 Z M36,2 L40,2 L40,0 L36,0 L36,2 Z M48,2 L52,2 L52,0 L48,0 L48,2 Z M60,2 L64,2 L64,0 L60,0 L60,2 Z M72,2 L76,2 L76,0 L72,0 L72,2 Z M84,2 L88,2 L88,0 L84,0 L84,2 Z M96,2 L100,2 L100,0 L96,0 L96,2 Z M108,2 L112,2 L112,0 L108,0 L108,2 Z M120,2 L124,2 L124,0 L120,0 L120,2 Z M132,2 L136,2 L136,0 L132,0 L132,2 Z M144,2 L148,2 L148,0 L144,0 L144,2 Z M149,7 L149,11 L151,11 L151,7 L149,7 Z M149,19 L149,23 L151,23 L151,19 L149,19 Z M149,31 L149,35 L151,35 L151,31 L149,31 Z M149,43 L149,47 L151,47 L151,43 L149,43 Z M149,55 L149,59 L151,59 L151,55 L149,55 Z M149,67 L149,71 L151,71 L151,67 L149,67 Z M149,79 L149,83 L151,83 L151,79 L149,79 Z M149,91 L149,95 L151,95 L151,91 L149,91 Z M149,103 L149,107 L151,107 L151,103 L149,103 Z M149,115 L149,119 L151,119 L151,115 L149,115 Z M149,127 L149,131 L151,131 L151,127 L149,127 Z M149,139 L151,139 L151,143 L149,143 L149,139 Z M150.083333,158 L143,148 L157.166667,148 L150.083333,158 Z"></path>
            </g>
        </g>
    </g>
</svg>