<svg id="Layer_1" data-name="Layer 1" xmlns="http://www.w3.org/2000/svg" viewBox="0 0 1011.58 440.7"><defs><style>.cls-1{fill:#4d4d4c}.cls-2{fill:#238f93}</style></defs><title>bestegg_logo</title><g id="Page-1"><g id="Artboard"><g id="Group"><path id="Fill-1" class="cls-1" d="M580.58 90.41h18.58C566.7 32.56 525.56.71 483.2.71s-83.5 31.84-116 89.7h18.57a245.31 245.31 0 0 1 16-23.39c25-32.31 53.63-50.24 81.43-50.24 33.92-.01 69.05 26.69 97.38 73.63z" transform="translate(-.07 -.71)"/><path id="Fill-2" class="cls-1" d="M483.2 425.35c-59.84 0-104-24.75-127.56-69h-18.06A141.84 141.84 0 0 0 368 399.62c28.52 27.34 68.35 41.79 115.2 41.79s86.68-14.41 115.19-41.79a142 142 0 0 0 30.43-43.24h-18.06c-23.58 44.23-67.73 69-127.56 69" transform="translate(-.07 -.71)"/><path id="Fill-3" class="cls-2" d="M149.36 235a107 107 0 0 1-4.36 31.08 73.89 73.89 0 0 1-12.84 25 61 61 0 0 1-20.8 16.73Q99 314 83 314q-20.61 0-60.86-8.55V112.56l-7.45-.29-4.63-.18-2.31-.09-1.62-.07q-6.06-.31-6.06-5.4v-6.08h36.57l.15 86.12a79.38 79.38 0 0 1 23.37-21.22 58.1 58.1 0 0 1 29.94-7.8q27.95 0 43.61 19.32T149.36 235m-15 0q0-33.92-12.54-49.87t-36-16a49.89 49.89 0 0 0-27.3 7.87q-12.24 7.79-21.88 21.69V296q31.77 6.54 43.6 6.55 13.46 0 23.55-4.89a46.43 46.43 0 0 0 16.91-13.82 62.15 62.15 0 0 0 10.24-21.39A102.42 102.42 0 0 0 134.4 235" transform="translate(-.07 -.71)"/><path id="Fill-4" class="cls-2" d="M257.07 163A53.36 53.36 0 0 1 276 175.9a59.36 59.36 0 0 1 12.52 20.85q4.52 12.37 4.51 28.4c0 2.25-.34 3.77-1 4.59a3.8 3.8 0 0 1-3.13 1.26H179.09v2.9q0 17.1 4 30.08a61.7 61.7 0 0 0 11.3 21.77 46.63 46.63 0 0 0 17.72 13.22 58.68 58.68 0 0 0 23.22 4.43 69.49 69.49 0 0 0 19.85-2.52 73.63 73.63 0 0 0 14.13-5.65 76.44 76.44 0 0 0 9.09-5.65c2.25-1.68 3.87-2.52 4.89-2.52a3.49 3.49 0 0 1 3.05 1.53l4 4.88a41.28 41.28 0 0 1-9.71 8.55 68.54 68.54 0 0 1-13.44 6.8 97.68 97.68 0 0 1-15.89 4.5 87.11 87.11 0 0 1-17 1.69 72.23 72.23 0 0 1-28.4-5.43 60.2 60.2 0 0 1-22-15.8 72 72 0 0 1-14.13-25.44q-5-15-5-34.44a93.85 93.85 0 0 1 4.66-30.17 68.89 68.89 0 0 1 13.44-23.83 61.19 61.19 0 0 1 21.53-15.65q12.75-5.66 29-5.65a62.68 62.68 0 0 1 23.67 4.4m-44.68 10.08a46 46 0 0 0-16.11 10.54 53.66 53.66 0 0 0-11 16.5 75.16 75.16 0 0 0-5.58 21.53h100.2a66.67 66.67 0 0 0-3.36-21.92 46.93 46.93 0 0 0-9.47-16.42A41 41 0 0 0 252.4 173a48.43 48.43 0 0 0-18.94-3.58 57.16 57.16 0 0 0-21.08 3.66" transform="translate(-.07 -.71)"/><path id="Fill-5" class="cls-2" d="M411 268.53a47.15 47.15 0 0 1-3.6 18.48 42 42 0 0 1-10.4 14.82 49.8 49.8 0 0 1-16.72 9.92 64.87 64.87 0 0 1-22.61 3.67 125.42 125.42 0 0 1-44.94-8.4v-37.1h7.43q6.21 0 6.58 7.4c0 .43.13 1.63.34 3.57s.44 4.63.74 8 .55 7 .76 10.86q12.34 4.93 29.7 4.94a49.21 49.21 0 0 0 16.95-2.67 35.37 35.37 0 0 0 12.22-7.25 30.27 30.27 0 0 0 7.39-10.77 34.48 34.48 0 0 0 2.52-13q0-7.64-3.67-12.68a31.44 31.44 0 0 0-9.62-8.56 67.45 67.45 0 0 0-13.52-6Q363 241.34 355 238.9t-15.58-5.35a55.88 55.88 0 0 1-13.51-7.33 35.27 35.27 0 0 1-9.63-10.76q-3.66-6.34-3.66-15.81a36.24 36.24 0 0 1 3.52-15.58 39.6 39.6 0 0 1 10-13.14 49.26 49.26 0 0 1 15.8-9 61.35 61.35 0 0 1 20.92-3.36q16.36 0 40.33 8.1V203h-7.42q-6.21 0-6.59-7.4c0-.44-.13-1.61-.33-3.5s-.44-4.51-.73-7.84-.54-6.85-.75-10.56a78.12 78.12 0 0 0-24.21-4 45.55 45.55 0 0 0-15 2.36 37.34 37.34 0 0 0-11.61 6.32 28.85 28.85 0 0 0-7.55 9.22 24 24 0 0 0-2.67 11 18.89 18.89 0 0 0 3.67 11.94 31.71 31.71 0 0 0 9.63 8.07 73.71 73.71 0 0 0 13.52 5.79q7.66 2.47 15.5 4.88t15.5 5.43a58.21 58.21 0 0 1 13.52 7.41 35.08 35.08 0 0 1 9.63 10.84 31 31 0 0 1 3.7 15.57" transform="translate(-.07 -.71)"/><path id="Fill-6" class="cls-2" d="M453.11 305.88q-8.63-8.56-8.63-26.43V175.59h-21.83a4.08 4.08 0 0 1-2.76-.92 3.25 3.25 0 0 1-1.07-2.6v-5.65l26-1.83 3.67-43.66a4.14 4.14 0 0 1 1.14-2.44 3.48 3.48 0 0 1 2.67-1.07h6.88v47.33H507v10.85h-47.85v103.1a32.2 32.2 0 0 0 1.6 10.77 20.09 20.09 0 0 0 4.43 7.41 17.24 17.24 0 0 0 6.64 4.27 24.13 24.13 0 0 0 8.25 1.38 25.29 25.29 0 0 0 9.47-1.6 39.79 39.79 0 0 0 6.87-3.52 43.52 43.52 0 0 0 4.73-3.51 5.26 5.26 0 0 1 2.9-1.61 3.34 3.34 0 0 1 2.45 1.54l4 6.41a42.51 42.51 0 0 1-14.73 10.31 46.12 46.12 0 0 1-18.56 3.9q-15.43 0-24.06-8.55" transform="translate(-.07 -.71)"/><path id="Fill-7" class="cls-2" d="M651.4 162a53.25 53.25 0 0 1 18.94 12.91 59.43 59.43 0 0 1 12.53 20.85q4.49 12.37 4.49 28.4c0 2.25-.33 3.77-1 4.59a3.79 3.79 0 0 1-3.13 1.22h-109.8v2.9q0 17.1 4 30.08a61.62 61.62 0 0 0 11.31 21.77 46.62 46.62 0 0 0 17.71 13.22 58.7 58.7 0 0 0 23.22 4.43 69.5 69.5 0 0 0 19.86-2.52 73.62 73.62 0 0 0 14.12-5.65 76.31 76.31 0 0 0 9.09-5.65q3.36-2.52 4.89-2.52a3.48 3.48 0 0 1 3 1.53l4 4.88a41.37 41.37 0 0 1-9.71 8.55 68.34 68.34 0 0 1-13.45 6.8 97.25 97.25 0 0 1-15.88 4.5 87.07 87.07 0 0 1-17 1.69 72.26 72.26 0 0 1-28.41-5.43 60.2 60.2 0 0 1-22-15.8A72 72 0 0 1 564 267.31q-5-15-5-34.44a93.85 93.85 0 0 1 4.66-30.17 69 69 0 0 1 13.44-23.83 61.3 61.3 0 0 1 21.54-15.65q12.75-5.65 28.95-5.65A62.59 62.59 0 0 1 651.4 162m-44.68 10.08a46 46 0 0 0-16.11 10.54 53.81 53.81 0 0 0-11 16.5 75.2 75.2 0 0 0-5.61 21.52h100.2a67 67 0 0 0-3.36-21.92 47 47 0 0 0-9.47-16.42 41 41 0 0 0-14.63-10.3 48.53 48.53 0 0 0-18.94-3.58 57.17 57.17 0 0 0-21.09 3.66" transform="translate(-.07 -.71)"/><path id="Fill-8" class="cls-2" d="M778 159.85a55.14 55.14 0 0 1 15.2 6.88h38.95v5c0 2.54-1.42 3.91-4.29 4.12l-23.06 1.68a44.23 44.23 0 0 1 6.56 13.06 51 51 0 0 1 2.3 15.5 48.61 48.61 0 0 1-4 19.93 44.24 44.24 0 0 1-11.07 15.28 50.61 50.61 0 0 1-17 9.85 65.54 65.54 0 0 1-22 3.51 67.87 67.87 0 0 1-23.82-4 31.61 31.61 0 0 0-10.09 8.7q-3.66 5-3.67 9.78 0 6.56 4.59 10.08a29.91 29.91 0 0 0 12.14 5.12 109.12 109.12 0 0 0 17.26 2.14q9.7.46 19.71 1t19.7 1.9a63.07 63.07 0 0 1 17.26 4.81 30.6 30.6 0 0 1 12.15 9.63q4.57 6.19 4.57 16.42a37.41 37.41 0 0 1-4.74 18.18A48.13 48.13 0 0 1 811 353.84a71.85 71.85 0 0 1-21.6 10.76 93.06 93.06 0 0 1-28.4 4.05 107.62 107.62 0 0 1-28.1-3.28 66.85 66.85 0 0 1-20.24-8.86 39 39 0 0 1-12.3-12.9 31.39 31.39 0 0 1-4.13-15.61 29.78 29.78 0 0 1 7.94-20.77q8-8.7 21.84-13.44a28.54 28.54 0 0 1-12.13-7.48c-3-3.26-4.51-7.79-4.51-13.6a20.37 20.37 0 0 1 1.22-6.72 27.85 27.85 0 0 1 3.67-6.95 38.69 38.69 0 0 1 5.87-6.5 41.82 41.82 0 0 1 8-5.5 45.23 45.23 0 0 1-16.88-16.64q-6-10.39-6-24.29a49.45 49.45 0 0 1 3.9-19.93 44.1 44.1 0 0 1 11-15.35 49.65 49.65 0 0 1 17.17-9.93 67.44 67.44 0 0 1 22.3-3.51 66.29 66.29 0 0 1 18.38 2.46m34.21 150.84a24.81 24.81 0 0 0-10-6.8 59.48 59.48 0 0 0-14.43-3.44q-8.17-1-17.11-1.45t-17.94-.91a137.68 137.68 0 0 1-16.81-1.84 72.41 72.41 0 0 0-10.76 5.27 39 39 0 0 0-8.47 6.72 29.13 29.13 0 0 0-5.5 8.24 24.15 24.15 0 0 0-2 9.86 23.75 23.75 0 0 0 3.45 12.45 30.26 30.26 0 0 0 10.08 9.93 56.29 56.29 0 0 0 16.28 6.65 90.6 90.6 0 0 0 22.15 2.44 85.91 85.91 0 0 0 21.62-2.6 60.31 60.31 0 0 0 17.41-7.33 37.43 37.43 0 0 0 11.61-11.3 26.1 26.1 0 0 0 4.2-14.36c0-4.79-1.26-8.64-3.74-11.54M777 242a36.41 36.41 0 0 0 12.83-7.87 32.55 32.55 0 0 0 7.89-12.13 46.26 46.26 0 0 0-.07-31.23 33.17 33.17 0 0 0-8-12.14 36.25 36.25 0 0 0-12.83-7.79 50.12 50.12 0 0 0-17.18-2.75 50.78 50.78 0 0 0-17.26 2.75 36.18 36.18 0 0 0-12.92 7.79 33.23 33.23 0 0 0-8 12.14 43 43 0 0 0-2.75 15.66 42.3 42.3 0 0 0 2.72 15.57 33.41 33.41 0 0 0 8 12.07 37.18 37.18 0 0 0 12.93 7.93 49.62 49.62 0 0 0 17.26 2.82A50.14 50.14 0 0 0 777 242" transform="translate(-.07 -.71)"/><path id="Fill-9" class="cls-2" d="M923.6 159.85a55 55 0 0 1 15.19 6.88h39v5q0 3.81-4.28 4.12l-23.06 1.68a44.23 44.23 0 0 1 6.55 13.1 50.84 50.84 0 0 1 2.29 15.5 48.49 48.49 0 0 1-4 19.93 44.14 44.14 0 0 1-11.07 15.28 50.47 50.47 0 0 1-17 9.85 65.53 65.53 0 0 1-22 3.51 67.88 67.88 0 0 1-23.82-4 31.8 31.8 0 0 0-10.09 8.7q-3.66 5-3.66 9.78c0 4.37 1.54 7.74 4.58 10.08a30 30 0 0 0 12.15 5.12 109 109 0 0 0 17.25 2.06q9.71.46 19.71 1t19.71 1.9a63.1 63.1 0 0 1 17.26 4.81 30.57 30.57 0 0 1 12.14 9.63Q975 310 975 320.24a37.61 37.61 0 0 1-4.74 18.18 48 48 0 0 1-13.66 15.43A71.87 71.87 0 0 1 935 364.6a93.06 93.06 0 0 1-28.41 4.05 107.72 107.72 0 0 1-28.1-3.28 66.93 66.93 0 0 1-20.24-8.86 38.89 38.89 0 0 1-12.29-12.9A31.33 31.33 0 0 1 841.8 328a29.78 29.78 0 0 1 7.93-20.77q8-8.7 21.85-13.44a28.61 28.61 0 0 1-12.14-7.48q-4.51-4.89-4.51-13.6a20.4 20.4 0 0 1 1.23-6.72 28 28 0 0 1 3.67-6.95 39.19 39.19 0 0 1 5.88-6.5 41.83 41.83 0 0 1 8-5.5 45.22 45.22 0 0 1-16.88-16.64q-6-10.39-6-24.29a49.17 49.17 0 0 1 3.9-19.93 44.2 44.2 0 0 1 11-15.35 49.81 49.81 0 0 1 17.18-9.93 67.55 67.55 0 0 1 22.3-3.51 66.35 66.35 0 0 1 18.41 2.44m34.21 150.84a24.81 24.81 0 0 0-10-6.8 59.55 59.55 0 0 0-14.44-3.44q-8.17-1-17.1-1.45c-6-.31-11.94-.62-18-.91a137.68 137.68 0 0 1-16.8-1.84 72.71 72.71 0 0 0-10.77 5.27 39.26 39.26 0 0 0-8.48 6.72 29.11 29.11 0 0 0-5.5 8.24 24.25 24.25 0 0 0-2 9.86 23.75 23.75 0 0 0 3.45 12.45 30.24 30.24 0 0 0 10.08 9.93 56.33 56.33 0 0 0 16.26 6.64 90.67 90.67 0 0 0 22.15 2.44 85.86 85.86 0 0 0 21.62-2.6 60.19 60.19 0 0 0 17.41-7.33 37.4 37.4 0 0 0 11.61-11.3 26.13 26.13 0 0 0 4.2-14.36q0-7.19-3.74-11.54M922.6 242a36.37 36.37 0 0 0 12.84-7.87 32.63 32.63 0 0 0 7.85-12.13 46.27 46.27 0 0 0-.07-31.23 33.1 33.1 0 0 0-8-12.14 36.15 36.15 0 0 0-12.83-7.79 50.1 50.1 0 0 0-17.18-2.75 50.78 50.78 0 0 0-17.26 2.75 36.1 36.1 0 0 0-12.95 7.8 33.17 33.17 0 0 0-8 12.14 43.21 43.21 0 0 0-2.74 15.66A42.54 42.54 0 0 0 867 222a33.35 33.35 0 0 0 8 12.07 37.09 37.09 0 0 0 12.93 7.93 54.73 54.73 0 0 0 34.67 0" transform="translate(-.07 -.71)"/><path class="cls-2" d="M1011.65 350.4a12.54 12.54 0 1 1-12.5-12.2 12.26 12.26 0 0 1 12.5 12.2zm-21.94 0a9.45 9.45 0 0 0 9.52 9.74 9.34 9.34 0 0 0 9.3-9.67c0-5.43-3.94-9.82-9.37-9.82a9.48 9.48 0 0 0-9.46 9.75zm7.51 6.4h-2.83v-12.2a24.67 24.67 0 0 1 4.69-.37 7.6 7.6 0 0 1 4.24.89 3.38 3.38 0 0 1 1.19 2.68 3.12 3.12 0 0 1-2.53 2.83v.15a3.6 3.6 0 0 1 2.23 3 9.37 9.37 0 0 0 .89 3.05h-3a10.52 10.52 0 0 1-1-3c-.22-1.34-1-1.93-2.53-1.93h-1.34zm.08-6.92h1.34c1.56 0 2.83-.52 2.83-1.79 0-1.11-.82-1.86-2.6-1.86a6.67 6.67 0 0 0-1.56.15z" transform="translate(-.07 -.71)"/></g></g></g></svg>