<?xml version="1.0" encoding="UTF-8"?>
<svg width="83px" height="100px" viewBox="0 0 83 100" version="1.1" xmlns="http://www.w3.org/2000/svg" xmlns:xlink="http://www.w3.org/1999/xlink">
    <!-- Generator: Sketch 46.1 (44463) - http://www.bohemiancoding.com/sketch -->
    <title>FormForce logo</title>
    <desc>Created with Sketch.</desc>
    <defs></defs>
    <g id="Invision/Proto" stroke="none" stroke-width="1" fill="none" fill-rule="evenodd">
        <g id="3a4-FormForce" transform="translate(-471.000000, -240.000000)" fill-rule="nonzero" fill="#FFFFFF">
            <g id="FormForce-logo" transform="translate(471.000000, 240.000000)">
                <path d="M41.1764706,19.7294118 L0.223529412,19.7294118 L0.223529412,46.6 C1.51749965,63.9414841 11.447669,79.4689796 26.6470588,87.9176471 L26.6470588,60.1411765 L9.51764706,60.1411765 C9.51764706,60.1411765 6.64705882,53.5176471 6.24705882,48.2941176 L26.4588235,48.2941176 L26.4588235,36.6470588 L5.94117647,36.6470588 L5.94117647,25.1882353 L37.6470588,25.1882353 L33.2705882,48.3882353 L38.3647059,48.3882353 L33.2705882,76.6235294 L42.3529412,76.6235294 L40.6352941,99.6352941 L48,71.0117647 L40.2352941,71.0117647 L47.9882353,42.7764706 L42.8941176,42.7764706 L46.6705882,25.1294118 L76.4117647,25.1294118 L76.4117647,36.5882353 L55.9058824,36.5882353 L55.9058824,48.2352941 L76.1058824,48.2352941 C75.7176471,53.4588235 72.8470588,60.0823529 72.8470588,60.0823529 L55.7058824,60.0823529 L55.7058824,87.8470588 C70.886885,79.4134897 80.814545,63.9164389 82.1294118,46.6 L82.1294118,19.7294118 L41.1764706,19.7294118 Z" id="Shape"></path>
                <polygon id="Shape" points="8.05882353 2.01176471 2.94117647 2.01176471 2.94117647 7.12941176 6.18823529 7.12941176 6.18823529 8.77647059 2.94117647 8.77647059 2.94117647 15.0117647 0.482352941 15.0117647 0.482352941 0.364705882 8.05882353 0.364705882"></polygon>
                <path d="M16.2823529,12.4235294 C16.2823529,13.9882353 14.3647059,15.2705882 12,15.2705882 C9.63529412,15.2705882 7.72941176,13.9882353 7.72941176,12.4235294 L7.72941176,6.18823529 C7.72941176,4.62352941 9.64705882,3.34117647 12,3.34117647 C14.3529412,3.34117647 16.2823529,4.62352941 16.2823529,6.18823529 L16.2823529,12.4235294 Z M13.8,6.18823529 C13.8,5.54117647 12.9882353,5.01176471 12.0117647,5.01176471 C11.0352941,5.01176471 10.2,5.56470588 10.2,6.18823529 L10.2,12.4235294 C10.2,13.0941176 10.9764706,13.6 12.0117647,13.6 C13.0470588,13.6 13.8,13.0705882 13.8,12.4235294 L13.8,6.18823529 Z" id="Shape"></path>
                <path d="M23.6588235,3.81176471 L22.8,5.28235294 C22.6072068,5.19593704 22.3994002,5.14798168 22.1882353,5.14117647 C21.1529412,5.14117647 20.3764706,5.69411765 20.3764706,6.31764706 L20.3764706,14.9882353 L17.9058824,14.9882353 L17.9058824,3.52941176 L19.5529412,3.52941176 L20.1058824,4.24705882 C20.65007,3.69614236 21.4201776,3.43073807 22.1882353,3.52941176 C22.6947132,3.49288711 23.2018864,3.59026436 23.6588235,3.81176471 L23.6588235,3.81176471 Z" id="Shape"></path>
                <path d="M38.5882353,15.0117647 L36.1058824,15.0117647 L36.1058824,6.32941176 C36.1058824,5.68235294 35.4705882,5.15294118 34.4941176,5.15294118 C33.5176471,5.15294118 32.8705882,5.70588235 32.8705882,6.32941176 L32.8705882,15 L30.4,15 L30.4,6.32941176 C30.4,5.68235294 29.7529412,5.15294118 28.7764706,5.15294118 C27.8,5.15294118 27.1647059,5.70588235 27.1647059,6.32941176 L27.1647059,15 L24.7058824,15 L24.7058824,3.52941176 L26.3529412,3.52941176 L26.9058824,4.05882353 C27.4291522,3.63969422 28.0991271,3.44887858 28.7647059,3.52941176 C29.8392515,3.48612901 30.8861844,3.87607974 31.6705882,4.61176471 C32.3620942,3.7881449 33.429258,3.37906546 34.4941176,3.52941176 C36.8470588,3.52941176 38.5882353,4.81176471 38.5882353,6.37647059 L38.5882353,15.0117647 Z" id="Shape"></path>
                <polygon id="Shape" points="47.9882353 2.01176471 42.8823529 2.01176471 42.8823529 7.12941176 46.1176471 7.12941176 46.1176471 8.77647059 42.8823529 8.77647059 42.8823529 15.0117647 40.4117647 15.0117647 40.4117647 0.364705882 47.9882353 0.364705882"></polygon>
                <path d="M56.0117647,12.4235294 C56.0117647,13.9882353 54.1176471,15.2941176 51.7647059,15.2941176 C49.4117647,15.2941176 47.4941176,14.0117647 47.4941176,12.4470588 L47.4941176,6.18823529 C47.4588235,4.62352941 49.4117647,3.34117647 51.7647059,3.34117647 C54.1176471,3.34117647 56.0352941,4.62352941 56.0352941,6.18823529 L56.0117647,12.4235294 Z M53.5294118,6.18823529 C53.5294118,5.54117647 52.7176471,5.01176471 51.7411765,5.01176471 C50.7647059,5.01176471 49.9294118,5.56470588 49.9294118,6.18823529 L49.9294118,12.4235294 C49.9294118,13.0941176 50.7058824,13.6 51.7411765,13.6 C52.7764706,13.6 53.5294118,13.0705882 53.5294118,12.4235294 L53.5294118,6.18823529 Z" id="Shape"></path>
                <path d="M63.1882353,3.81176471 L62.3529412,5.27058824 C62.1602453,5.18388282 61.9523807,5.13591407 61.7411765,5.12941176 C60.7058824,5.12941176 59.9294118,5.68235294 59.9294118,6.30588235 L59.9294118,14.9764706 L57.4588235,14.9764706 L57.4588235,3.52941176 L59.1058824,3.52941176 L59.6588235,4.24705882 C60.1976957,3.70312981 60.9574217,3.43831105 61.7176471,3.52941176 C62.224125,3.49288711 62.7312982,3.59026436 63.1882353,3.81176471 L63.1882353,3.81176471 Z" id="Shape"></path>
                <path d="M66.2588235,6.18823529 L66.2588235,12.4235294 C66.2588235,13.0941176 67.0352941,13.6 68.0705882,13.6 C69.1058824,13.6 69.8588235,13.0705882 69.8588235,12.4235294 L69.8588235,12.2352941 L72.3411765,11.6823529 L72.3411765,12.4117647 C72.3411765,13.9764706 70.4235294,15.2588235 68.0705882,15.2588235 C65.7176471,15.2588235 63.8,13.9764706 63.8,12.4117647 L63.8,6.18823529 C63.8,4.4 65.7176471,3.34117647 68.0705882,3.34117647 C70.4235294,3.34117647 72.3411765,4.51764706 72.3411765,6.18823529 L72.3411765,6.68235294 L69.8705882,6.68235294 L69.8705882,6.18823529 C69.8705882,5.54117647 69.0588235,5.01176471 68.0823529,5.01176471 C67.1058824,5.01176471 66.2588235,5.54117647 66.2588235,6.18823529 Z" id="Shape"></path>
                <path d="M81.9411765,12.4235294 C81.9411765,13.9882353 80.1058824,15.2705882 77.7411765,15.2705882 C75.3764706,15.2705882 73.5647059,13.9882353 73.5647059,12.4235294 L73.5647059,6.18823529 C73.5647059,4.62352941 75.4823529,3.34117647 77.8352941,3.34117647 C80.1882353,3.34117647 82.1176471,4.51764706 82.1176471,6.43529412 C82.2095443,7.62459791 81.7445517,8.7892521 80.8588235,9.58823529 C79.4095148,10.6467603 77.7728256,11.4211937 76.0352941,11.8705882 L76.0352941,12.4235294 C76.0352941,13.0941176 76.7529412,13.6 77.7529412,13.6 C78.7529412,13.6 79.4588235,13.0705882 79.4588235,12.4235294 L79.4588235,12.2352941 L81.9411765,11.6823529 L81.9411765,12.4235294 Z M77.8470588,4.98823529 C76.8117647,4.98823529 76.0352941,5.54117647 76.0352941,6.16470588 L76.0352941,9.97647059 C77.0447967,9.6901204 77.9908968,9.21507436 78.8235294,8.57647059 C79.4019874,8.05545515 79.702516,7.29324484 79.6352941,6.51764706 C79.6352941,5.37647059 78.8235294,4.98823529 77.8470588,4.98823529 Z" id="Shape"></path>
            </g>
        </g>
    </g>
</svg>