<?xml version="1.0" encoding="UTF-8"?>
<svg width="102px" height="119px" viewBox="0 0 102 119" version="1.1" xmlns="http://www.w3.org/2000/svg" xmlns:xlink="http://www.w3.org/1999/xlink">
    <!-- Generator: Sketch 46.2 (44496) - http://www.bohemiancoding.com/sketch -->
    <title>Group 11</title>
    <desc>Created with Sketch.</desc>
    <defs>
        <filter x="-13.5%" y="-5.1%" width="126.9%" height="114.3%" filterUnits="objectBoundingBox" id="filter-1">
            <feOffset dx="0" dy="2" in="SourceAlpha" result="shadowOffsetOuter1"></feOffset>
            <feGaussianBlur stdDeviation="2" in="shadowOffsetOuter1" result="shadowBlurOuter1"></feGaussianBlur>
            <feColorMatrix values="0 0 0 0 0   0 0 0 0 0   0 0 0 0 0  0 0 0 0.1 0" type="matrix" in="shadowBlurOuter1" result="shadowMatrixOuter1"></feColorMatrix>
            <feMerge>
                <feMergeNode in="shadowMatrixOuter1"></feMergeNode>
                <feMergeNode in="SourceGraphic"></feMergeNode>
            </feMerge>
        </filter>
        <polygon id="path-2" points="0 98 52 98 52 0 0 0"></polygon>
    </defs>
    <g id="Invision/Proto" stroke="none" stroke-width="1" fill="none" fill-rule="evenodd">
        <g id="8-Careers" transform="translate(-144.000000, -2583.000000)">
            <g id="Group-11" transform="translate(148.000000, 2585.000000)">
                <g id="Page-1" filter="url(#filter-1)" transform="translate(47.016660, 55.435245) rotate(-30.000000) translate(-47.016660, -55.435245) translate(21.016660, 6.435245)">
                    <polygon id="Fill-1" fill="#EDEDED" points="0 98 52 98 52 0 0 0"></polygon>
                    <polygon id="Fill-2" fill="#6B6B6B" points="3 86 49 86 49 10 3 10"></polygon>
                    <g id="Group-10">
                        <path d="M22,5 C22,5.553 21.553,6 21,6 C20.447,6 20,5.553 20,5 C20,4.447 20.447,4 21,4 C21.553,4 22,4.447 22,5 Z" id="Fill-3" fill="#D8D8D8"></path>
                        <mask id="mask-3" fill="white">
                            <use xlink:href="#path-2"></use>
                        </mask>
                        <g id="Clip-6"></g>
                        <polygon id="Fill-5" fill="#D8D8D8" mask="url(#mask-3)" points="24 6 32 6 32 4 24 4"></polygon>
                        <path d="M29,92 C29,93.657 27.657,95 26,95 C24.343,95 23,93.657 23,92 C23,90.343 24.343,89 26,89 C27.657,89 29,90.343 29,92" id="Fill-7" fill="#D8D8D8" mask="url(#mask-3)"></path>
                    </g>
                    <path d="M15.0520794,71.688903 C15.5459373,71.4632966 15.8595852,71.0973741 15.9930231,70.5890719 C16.126461,70.0828332 16.0721229,69.6391866 15.83276,69.2574441 C15.5913337,68.8763894 15.0720263,68.4416844 14.2713988,67.9519535 L13.2417259,71.8622347 C13.9549997,71.9736622 14.5595972,71.9151972 15.0520794,71.688903 L15.0520794,71.688903 Z M12.9892943,60.9574682 C12.5339547,61.1858258 12.2423171,61.5428067 12.1143818,62.0284106 C11.9864465,62.5133267 12.0304673,62.934963 12.2464441,63.2940073 C12.4610453,63.6530516 12.939771,64.0691853 13.6826212,64.5437841 L14.6730882,60.7848243 C14.0052108,60.6713333 13.444634,60.7291105 12.9892943,60.9574682 L12.9892943,60.9574682 Z M10.8260869,75.384583 L11.2442841,73.7984601 C9.31287343,73.0734933 7.73981924,71.8147748 6.52374587,70.0229925 L8.60716569,68.5510485 C9.54467022,69.9280728 10.6314326,70.8882755 11.8681407,71.4309689 L12.9782892,67.2159815 C11.444441,66.3940315 10.3824402,65.5645154 9.78884785,64.7260575 C9.19663112,63.8882875 9.06525668,62.8434824 9.39541235,61.5902665 C9.72556801,60.3384263 10.434027,59.4291226 11.5201016,58.8630432 C12.6054884,58.2969638 13.8607677,58.1635258 15.2852519,58.4613538 L15.5713868,57.3745914 L16.9614797,57.7412017 L16.67053,58.8485988 C18.232579,59.3851018 19.595159,60.3253576 20.7589577,61.6693663 L18.8206688,63.2960708 C18.044803,62.363381 17.1189915,61.670742 16.0459856,61.2167779 L14.9702283,65.3010787 L15.0348838,65.3175864 C16.5969328,66.1484782 17.6816318,67.0000047 18.2889806,67.8714781 C18.8949538,68.7436393 19.0318309,69.8138939 18.6982361,71.0808663 C18.3639535,72.3485265 17.6431136,73.262645 16.5350286,73.8218462 C15.4269437,74.382423 14.1248923,74.50348 12.6295622,74.1870809 L12.2168676,75.7505055 L10.8260869,75.384583 Z" id="Fill-8" fill="#4FD684" transform="translate(13.641352, 66.562548) rotate(-374.000000) translate(-13.641352, -66.562548) "></path>
                </g>
                <path d="M91.2753977,38.7104681 C87.4319472,32.5018173 77.7690404,26.8384768 69.5,27.5 C57,28.5 51.5,38.7104681 49.5221824,54.7429882 L52.4778176,55.2570118 C55.0773172,40.3098891 61.6933631,32.8046707 70.4718977,31.8665067 C77.5417359,31.1109515 86,34.5 90,39.5 L91.2753977,38.7104681 Z" id="Path-5" fill="#4FD684" fill-rule="nonzero"></path>
                <polygon id="Triangle" fill="#4FD684" transform="translate(50.668719, 57.156313) rotate(7.000000) translate(-50.668719, -57.156313) " points="50.6687193 62.4504303 43.1687193 51.862195 58.1687193 51.862195"></polygon>
            </g>
        </g>
    </g>
</svg>